<svg width="1400" height="308" fill="none" xmlns="http://www.w3.org/2000/svg"><g clip-path="url(#a)" opacity=".55"><mask id="F" style="mask-type:alpha" maskUnits="userSpaceOnUse" x="0" y="-24" width="1715" height="535"><path d="M.694 334.697c67.715-1.824 135.3-7.643 202.363-16.198 59.888-7.188 120.949-14.717 181.226-7.643 25.183 2.851 49.711 9.353 73.849 15.855 10.437 2.739 21.265 5.362 31.966 6.96 6.261.684 13.308.228 19.569.342h19.312c6.262-.914 13.047-2.624 19.047-4.334 40.838-13.234 72.675-31.03 117.948-17.684 18.527 5.363 34.576 15.971 53.233 20.992 4.305 1.026 9.394.455 13.83.569 4.306-.114 9.394.229 13.699-.341 22.311-6.161 39.924-22.247 63.411-25.441 19.701-3.306 39.011 3.994 54.928 13.69 8.742 4.449 17.875 11.18 28.314 11.864 8.218-.341 17.222 1.257 24.657-2.396 23.878-10.951 42.143-28.062 71.761-23.499 21.263 2.851 37.443 16.656 56.753 23.728 8.61 3.308 18.4 1.369 27.53 1.826 10.57-.798 20.23-6.276 29.75-10.039 17.22-7.759 35.62-14.147 55.06-15.743 53.76-4.678 105.94 10.837 158.53 18.366 32.35 4.791 65.1 7.528 97.84 6.73 39.28-.228 78.55 0 117.83-.342 60.27-1.825 120.42-4.107 180.44-8.554" stroke="url(#b)" stroke-width="1.503"/><path d="M.694 324.204c27.4-.229 55.19.228 82.59-.456 45.926-1.712 91.983-5.704 137.518-11.865 79.326-10.723 162.438-25.552 240.982-3.422 19.702 5.02 39.143 11.865 59.365 14.602h23.094c6.263.114 13.046.228 19.049-1.482 18.006-4.108 34.576-12.094 51.928-17.797 14.875-5.02 31.183-8.1 47.231-7.187 28.052.684 49.319 15.629 74.109 24.527 4.174 1.598 9.263 1.825 13.699 1.598 5.48-.115 11.482.341 16.962-.343 25.964-7.643 46.186-28.064 75.674-26.238 15.135.456 28.965 7.072 41.359 14.26 8.742 4.563 17.615 11.064 27.923 12.092 8.088-.457 16.961 1.368 24.398-2.055 25.05-11.064 42.664-28.631 73.715-23.841 19.83 2.851 35.49 14.602 53.23 21.904 3.27 1.368 7.44 2.737 10.96 3.535 7.96.343 16.31 0 24.27.114 13.05-2.167 24.92-8.212 37.19-12.663 18.39-7.415 38.36-11.864 58.58-13.233 58.44-4.447 115.46 10.496 172.74 17.796 31.97 3.994 64.32 7.302 96.69 7.302 47.1-.228 94.19 0 141.3-.455 36.26-1.257 72.41-3.196 108.55-6.275" stroke="url(#c)" stroke-width="1.503"/><path d="M.694 313.135c35.097-.114 70.455-.114 105.552-.228 35.098.457 70.456-.57 105.422-4.449 67.062-6.16 132.952-23.501 200.798-22.587 27.399.227 54.668 4.335 80.632 11.864 18.005 5.02 36.01 11.408 54.668 14.26 7.437.114 15.396 0 22.833 0 19.831 1.255 37.837-7.872 55.58-14.489 39.925-16.655 72.021-16.769 110.12 3.309 8.611 4.106 17.745 8.669 27.399 10.724h16.831c3.131.113 7.177-.114 10.047-1.255 12.786-4.222 24.007-11.751 36.141-17.454 18.396-9.355 41.62-10.952 60.67-2.168 14.742 5.932 27.138 16.998 43.186 20.42 9.002-.341 18.919 1.484 27.138-2.737 24.399-11.41 42.529-27.721 72.799-23.388 20.36 2.626 36.8 14.604 55.19 21.79 4.18 1.598 8.88 3.309 13.44 3.878h15.92c12.92 1.027 24.92-3.992 36.66-7.87 19.44-6.959 39.67-12.892 60.42-15.857 64.45-9.355 129.16 4.906 192.7 13.233 35.49 4.79 71.23 7.984 107.13 9.468 32.34.457 64.84-.115 97.18 0 13.83-.115 27.81 0 41.62-.115 21.15-.912 42.29-2.28 63.3-4.106" stroke="url(#d)" stroke-width="1.503"/><path d="M.694 299.448c48.927 1.71 97.985 2.965 146.912 2.281 30.139-.457 60.54 1.027 90.418-1.712 49.059-3.536 96.81-14.259 145.216-21.218 41.36-5.703 84.546-6.845 125.123 3.65 22.05 5.363 43.186 14.147 65.628 18.14 11.09.341 22.572.114 33.661 0 6.002-1.029 12.526-2.966 18.267-4.907 24.269-8.669 48.014-21.788 75.152-21.788 27.921-1.027 48.928 12.549 72.543 22.815 3.001 1.141 6.915 2.51 10.046 3.308 3.002.229 7.047.229 10.047.229 5.349-.343 11.482.798 16.569-.913 22.05-7.3 39.925-24.184 64.454-25.553 18.136-1.711 35.098 5.932 49.71 14.601 8.482 4.45 17.093 10.724 27.138 11.636h17.875c7.308-1.71 14.222-5.361 20.616-8.898 27.011-16.313 50.361-24.184 82.071-11.864 14.48 5.59 27.79 13.805 42.92 18.368 7.44 2.737 15.66 1.825 23.62 1.937h12.91c4.18-.455 8.74-1.596 12.79-2.508 25.58-6.502 50.36-15.629 76.59-19.85 59.1-9.924 119.51-1.483 178.1 6.503 39.01 5.361 78.02 10.381 117.41 13.118 30.27 2.625 60.68 1.827 91.09 1.827 18.12 0 36.25-.116 54.27-.116 10.55-.57 21.27-1.254 31.84-2.168" stroke="url(#e)" stroke-width="1.503"/><path d="M.694 283.589c70.064 1.825 139.997 7.986 210.06 6.959 26.356-.455 53.103 1.027 79.458-1.596 43.84-3.765 86.503-14.375 129.821-21.106 39.273-5.931 80.632-6.958 119.122 3.765 20.483 5.362 40.055 13.803 60.931 17.797 7.175.685 15.003.114 22.179.228 6.002.114 12.525.114 18.267-1.71 22.05-5.933 41.489-18.139 64.062-22.817 20.875-4.678 43.317-1.71 62.105 7.186 11.221 5.02 21.918 11.408 33.662 15.402 5.087 2.053 11.091 1.482 16.44 1.596 6.654.229 13.568.115 19.57-2.737 16.179-6.73 30.27-17.796 47.754-22.017 34.183-8.214 52.057 10.381 79.457 22.473 3.523 1.597 7.828 2.281 11.872 1.94h14.615c13.701-3.422 25.051-11.979 37.581-17.796 21.39-11.18 46.7-11.523 69.14-2.51 17.36 6.502 33.67 16.198 52.46 19.621 5.74.569 12 .114 17.87.228 6.65-.228 13.57.456 20.09-.342 19.96-3.309 39.14-9.697 58.71-14.717 27.41-7.3 55.85-11.18 84.55-11.749 76.98-1.711 152.53 14.716 228.72 21.788 17.48 1.712 34.96 3.081 52.58 3.992 12.4 0 24.92 0 37.32-.113 13.05 0 26.09 0 39.14-.114 8.61-.114 17.35.227 25.84-.571" stroke="url(#f)" stroke-width="1.503"/><path d="M.694 266.936c72.934 1.939 145.738 7.186 218.542 11.635 34.965 1.598 70.062.455 105.029.455 44.884-2.851 87.94-14.943 131.908-22.472 36.011-5.933 74.11-6.845 109.469 2.966 20.222 5.363 39.401 14.147 60.146 18.367 7.045 1.027 14.744.229 21.92.456 7.306.342 14.872-.227 21.528-2.738 21.396-6.73 40.446-18.937 63.018-22.7 19.7-3.653 40.446.112 57.8 8.784 10.959 5.018 21.396 11.521 33.14 15.284 4.957 1.826 10.959.914 16.308 1.027 5.351.116 11.22.228 16.048-2.053 18.136-7.187 33.401-20.191 53.494-23.614 31.575-5.818 49.711 12.32 75.152 23.387 7.959 3.536 17.484 1.596 26.094 2.053 12.53-2.396 23.09-10.039 34.19-15.401 18.65-10.381 41.62-14.373 63.14-9.126 28.06 6.159 52.45 24.413 82.2 24.07 10.57-.227 21.4.343 31.97-.343 17.74-2.623 34.97-7.757 52.32-12.205 22.7-6.047 45.92-10.724 69.54-12.777 34.58-3.08 69.42-1.939 103.85 1.141 61.2 5.59 121.48 17.453 182.8 22.131 12 1.255 24.13 1.026 36.14.912 15.78 0 31.57-.113 47.36-.113" stroke="url(#g)" stroke-width="1.503"/><path d="M.694 250.509c49.71 1.14 99.681 2.965 149.261 6.388 42.143 2.738 84.286 6.959 126.298 10.039 18.527 1.71 37.445 1.026 56.102 1.026 16.701-.343 33.924.798 50.494-1.369 34.314-3.764 67.324-13.233 100.855-19.964 32.748-6.388 67.585-8.555 100.332-.912 22.964 5.019 43.971 15.629 66.804 20.876 6.914 1.483 14.611.457 21.658.685h10.699c4.566-.799 9.785-2.396 14.091-3.879 22.571-8.214 43.708-21.79 68.889-22.817 29.096-2.053 48.797 12.549 73.065 23.387 2.87 1.14 6.654 2.51 9.654 3.081h9.656c5.088-.114 11.09.57 15.917-1.255 21.006-7.643 38.36-23.843 61.975-25.325 28.704-2.625 46.971 15.743 70.976 24.982 3.39 1.484 7.83 1.369 11.48 1.369h14.22c13.18-3.422 24.53-10.951 36.41-16.541 10.83-5.247 22.96-9.241 35.48-10.039 42.41-3.537 77.77 25.668 119.25 26.238 11.88-.343 23.88.571 35.63-.57 29.09-4.563 56.88-14.031 85.85-19.28 55.84-10.61 113.9-8.327 170.13-1.483 50.37 6.046 100.2 16.314 150.96 20.192 15.52.685 31.19 0 46.71.114" stroke="url(#h)" stroke-width="1.503"/><path d="M.694 235.106c81.415.913 162.961 3.537 243.853 11.637 33.402 3.194 66.672 7.415 100.202 9.925 23.487.228 47.364.228 70.848-.114 29.879-2.739 58.843-10.725 87.678-17.797 32.096-7.871 66.281-12.32 99.29-6.388 25.702 4.105 48.535 16.427 73.456 22.815 6.785 1.712 14.351.686 21.267.913h10.568c4.566-.684 9.656-2.282 13.96-3.764 23.224-8.784 45.013-23.273 71.369-23.159 26.616-.913 46.317 13.918 68.629 23.729 4.828 2.167 10.437 3.194 15.917 2.737 5.09-.113 10.699.343 15.658-.456 23.093-7.414 41.358-26.01 67.324-26.351 29.224-1.484 47.227 18.708 72.547 26.351 4.43.343 9.52.115 14.08.115 3.53-.115 7.83.455 11.23-.799 13.7-4.22 25.57-11.977 38.49-17.455 25.05-11.635 54.66-10.266 81.02-2.851 18.14 4.792 35.62 11.75 53.89 16.427 6.91 1.712 14.21 3.423 21.27 4.106h11.73c9.92-.114 19.96.229 29.89-.227 15.12-2.054 29.87-5.589 44.62-9.24 27.39-6.845 55.06-13.119 83.5-15.629 38.1-3.537 76.59-2.282 114.55 1.824 34.05 3.766 67.72 10.268 101.5 15.631 17.23 2.737 34.58 5.131 52.07 6.615 7.56.114 15.14 0 22.7 0" stroke="url(#i)" stroke-width="1.503"/><path d="M.694 221.189c75.022.455 150.304.911 225.196 6.16 35.227 2.51 70.456 6.388 105.422 10.951 21.005 2.737 42.141 5.59 63.279 7.3 20.353 0 40.837 0 61.191-.114 24.138-2.396 47.622-8.67 70.717-14.943 32.618-9.127 67.585-15.629 101.768-9.811 26.878 3.878 49.971 17.682 75.936 23.842 5.61.799 11.873.228 17.483.457 6.915.114 14.352.114 20.745-2.396 23.485-8.099 44.491-23.501 70.585-24.413 28.314-1.939 47.493 13.347 70.977 23.729 4.698 2.167 10.308 3.08 15.657 2.737 4.959-.114 10.568.343 15.527-.455 22.833-7.417 40.838-25.668 66.41-26.354 29.883-1.939 48.403 18.482 74.243 26.239 4.43.456 9.39.115 13.83.229 5.48.113 11.35.113 16.44-2.055 15.65-5.59 29.74-14.602 45.66-19.621 29.36-9.468 61.98-5.134 90.94 3.651 21.53 6.388 42.79 14.602 65.5 17.454 5.87.114 12.13 0 18.13 0 8.75-.229 17.88.342 26.63-.343 15.91-2.167 31.56-6.045 47.22-9.811 26.23-6.502 52.84-12.433 80.11-14.943 45.66-4.449 91.99-1.711 136.99 5.704 24.27 3.878 48.28 9.012 72.55 13.117 14.49 2.283 29.22 5.022 43.97 5.363" stroke="url(#j)" stroke-width="1.503"/><path d="M.694 208.639c83.763.114 167.657-.684 251.29 3.879 37.708 2.054 75.414 6.046 112.729 11.636 24.79 3.536 49.709 7.871 74.63 10.153 10.568.114 21.66 0 32.228 0 7.697-.114 16.046.114 23.745-.229 19.831-2.28 39.141-7.414 57.93-12.892 32.095-9.694 66.41-17.68 100.463-12.319 26.747 3.423 49.45 17.341 74.892 24.07 3.131.913 7.176.799 10.437.686h17.223c9.524-.798 18.526-5.362 27.008-9.127 11.742-5.59 23.616-11.863 36.401-15.173 19.441-5.362 40.708-2.168 58.061 6.845 11.351 5.477 22.05 12.663 34.446 16.541 4.826 1.255 10.436.457 15.394.571 2.74 0 6.394.114 9.133-.343 2.871-.798 6.525-2.167 9.134-3.308 18.265-8.555 34.835-21.788 56.362-23.158 32.62-2.737 50.76 19.279 78.68 26.466h16.3c4.44.229 9.4-.228 13.45-1.824 16.17-5.476 30.92-14.26 47.49-19.166 31.84-9.81 67.06-6.616 98.51 2.739 16.05 4.563 31.7 10.153 48.01 14.031 10.05 2.51 20.48 4.22 30.91 3.649 12.01-.341 24.54.686 36.41-.684 33.27-5.133 64.98-15.855 98.12-21.104 44.22-7.301 89.89-6.959 134.26-.57 36.92 5.133 72.66 15.286 109.46 20.305" stroke="url(#k)" stroke-width="1.503"/><path d="M.694 197.461c106.857.456 213.975-3.422 320.571 3.537 49.188 3.08 97.333 12.89 145.868 20.305 13.049 2.282 26.486 1.712 39.663 1.712 11.613-.228 23.617.798 34.968-1.598 29.487-5.018 56.886-17.112 86.112-22.586 25.05-4.792 51.797-4.108 75.804 4.105 14.352 4.679 27.791 11.522 42.013 16.314 3.132 1.026 7.175 2.167 10.308 2.965 4.304.457 9.263.229 13.569.229 4.305 0 9.264 0 13.438-.113 3.132-.685 7.046-1.94 10.046-2.967 32.488-13.233 55.19-32.513 94.071-19.964 16.57 5.362 30.009 16.313 46.448 21.789 2.609 1.142 6.263.912 9.133.912h15.005c19.179-5.36 33.792-19.05 53.099-24.297 34.45-9.583 55.32 8.327 83.77 20.648 3.26 1.253 7.3 2.623 10.7 3.308h10.69c5.09-.228 10.83.455 15.92-.457 22.84-6.274 43.32-18.367 66.93-22.929 29.88-6.731 61.59-3.651 90.55 4.792 22.57 6.273 44.5 14.602 67.98 17.909 9 .685 18.27 0 27.27.228 7.43-.228 15.13.457 22.57-.798 27.8-4.335 54.28-13.006 81.67-18.48 44.88-9.47 91.99-10.382 137.52-3.31 29.49 4.451 58.06 12.663 87.42 18.253" stroke="url(#l)" stroke-width="1.503"/><path d="M.694 187.649c97.985.23 196.101-2.737 294.086-2.054 36.923.457 73.978 1.941 110.51 6.617 31.444 3.765 62.236 10.724 93.288 16.2 7.698 1.255 15.786 2.623 23.614 3.308h19.312c10.045-.342 20.614.684 30.53-.798 23.093-3.651 44.622-12.321 66.672-18.71 38.489-11.635 74.108-10.266 110.119 6.732 10.959 4.562 22.05 10.152 34.052 12.321h16.702c18.136 1.026 36.14-12.892 52.319-19.394 20.614-9.582 45.666-10.496 66.279-.457 12.396 5.477 23.616 13.461 36.534 18.139 7.435 2.51 16.046.912 23.876 1.253 8.611-1.025 16.177-5.816 23.483-9.582 10.83-6.045 22.05-12.547 34.58-15.513 32.88-7.873 54.79 9.468 82.19 20.991 4.96 1.71 10.31 3.992 15.79 3.763 7.7-.114 15.66.114 23.36-.114 22.7-4.905 43.05-15.856 65.49-21.56 27.27-7.3 56.76-6.959 84.29-.8 17.74 3.88 34.84 9.927 52.19 14.831 11.49 3.08 23.22 6.502 35.36 7.074 13.82-.343 28.44.569 42.01-.457 22.57-3.309 44.36-10.039 66.41-15.401 45.14-11.749 93.28-14.831 139.61-7.188 23.87 3.651 46.97 10.268 70.33 15.858" stroke="url(#m)" stroke-width="1.503"/><path d="M.694 179.092c90.548.457 181.226-1.71 271.774-4.22 52.321-1.027 104.901-2.282 156.96 2.851 36.532 3.308 72.151 12.092 107.9 19.28 12.655 2.739 25.312 3.878 38.359 3.308 9.915-.342 20.354.684 30.008-.798 18.919-3.194 36.925-10.153 54.799-16.086 36.663-12.892 73.195-14.829 108.815 1.712 12.003 5.133 24.007 11.409 37.053 14.487 4.176.343 9.004.116 13.178.228 4.175 0 9.003.115 13.048-.228 6.654-1.596 13.439-4.563 19.44-7.415 22.441-11.749 45.144-24.07 72.412-17.796 14.482 3.08 26.878 10.953 39.403 17.569 5.48 2.852 11.613 5.817 17.744 7.415 3.654.114 8.089 0 11.743 0 3.653-.114 8.09.343 11.61-.571 8.22-2.509 15.79-6.731 23.1-10.723 29.74-17.911 55.97-21.333 88.46-5.933 14.22 6.047 30.66 16.656 46.84 16.884h17.87c4.04.114 8.62 0 12.53-1.255 16.95-4.106 32.74-11.407 49.31-16.654 23.49-7.986 49.2-10.953 74.25-8.328 37.04 3.194 70.06 20.647 106.72 25.666h27.4c6.27-.113 12.92.343 19.05-.911 21.78-3.651 42.67-10.496 63.94-15.859 39.65-10.494 81.93-13.574 122.77-7.072 19.18 2.966 37.83 8.1 56.5 13.233" stroke="url(#n)" stroke-width="1.503"/><path d="M.694 171.681a4735.33 4735.33 0 0 0 284.561-5.476c60.017-2.51 120.426-6.161 180.314-1.026 36.14 2.851 71.107 11.977 106.073 19.963 7.306 1.597 15.265 3.08 22.704 3.992h26.093c17.745 1.141 34.706-4.447 50.885-10.153 43.838-16.884 80.239-25.78 124.861-4.563 11.743 5.134 23.486 11.637 36.403 14.261h13.046c31.837 2.396 53.102-32.856 97.333-26.352 14.353 2.053 26.878 9.011 38.881 15.742 9.655 5.249 20.092 11.637 32.092 10.267h11.49c7.04-1.255 13.83-4.791 19.96-7.871 23.74-13.462 45.01-23.728 74.24-17.225 24.39 5.361 44.62 20.419 69.4 24.754 7.32.114 15.01 0 22.31 0 6.67.457 13.32-.799 19.59-2.739 16.3-4.676 31.56-11.521 47.75-16.427 14.61-4.563 30-7.415 45.53-7.87 20.35-.798 40.71 2.282 60.02 7.757 22.44 6.16 44.09 15.172 67.45 18.595 8.09.571 16.57 0 24.65.114 5.49-.114 11.23.114 16.71-.114 6.14-.913 12.27-2.168 18.26-3.537 17.76-4.221 34.97-10.039 52.58-14.488 50.9-13.576 99.82-11.521 149.8 4.106" stroke="url(#o)" stroke-width="1.503"/><path d="M.694 164.947c102.03 1.827 204.191.686 305.959-6.273 64.583-3.878 129.56-10.609 194.274-5.817 34.314 2.28 67.584 10.951 100.464 19.621 8.48 2.053 17.482 3.992 26.093 5.247 5.872.228 12.396 0 18.398.114h18.135c9.785-1.026 19.441-4.108 28.572-7.072 39.926-14.945 73.458-29.319 116.774-12.663 16.44 5.704 31.444 16.884 49.058 19.392 8.22-.455 17.484 1.027 25.443-1.139 27.528-9.583 47.492-29.776 80.11-25.553 15.265 1.71 28.573 9.125 41.226 16.311 7.18 3.879 14.75 7.986 22.97 10.04h11.35c31.31 2.396 49.58-33.767 101.24-26.125 27.66 4.107 50.76 20.193 78.03 25.554 10.43.341 21 .114 31.32 0 27.26-5.249 51.27-19.164 78.66-24.07 27.93-5.59 57.41-3.195 84.42 4.79 19.96 5.704 39.27 13.69 59.75 17.797 10.19 2.167 20.88.798 31.31 1.14h12.54c10.18-1.369 20.22-3.992 30.02-6.843 19.3-5.704 38.35-12.321 58.3-16.2 35.76-7.301 73.73-5.133 108.43 5.476" stroke="url(#p)" stroke-width="1.503"/><path d="M.694 158.446c88.852 1.939 177.834 2.396 266.556-2.053 63.41-2.853 126.297-10.495 189.577-14.945 39.142-2.396 79.066-2.965 117.686 4.222 24.267 4.22 47.362 12.206 71.238 17.909 9.394 2.51 19.31 3.308 29.096 2.967 8.088-.343 16.961.684 24.919-.685 18.266-3.651 34.966-11.75 52.188-17.91 22.052-8.328 47.364-11.75 70.718-5.248 20.615 5.248 37.575 18.253 58.321 23.5 8.22-.342 17.091.684 25.181-.569 24.79-7.758 45.143-27.38 73.065-26.695 35.231-.456 55.841 28.632 80.501 26.807h13.83c8.74-2.053 16.96-6.388 24.79-10.38 45.93-26.238 77.5-18.709 123.69 1.254 12.01 4.677 24.79 9.812 38.23 8.671 10.17-.228 20.61.912 30.26-2.396 18.53-5.134 35.75-13.347 54.15-18.594 39.14-11.523 76.98-6.389 114.3 7.414 14.48 5.019 28.96 10.268 44.23 12.778 7.05.455 14.34 0 21.52.113 5.22-.113 10.57.114 15.8-.113 9.92-1.598 19.69-4.222 29.1-7.188 18.25-5.704 36.13-12.321 55.04-16.085 29.36-6.046 60.42-5.133 89.12 2.738" stroke="url(#q)" stroke-width="1.503"/><path d="M.694 151.487c104.639 2.396 209.669 3.537 314.308-2.51 55.451-3.079 110.51-10.609 165.7-16.655 60.802-6.503 114.035-6.731 172.095 12.662 16.308 4.564 33.009 11.181 50.493 10.154 11.742-.114 23.876 1.027 34.965-2.967 22.963-6.844 43.708-19.278 67.846-23.043 19.964-3.422 40.969-.114 58.974 8.214 11.611 5.133 22.703 11.75 34.966 15.856 5.74 2.167 12.527 1.255 18.659 1.369h9.264c2.869-.684 6.521-1.939 9.263-3.08 18.918-7.985 35.62-21.332 57.016-23.728 32.097-4.107 50.367 14.944 76.847 24.983 3.26 1.37 7.44 1.597 10.96 1.37 5.35 0 11.09 0 16.44-.116 16.31-4.334 30.14-13.916 45.67-19.849 24.52-10.153 53.62-9.24 78.54-.57 12.92 4.335 25.31 10.267 38.1 14.83 8.87 3.195 18.14 6.046 27.79 5.248h20.48c13.96-2.396 27.15-7.872 40.19-12.777 25.97-10.495 54.67-17.112 83.5-13.69 19.83 1.94 38.62 8.556 56.89 15.287 8.22 2.967 16.57 5.932 25.19 8.1 6.25 1.71 12.79 2.966 19.31 2.51 9.11-.116 18.38.227 27.39-.228 15.39-2.624 30.01-8.101 44.62-13.12 34.83-12.777 70.71-18.594 107.77-9.925" stroke="url(#r)" stroke-width="1.503"/><path d="M.694 143.501c60.148 1.484 120.426 1.712 180.574 1.369 57.278 0 114.686-.228 171.963-3.537 60.018-2.851 118.992-13.118 178.357-20.762 37.575-4.334 76.326-6.046 113.38 1.712 27.008 5.019 51.798 17.34 79.067 21.446 30.4 0 33.401 1.826 61.713-10.266 32.227-14.717 63.148-24.528 98.116-9.811 14.874 5.932 28.051 15.172 43.707 19.393 6.916.571 14.353.115 21.398.228 12.265-1.369 22.573-8.897 33.009-14.146 37.572-21.218 61.972-14.943 97.202 5.476 19.31 10.382 21.79 8.214 43.32 8.214 15.13-3.422 28.18-11.75 42.14-17.453 25.32-11.18 55.45-13.006 82.2-4.45 15.92 4.791 30.66 12.549 46.45 17.796 4.3 1.369 9.13 2.738 13.56 3.651 4.31.228 9.14 0 13.45.114 6.52-.228 13.44.685 19.96-.684 28.83-6.959 54.41-22.816 84.54-25.669 35.23-4.22 62.5 5.818 93.94 18.025 6.27 2.282 12.66 4.449 19.18 6.046 4.44 1.14 9.14 2.168 13.7 1.826h18.53c4.43 0 9 .228 13.18-1.027 18.79-4.107 36.13-12.093 54.28-17.911 24.14-7.985 50.76-10.951 76.07-6.388" stroke="url(#s)" stroke-width="1.503"/><path d="M.694 134.033c87.025-.228 174.182-.342 261.206-.57 54.016-.685 108.163 1.597 162.048-2.738 32.227-2.395 64.322-6.959 95.897-12.549 36.272-6.274 72.935-13.119 110.119-12.662 26.095.114 51.928 4.905 76.195 13.233 14.874 4.905 29.879 10.837 45.535 13.575 10.178.114 20.615 0 30.661 0 5.61-1.026 11.613-2.852 16.83-4.791 32.751-13.005 59.627-29.889 97.335-19.28 16.7 4.564 30.791 14.261 46.447 20.762 2.61 1.027 6.264 2.283 9.134 2.967h9.002c5.871-.228 12.395.798 18.006-1.369 29.351-11.294 47.751-31.6 83.891-24.526 22.05 4.22 38.62 19.278 59.76 25.211 8.35.912 17.87.341 26.35.228 8.09-1.94 15.92-5.248 23.36-8.556 49.45-23.729 79.85-25.44 130.47-2.281 9.91 4.22 20.22 8.441 31.06 10.494 10.04-.113 20.34.343 30.39-.342 21.92-4.677 41.23-15.97 62.76-21.903 18.66-5.362 38.88-6.731 58.19-3.422 19.44 3.08 37.19 11.18 55.2 18.138 7.56 2.852 15.51 5.476 23.61 6.959 5.49.228 11.08 0 16.57.114 4.84 0 9.78.114 14.62-.114 13.81-2.51 26.74-7.871 39.65-12.891 24.53-10.039 51.54-16.997 78.81-13.69" stroke="url(#t)" stroke-width="1.503"/><path d="M.694 122.625c145.086-.342 290.17-.684 435.126-.912 36.011.57 72.021-4.108 107.118-10.496 32.487-5.932 64.714-13.918 97.854-16.314 30.27-2.509 61.454.458 89.766 10.496 15.918 5.247 31.574 12.093 48.276 15.401 6.523.456 13.699.114 20.222.228 6.785.342 13.699-.228 19.962-2.509 15.787-5.02 30.009-13.348 45.666-18.824 23.224-8.898 50.231-7.757 72.281 3.537 9.135 4.22 18.006 9.582 27.269 13.575 3.654 1.483 7.96 3.194 12.004 3.879h8.872c4.697-.229 10.177.456 14.742-.57 13.568-4.108 25.178-12.321 37.708-18.254 22.05-11.293 47.36-11.18 69.54-.341 13.18 5.931 25.44 14.031 39.67 18.024 3.13 1.027 7.17.684 10.43.799h18.01c11.61-2.511 22.44-7.415 33-12.207 31.84-15.287 63.15-20.876 97.73-8.328 12.01 4.221 23.48 9.925 35.36 14.489 5.48 2.166 11.36 4.106 17.23 5.247 3.39.456 7.3.114 10.69.228 6.27-.114 12.79.115 18.92-.114 16.7-3.423 31.71-11.294 47.37-17.226 17.99-7.187 37.96-11.293 57.92-9.81 18.14 1.14 35.23 7.186 51.41 14.145 8.22 3.422 16.44 7.073 25.05 9.696 4.69 1.369 9.65 3.195 14.73 2.853 8.5-.114 17.24.114 25.71-.114 4.84-.913 9.66-2.282 14.23-3.879 30.39-10.838 54.53-25.212 89.51-23.386" stroke="url(#u)" stroke-width="1.503"/><path d="M.694 111.331c107.118.228 214.235-6.275 321.355-3.423 44.621.913 89.243 3.194 133.864 2.397 23.746-.457 47.883.912 71.5-1.141 36.01-3.081 70.976-12.093 105.943-19.508 31.575-6.502 64.975-10.039 97.071-3.993 16.832 3.08 32.749 9.127 48.407 15.059 12.785 4.791 26.093 9.924 40.315 8.784h16.441c16.177-3.308 30.399-11.636 45.141-17.91 21.921-10.154 48.797-13.12 71.5-3.537 12.525 4.906 23.745 12.206 35.879 17.454 3.524 1.483 7.83 3.195 11.742 3.651h20.358c2.74-.571 6.13-1.712 8.61-2.738 12.78-5.248 24.27-13.12 37.05-18.48 19.57-8.671 43.32-7.873 62.76.798 16.31 6.388 31.05 17.682 49.19 19.964h22.7c12.4-1.597 23.61-7.644 34.84-12.436 30-14.602 60.41-20.534 93.28-8.897 18.79 6.16 35.62 17.568 55.59 20.876h24.78c15.14-2.281 28.57-9.696 42.41-15.286 18.13-7.872 38.36-13.348 58.85-11.979 14.61.684 28.83 4.905 42.01 10.382 13.96 5.703 27.4 13.005 42.53 16.312 5.73.457 11.74 0 17.49.115 4.55-.228 9.51.57 14.08-.799 15.53-3.878 29.37-11.18 43.96-16.884 13.71-5.475 28.46-9.354 43.59-9.696" stroke="url(#v)" stroke-width="1.503"/><path d="M.694 99.583c96.68-3.422 193.361-9.355 290.17-8.784 45.274.114 90.681 1.825 135.953 4.563 18.919 1.141 37.967 2.396 56.756 3.422 13.048.115 26.485 0 39.533 0 17.875-.456 36.272.913 54.016-1.254 32.749-3.537 64.193-13.12 96.159-20.192 30.923-6.73 64.062-9.241 94.985-1.141 12.785 3.194 25.181 8.213 37.315 13.005 9.523 3.537 19.439 7.87 29.876 9.012h16.31c4.045-.114 9.002.342 12.918-.912 22.05-6.047 40.446-20.079 63.017-24.755 19.572-4.45 40.446-.457 57.539 8.555 10.568 5.248 20.749 11.75 32.099 15.515 4.43 1.711 9.78 1.026 14.35 1.14 5.61-.114 11.87.685 17.09-1.71 17.35-6.503 31.97-18.138 50.23-23.044 23.88-6.96 48.02.228 68.76 10.951 7.31 3.536 15.01 7.187 22.84 10.04 4.69 1.596 9.91 3.65 15 3.421h22.18c12-2.396 23.1-7.985 34.05-12.89 28.31-13.918 57.8-19.85 88.98-8.899 18.53 6.16 34.84 17.226 54.28 21.333 8.74-.114 17.62.114 26.35-.114 12.66-2.737 24.14-8.442 35.63-13.576 17.74-8.213 37.45-14.715 57.8-13.689 13.83.457 27.26 4.107 39.53 9.355 13.44 5.59 25.96 12.89 40.32 16.77 4.42 1.482 9.52.798 14.09.912 5.61-.228 11.35.342 16.95-.343 13.85-3.193 26.37-9.81 39.02-15.4 12.13-5.361 25.06-9.924 38.75-11.293" stroke="url(#w)" stroke-width="1.503"/><path d="M.694 86.234c120.818-6.731 241.765-15.173 362.844-11.408 53.234 1.368 106.336 6.274 159.307 11.065 16.57 1.825 33.533 1.483 50.363 1.37 15.004-.343 30.401.911 45.274-1.142 51.537-6.274 99.942-31.257 153.174-25.896 18.92 1.597 36.925 7.644 53.885 14.716 10.568 4.336 21.398 9.012 32.749 11.408 6.262.343 13.048.115 19.31.115 7.697.684 15.265-1.597 22.181-4.45 9.525-3.879 18.788-8.898 28.052-13.118 32.487-15.515 59.886-12.093 89.897 5.59 9 4.448 18.13 10.723 28.57 11.635h14.09c2.61 0 6 .228 8.35-.798 13.83-4.336 25.71-12.663 38.75-18.48 21.01-10.382 46.71-10.724 68.63-2.055 17.75 6.16 33.4 17.112 52.19 20.99h19.44c4.82.343 9.92-.798 14.35-2.509 32.89-12.32 54.41-30.116 93.69-23.843 13.43 2.168 25.96 7.644 37.83 13.348 10.31 4.791 20.74 10.38 32.36 12.549h23.74c11.88-2.054 22.44-7.758 33.01-12.55 17.36-8.44 36.54-15.742 56.89-14.944 13.57.23 26.88 3.993 38.87 9.355 12.66 5.476 24.53 12.663 37.97 16.656 3.8 1.483 8.36 1.027 12.4 1.027h15.27c10.69-1.37 20.35-6.731 29.87-10.952 12.65-6.046 25.58-12.206 39.8-14.945" stroke="url(#x)" stroke-width="1.503"/><path d="M.694 72.315c186.315-13.803 375.109-25.553 560.771.571 8.743 1.026 18.006 2.053 26.747 2.738 9.916.343 20.224 0 30.009.115 13.438-.343 27.27.912 40.578-1.484 25.573-3.765 49.971-12.434 74.761-19.05 40.054-10.839 77.369-10.154 114.816 7.072 11.481 4.791 22.963 10.266 35.488 12.776h25.181c7.568-1.482 15.005-4.676 21.788-7.87 22.312-11.295 45.405-23.615 72.417-18.595 14.74 2.396 27.79 9.696 40.31 16.54 7.05 3.765 14.49 7.53 22.44 9.583 3.53.115 7.7 0 11.09 0h11.09c6.66-1.597 13.18-4.563 19.18-7.643 23.75-12.89 44.89-23.614 73.98-18.823 18.01 2.624 33.8 11.18 49.59 18.595 6.78 3.08 14.08 6.274 21.65 7.53h14.22c3.78-.115 8.09.341 11.74-.458 10.7-2.737 20.62-7.756 30.27-12.32 15.14-7.414 31.58-14.145 49.32-14.716 13.84-.684 27.66 2.281 40.06 7.53 13.56 5.59 25.83 13.46 39.92 18.024 5.48 2.167 11.74 1.369 17.62 1.482h11.61c3.13-.341 6.66-1.597 9.66-2.623 24.91-9.583 46.31-25.667 75.14-24.869 12.79 0 25.31 3.422 36.68 8.442 11.6 5.134 22.3 11.863 34.3 16.313 2.34.912 5.21 1.711 7.57 2.281 1.82.115 4.3 0 6.14.115h16.56c9-1.026 17.22-5.59 25.19-9.241 11.33-5.59 22.56-11.636 35.1-15.058" stroke="url(#y)" stroke-width="1.503"/><path d="M.694 58.4c111.685-9.811 223.76-16.655 336.097-16.428 52.451 0 105.162.799 157.482 5.134 37.706 2.966 75.15 8.898 112.466 14.26 8.481 1.14 17.483 2.395 26.094 2.966h22.05c12.005-.343 24.4.913 36.143-1.027 25.31-3.878 49.056-13.119 73.455-19.849 28.052-7.872 59.104-9.925 87.025-.685 14.352 4.563 27.791 11.522 41.752 16.884 5.871 2.053 12.394 4.564 18.919 4.106 7.045-.228 14.744.458 21.658-.456 33.01-9.582 53.363-33.196 92.635-25.896 22.96 3.88 39.8 20.306 61.85 25.896h21.78c3.53-.684 7.57-2.167 10.83-3.536 28.71-13.233 48.28-27.95 83.5-23.158 15.79 2.167 30.15 9.012 43.97 15.97 8.23 3.993 16.83 8.1 25.97 10.268 3.78.228 7.96.114 11.74.114 4.43-.114 9.4.114 13.83-.228 7.17-1.71 14.1-4.677 20.62-7.758 14.35-6.844 28.44-14.83 44.49-18.024 18.26-3.878 37.7-.799 54.15 6.96 11.21 5.018 21.65 11.521 33.26 15.97 4.17 1.597 8.88 3.08 13.44 2.624h17.1c12.92-2.053 24.13-9.468 35.61-14.83 13.05-6.617 27.4-12.206 42.67-12.663 20.08-1.14 38.61 7.414 55.06 16.77 8.09 3.992 16.31 9.24 25.7 10.38 7.44-.228 15 .343 22.31-.228 17.75-4.905 32.22-15.97 49.33-22.131" stroke="url(#z)" stroke-width="1.503"/><path d="M.694 44.48c95.506-9.24 191.533-15.173 287.693-16.2 65.758-.798 131.647-1.254 197.404 1.598 37.837 1.712 75.806 5.362 112.989 11.636 23.485 3.764 46.84 8.67 70.587 11.18h46.578c15.526-1.826 30.662-6.16 45.274-10.952 33.923-11.864 70.195-22.816 106.596-13.004 21.137 5.133 39.142 17.339 60.018 22.929 8.742 1.026 18.788.457 27.659.229 21.269-5.477 38.229-19.85 59.628-25.098 38.23-9.126 56.36 9.355 87.15 22.588 4.96 2.28 10.7 2.509 16.18 2.28 5.22-.227 10.96.571 16.05-.57 15.01-4.334 27.92-13.005 42.14-18.823 23.36-10.38 51.15-11.18 74.64-.57 14.21 5.819 27 14.488 42.01 18.824 5.09 1.482 10.82.57 16.04.798 3.65-.114 7.71.114 11.36-.229 4.56-1.14 9.26-2.852 13.57-4.677 11.21-4.904 21.79-11.293 33.26-15.97 29.63-12.322 55.46-6.96 81.94 8.44 8.49 4.564 17.09 9.355 26.61 11.866 3.01.342 6.4.113 9.4.113h13.05c7.31-1.369 13.96-4.791 20.36-7.87 14.22-7.302 28.18-15.857 44.63-18.596 15.64-2.851 32.09 0 45.91 6.845 12.27 5.704 23.23 13.803 36.27 18.253 4.57 1.825 9.92.799 14.87 1.027h10.17c4.06-.799 7.97-2.396 11.62-4.108 10.71-4.791 20.61-11.18 31.33-15.97" stroke="url(#A)" stroke-width="1.503"/><path d="M.694 30.906c68.629-6.96 137.518-12.093 206.669-13.918 89.896-2.396 180.052-2.624 270.079-1.597 39.141.685 78.544 2.167 117.295 7.301 32.356 3.993 64.062 11.75 96.157 17.112 9.263 1.825 19.05 1.71 28.444 1.597 9.263-.114 18.788.114 28.052-.229 43.578-6.502 80.761-32.511 126.819-26.921 26.486 2.166 48.013 17.11 72.151 25.21 5.611 2.054 12.265 1.255 18.266 1.37 4.827-.228 10.438.57 15.004-.913 24.79-7.871 45.4-26.466 73.07-26.695 39.01-1.482 59.88 29.433 87.41 27.265 5.09-.228 10.7.456 15.79-.456 15.66-4.335 29.22-13.119 43.97-19.165 22.05-9.925 48.66-11.066 70.84-1.14 14.09 5.703 26.62 14.373 41.23 19.164 5.62 2.053 12.01.913 18.01 1.141h8.87c6.26-1.14 12.13-3.879 17.75-6.503 11.48-5.59 22.44-12.32 34.7-16.541 18.13-6.73 39.53-5.931 56.89 2.282 13.57 5.931 25.44 14.945 39.66 19.621 2.74 1.141 6.39.913 9.27.913H1510c6.52-.114 12.65-3.651 18.27-6.16 9.53-4.791 18.79-10.61 28.71-14.831 15.26-6.958 33.78-8.898 49.96-3.422 18.01 5.59 31.57 18.824 49.71 24.07 6.78.114 13.69 0 20.35 0 13.57-3.08 24.67-11.521 36.68-17.567" stroke="url(#B)" stroke-width="1.503"/><path d="M.694 17.557C97.244 6.833 194.576 3.183 291.778 3.183c71.107-.114 142.216-.457 213.192-.342 38.62.342 77.502 1.026 115.731 5.817 29.747 3.537 58.712 10.496 87.807 16.77 12.656 2.738 25.704 5.02 38.751 4.22 10.177-.342 20.874.686 30.923-.683 37.967-6.96 71.89-29.661 111.943-26.923 28.444.799 49.581 15.4 74.501 24.868 5.611 2.396 12.004 2.51 18.004 2.283 5.742-.228 12.267.684 17.75-1.027 24.39-7.986 44.75-26.352 72.02-26.58 31.96-1.484 50.75 19.05 78.28 27.036 8.48.456 17.48.456 25.96-.114 16.45-4.221 30.4-13.576 45.8-19.85 24.13-10.609 50.89-9.925 74.11 2.168 12.52 5.932 24.14 14.031 38.1 17.568h22.05c19.57-4.678 34.57-18.253 53.75-24.07 17.48-6.047 37.58-4.222 53.76 3.992 11.47 5.362 21.65 13.005 33.4 17.796 1.44.57 3.91 1.369 5.47 1.825 2.87.342 6.27.114 9.14.114 4.69-.227 9.92.686 14.48-.57 12.4-3.993 22.83-11.408 34.06-17.226 15.66-8.67 35.35-13.004 53.23-7.301 11.08 3.309 20.75 9.697 30.26 15.515 6.4 3.65 12.79 7.985 20.35 9.24h18.79c11.23-2.852 20.62-9.583 30.29-14.943" stroke="url(#C)" stroke-width="1.503"/><path d="M.694 4.554C111.465-8.452 223.411-9.136 334.966-7.996c69.672.685 139.474-.456 209.146-.912 36.664 0 73.587.456 109.857 5.362 29.228 3.65 57.67 11.407 86.245 17.91 6.783 1.483 13.959 2.852 20.875 3.765 12.394.113 25.051 0 37.576 0 40.837-5.59 72.412-31.829 117.034-27.38 12.917 1.028 25.573 4.906 37.055 10.153 11.872 5.249 23.353 11.979 36.14 15.743 4.566 1.598 10.048.913 14.746 1.027 4.69-.114 10.04.342 14.61-.456 25.31-7.53 45.93-27.036 73.98-27.265 30.79-1.483 50.49 18.138 77.11 26.58 3 1.14 7.04.8 10.3.8h15.27c15.65-2.283 28.7-11.75 42.67-17.911 22.05-11.066 48.01-13.576 70.97-2.966 14.35 6.045 26.75 15.742 42.01 20.191 4.84.799 10.31.115 15.27.343 2.61 0 6 .113 8.62-.228 3.52-1.027 7.43-2.51 10.69-3.993 8.75-4.107 16.96-9.241 25.44-13.575 19.57-10.724 42.92-13.804 63.67-3.765 11.61 5.247 21.53 12.89 33.01 18.252 2.74 1.141 6 2.624 9 2.966h12.66c10.04.913 18.65-4.791 26.74-9.24 19.57-12.093 40.19-23.728 65.11-16.085 9.4 2.738 17.74 7.872 25.58 13.005 5.09 3.308 10.44 6.73 15.92 9.354 3.13 1.37 6.53 3.08 10.04 2.738h15.78c9.53-2.053 17.49-7.757 25.45-12.434" stroke="url(#D)" stroke-width="1.503"/><path d="M.694-7.994c54.146-6.16 108.814-10.039 163.481-11.18 66.804-1.597 133.605.228 200.407.913 72.674 1.255 145.216-1.027 217.89-2.282 34.705-.342 69.802.115 104.117 5.134 28.835 3.878 56.494 12.662 84.677 19.165 15.394 4.106 31.573 2.51 47.36 2.737 18.528-.57 35.62-9.012 52.451-15.171 21.529-8.784 45.534-15.173 69.412-11.75 25.442 2.851 45.404 18.708 69.021 25.895 3.52.913 7.96.457 11.74.57 4.7 0 9.79 0 14.48-.113 26.49-7.415 46.32-27.493 75.94-27.721 29.62-1.37 50.23 17.453 76.06 26.124 3.01 1.14 6.92 1.482 10.18 1.369h15.14c5.22.228 10.3-2.054 15-3.765 7.57-3.194 15-7.301 22.18-10.952 20.48-11.294 44.76-17.568 68.24-9.126 11.08 3.764 20.88 9.925 30.79 15.515 7.83 4.22 16.18 9.012 25.84 7.985 4.82-.114 10.04.228 14.86-.342 13.05-3.879 24.01-11.864 35.76-18.024 17.74-9.926 39.79-13.12 58.97-4.221 10.43 4.563 19.31 11.293 29.09 16.655 3.78 2.167 8.09 4.107 12.4 5.362h19.44c4.31-1.141 8.61-3.08 12.4-5.134 20.62-11.636 40.06-27.721 66.8-21.104 10.7 2.51 19.82 8.442 28.45 14.26 4.55 3.08 9.39 6.273 14.34 8.783 2.09 1.142 4.84 2.168 7.18 2.852 1.69.228 4.05.115 5.73.115 4.7-.228 9.53.341 14.23-.343 6.92-2.281 13.19-6.046 19.32-9.81" stroke="url(#E)" stroke-width="1.503"/></mask><g mask="url(#F)"><path d="M1714 84.57c0-12.063-13.46-21.843-30.07-21.843L897-19 483 98l-245.5 31.5L97 114 30.07 84.57C13.461 84.57 0 72.508 0 84.57v305.586C0 402.22 13.462 412 30.07 412h1653.86c16.61 0 30.07-9.78 30.07-21.844V84.571Z" fill="#fff"/></g></g><defs><linearGradient id="b" x1="857.117" y1="306.342" x2="857.117" y2="334.697" gradientUnits="userSpaceOnUse"><stop stop-color="#303030"/><stop offset="1" stop-color="#303030" stop-opacity="0"/></linearGradient><linearGradient id="c" x1="857.246" y1="295.442" x2="857.246" y2="324.204" gradientUnits="userSpaceOnUse"><stop stop-color="#303030"/><stop offset="1" stop-color="#303030" stop-opacity="0"/></linearGradient><linearGradient id="d" x1="857.378" y1="283.832" x2="857.378" y2="313.135" gradientUnits="userSpaceOnUse"><stop stop-color="#303030"/><stop offset="1" stop-color="#303030" stop-opacity="0"/></linearGradient><linearGradient id="e" x1="857.181" y1="272.699" x2="857.181" y2="301.919" gradientUnits="userSpaceOnUse"><stop stop-color="#303030"/><stop offset="1" stop-color="#303030" stop-opacity="0"/></linearGradient><linearGradient id="f" x1="857.378" y1="261.562" x2="857.378" y2="290.663" gradientUnits="userSpaceOnUse"><stop stop-color="#303030"/><stop offset="1" stop-color="#303030" stop-opacity="0"/></linearGradient><linearGradient id="g" x1="857.246" y1="250.174" x2="857.246" y2="279.423" gradientUnits="userSpaceOnUse"><stop stop-color="#303030"/><stop offset="1" stop-color="#303030" stop-opacity="0"/></linearGradient><linearGradient id="h" x1="857.117" y1="239.339" x2="857.117" y2="268.097" gradientUnits="userSpaceOnUse"><stop stop-color="#303030"/><stop offset="1" stop-color="#303030" stop-opacity="0"/></linearGradient><linearGradient id="i" x1="857.246" y1="227.563" x2="857.246" y2="256.826" gradientUnits="userSpaceOnUse"><stop stop-color="#303030"/><stop offset="1" stop-color="#303030" stop-opacity="0"/></linearGradient><linearGradient id="j" x1="857.246" y1="216.531" x2="857.246" y2="245.6" gradientUnits="userSpaceOnUse"><stop stop-color="#303030"/><stop offset="1" stop-color="#303030" stop-opacity="0"/></linearGradient><linearGradient id="k" x1="857.246" y1="205.159" x2="857.246" y2="234.358" gradientUnits="userSpaceOnUse"><stop stop-color="#303030"/><stop offset="1" stop-color="#303030" stop-opacity="0"/></linearGradient><linearGradient id="l" x1="857.246" y1="194.066" x2="857.246" y2="223.078" gradientUnits="userSpaceOnUse"><stop stop-color="#303030"/><stop offset="1" stop-color="#303030" stop-opacity="0"/></linearGradient><linearGradient id="m" x1="857.181" y1="182.667" x2="857.181" y2="211.752" gradientUnits="userSpaceOnUse"><stop stop-color="#303030"/><stop offset="1" stop-color="#303030" stop-opacity="0"/></linearGradient><linearGradient id="n" x1="857.181" y1="171.243" x2="857.181" y2="200.454" gradientUnits="userSpaceOnUse"><stop stop-color="#303030"/><stop offset="1" stop-color="#303030" stop-opacity="0"/></linearGradient><linearGradient id="o" x1="857.181" y1="160.265" x2="857.181" y2="189.283" gradientUnits="userSpaceOnUse"><stop stop-color="#303030"/><stop offset="1" stop-color="#303030" stop-opacity="0"/></linearGradient><linearGradient id="p" x1="857.117" y1="148.915" x2="857.117" y2="177.839" gradientUnits="userSpaceOnUse"><stop stop-color="#303030"/><stop offset="1" stop-color="#303030" stop-opacity="0"/></linearGradient><linearGradient id="q" x1="857.246" y1="137.28" x2="857.246" y2="166.62" gradientUnits="userSpaceOnUse"><stop stop-color="#303030"/><stop offset="1" stop-color="#303030" stop-opacity="0"/></linearGradient><linearGradient id="r" x1="857.312" y1="125.691" x2="857.312" y2="155.245" gradientUnits="userSpaceOnUse"><stop stop-color="#303030"/><stop offset="1" stop-color="#303030" stop-opacity="0"/></linearGradient><linearGradient id="s" x1="857.181" y1="114.543" x2="857.181" y2="145.01" gradientUnits="userSpaceOnUse"><stop stop-color="#303030"/><stop offset="1" stop-color="#303030" stop-opacity="0"/></linearGradient><linearGradient id="t" x1="857.246" y1="103.199" x2="857.246" y2="134.033" gradientUnits="userSpaceOnUse"><stop stop-color="#303030"/><stop offset="1" stop-color="#303030" stop-opacity="0"/></linearGradient><linearGradient id="u" x1="857.378" y1="91.78" x2="857.378" y2="122.625" gradientUnits="userSpaceOnUse"><stop stop-color="#303030"/><stop offset="1" stop-color="#303030" stop-opacity="0"/></linearGradient><linearGradient id="v" x1="857.312" y1="80.416" x2="857.312" y2="111.337" gradientUnits="userSpaceOnUse"><stop stop-color="#303030"/><stop offset="1" stop-color="#303030" stop-opacity="0"/></linearGradient><linearGradient id="w" x1="857.117" y1="69.473" x2="857.117" y2="99.583" gradientUnits="userSpaceOnUse"><stop stop-color="#303030"/><stop offset="1" stop-color="#303030" stop-opacity="0"/></linearGradient><linearGradient id="x" x1="857.246" y1="57.768" x2="857.246" y2="87.361" gradientUnits="userSpaceOnUse"><stop stop-color="#303030"/><stop offset="1" stop-color="#303030" stop-opacity="0"/></linearGradient><linearGradient id="y" x1="857.181" y1="46.391" x2="857.181" y2="75.78" gradientUnits="userSpaceOnUse"><stop stop-color="#303030"/><stop offset="1" stop-color="#303030" stop-opacity="0"/></linearGradient><linearGradient id="z" x1="857.181" y1="34.911" x2="857.181" y2="64.42" gradientUnits="userSpaceOnUse"><stop stop-color="#303030"/><stop offset="1" stop-color="#303030" stop-opacity="0"/></linearGradient><linearGradient id="A" x1="857.181" y1="23.304" x2="857.181" y2="52.693" gradientUnits="userSpaceOnUse"><stop stop-color="#303030"/><stop offset="1" stop-color="#303030" stop-opacity="0"/></linearGradient><linearGradient id="B" x1="857.181" y1="12.226" x2="857.181" y2="41.457" gradientUnits="userSpaceOnUse"><stop stop-color="#303030"/><stop offset="1" stop-color="#303030" stop-opacity="0"/></linearGradient><linearGradient id="C" x1="857.181" y1=".374" x2="857.181" y2="29.81" gradientUnits="userSpaceOnUse"><stop stop-color="#303030"/><stop offset="1" stop-color="#303030" stop-opacity="0"/></linearGradient><linearGradient id="D" x1="857.117" y1="-11.126" x2="857.117" y2="18.179" gradientUnits="userSpaceOnUse"><stop stop-color="#303030"/><stop offset="1" stop-color="#303030" stop-opacity="0"/></linearGradient><linearGradient id="E" x1="857.378" y1="-22.999" x2="857.378" y2="6.615" gradientUnits="userSpaceOnUse"><stop stop-color="#303030"/><stop offset="1" stop-color="#303030" stop-opacity="0"/></linearGradient><clipPath id="a"><rect width="1400" height="308" rx="40" fill="#fff"/></clipPath></defs></svg>