<svg width="1400" height="343" fill="none" xmlns="http://www.w3.org/2000/svg"><g clip-path="url(#a)" opacity=".55"><mask id="C" style="mask-type:alpha" maskUnits="userSpaceOnUse" x="0" y="-25" width="2132" height="665"><path d="M.71 377.202c60.82 2.127 121.801 3.687 182.621 2.837 37.465-.568 75.256 1.276 112.396-2.128 60.983-4.397 120.341-17.726 180.514-26.377 51.413-7.089 105.096-8.509 155.536 4.538 27.41 6.667 53.684 17.586 81.581 22.549 13.785.424 28.058.142 41.843 0 7.461-1.278 15.57-3.687 22.707-6.099 30.168-10.777 59.685-27.085 93.419-27.085 34.708-1.276 60.821 15.6 90.176 28.361 3.731 1.418 8.596 3.12 12.488 4.113 3.731.284 8.759.284 12.489.284 6.649-.426 14.27.992 20.6-1.135 27.41-9.074 49.63-30.062 80.12-31.765 22.54-2.126 43.63 7.375 61.79 18.15 10.54 5.533 21.25 13.331 33.74 14.466h22.21c9.09-2.127 17.68-6.665 25.63-11.061 33.57-20.278 62.61-30.063 102.02-14.748 18 6.949 34.54 17.16 53.36 22.832 9.24 3.403 19.46 2.268 29.35 2.409h16.06c5.19-.567 10.86-1.985 15.89-3.119 31.8-8.083 62.6-19.428 95.21-24.674 73.46-12.337 148.56-1.844 221.39 8.083 48.49 6.664 96.98 12.905 145.95 16.307 37.63 3.262 75.43 2.27 113.23 2.27 22.53 0 45.06-.144 67.46-.144 13.12-.708 26.44-1.558 39.58-2.694" stroke="url(#b)" stroke-width="1.868"/><path d="M.71 357.491c87.094 2.268 174.026 9.927 261.118 8.651 32.763-.566 66.012 1.276 98.773-1.985 54.496-4.68 107.529-17.869 161.377-26.236 48.818-7.373 100.231-8.649 148.076 4.68 25.462 6.665 49.791 17.158 75.742 22.123 8.919.852 18.65.142 27.57.284 7.461.142 15.569.142 22.707-2.127 27.41-7.374 51.574-22.548 79.634-28.362 25.948-5.815 53.846-2.127 77.201 8.933 13.948 6.24 27.245 14.181 41.843 19.145 6.329 2.553 13.789 1.843 20.439 1.985 8.27.284 16.86.142 24.32-3.403 20.12-8.367 37.63-22.122 59.37-27.368 42.49-10.211 64.71 12.903 98.77 27.934 4.38 1.986 9.73 2.837 14.76 2.412h18.16c17.03-4.254 31.14-14.891 46.71-22.122 26.6-13.897 58.06-14.323 85.96-3.12 21.57 8.083 41.84 20.136 65.2 24.39 7.13.709 14.92.142 22.22.284 8.27-.284 16.86.567 24.98-.426 24.81-4.112 48.65-12.053 72.98-18.293 34.06-9.075 69.42-13.898 105.1-14.606 95.69-2.126 189.6 18.294 284.31 27.085 21.73 2.128 43.46 3.83 65.36 4.962 15.41 0 30.98 0 46.39-.14 16.22 0 32.44 0 48.66-.142 10.7-.142 21.56.282 32.11-.71" stroke="url(#c)" stroke-width="1.868"/><path d="M.71 336.788c90.662 2.41 181.162 8.933 271.662 14.464 43.465 1.986 87.093.566 130.559.566 55.793-3.545 109.316-18.576 163.971-27.935 44.764-7.375 92.124-8.509 136.077 3.686 25.138 6.667 48.979 17.586 74.767 22.832 8.757 1.277 18.327.284 27.247.567 9.082.426 18.488-.283 26.761-3.403 26.597-8.367 50.277-23.54 78.335-28.219 24.49-4.54 50.278.141 71.85 10.919 13.623 6.239 26.601 14.322 41.191 19 6.17 2.271 13.63 1.136 20.28 1.277 6.65.143 13.94.284 19.95-2.553 22.54-8.933 41.52-25.098 66.49-29.353 39.25-7.232 61.8 15.314 93.42 29.071 9.9 4.397 21.74 1.984 32.44 2.552 15.57-2.978 28.71-12.479 42.49-19.143 23.2-12.906 51.74-17.868 78.5-11.345 34.87 7.656 65.2 30.346 102.18 29.92 13.14-.282 26.59.426 39.74-.426 22.05-3.26 43.47-9.643 65.03-15.171 28.22-7.517 57.08-13.331 86.45-15.884 42.98-3.828 86.29-2.41 129.09 1.419 76.08 6.948 151.01 21.696 227.24 27.51 14.91 1.56 29.98 1.276 44.91 1.134 19.62 0 39.26-.14 58.88-.14" stroke="url(#d)" stroke-width="1.868"/><path d="M.71 316.369c61.792 1.418 123.91 3.686 185.541 7.94 52.387 3.405 104.773 8.651 156.998 12.48 23.03 2.126 46.546 1.276 69.738 1.276 20.76-.426 42.17.992 62.768-1.702 42.654-4.679 83.688-16.45 125.369-24.817 40.709-7.941 84.013-10.635 124.721-1.134 28.545 6.239 54.658 19.428 83.041 25.951 8.595 1.844 18.163.568 26.923.852h13.299c5.676-.994 12.163-2.979 17.516-4.823 28.058-10.211 54.332-27.086 85.634-28.362 36.169-2.553 60.662 15.599 90.822 29.07 3.57 1.418 8.27 3.121 12 3.831h12.01c6.32-.142 13.78.708 19.78-1.561 26.11-9.5 47.69-29.638 77.04-31.481 35.68-3.262 58.39 19.57 88.23 31.055 4.22 1.845 9.73 1.703 14.27 1.703h17.68c16.38-4.255 30.49-13.614 45.25-20.562 13.46-6.523 28.55-11.487 44.12-12.48 52.71-4.396 96.66 31.907 148.23 32.616 14.76-.426 29.69.71 44.29-.709 36.16-5.672 70.7-17.441 106.72-23.966 69.41-13.189 141.58-10.351 211.48-1.844 62.61 7.517 124.55 20.28 187.65 25.1 19.3.852 38.77 0 58.07.142" stroke="url(#e)" stroke-width="1.868"/><path d="M.71 297.223c101.204 1.134 202.572 4.396 303.126 14.465 41.52 3.97 82.878 9.217 124.558 12.337 29.196.284 58.876.284 88.068-.142 37.142-3.404 73.147-13.331 108.991-22.122 39.898-9.785 82.391-15.315 123.424-7.941 31.95 5.103 60.333 20.42 91.311 28.361 8.434 2.128 17.84.852 26.436 1.134h13.137c5.676-.85 12.003-2.836 17.354-4.678 28.869-10.92 55.954-28.931 88.716-28.789 33.089-1.134 57.579 17.301 85.309 29.497 6 2.694 12.98 3.97 19.79 3.402 6.32-.14 13.3.426 19.46-.566 28.71-9.217 51.41-32.333 83.69-32.757 36.33-1.844 58.71 23.256 90.18 32.757 5.51.426 11.83.142 17.51.142 4.38-.142 9.73.566 13.95-.992 17.03-5.247 31.79-14.89 47.84-21.698 31.14-14.464 67.96-12.761 100.72-3.545 22.55 5.957 44.28 14.606 66.99 20.42 8.59 2.129 17.67 4.255 26.44 5.105h14.58c12.33-.142 24.82.284 37.15-.282 18.81-2.554 37.14-6.949 55.47-11.487 34.05-8.509 68.44-16.308 103.8-19.428 47.36-4.396 95.2-2.836 142.4 2.268 42.32 4.681 84.17 12.763 126.17 19.43 21.41 3.402 42.98 6.379 64.72 8.223 9.4.142 18.82 0 28.22 0" stroke="url(#f)" stroke-width="1.868"/><path d="M.71 279.923c93.257.566 186.838 1.132 279.933 7.657 43.791 3.12 87.583 7.94 131.048 13.613 26.111 3.402 52.384 6.948 78.66 9.075 25.3 0 50.763 0 76.065-.142 30.005-2.978 59.197-10.777 87.906-18.576 40.546-11.345 84.013-19.428 126.505-12.195 33.411 4.82 62.117 21.98 94.394 29.637 6.973.994 14.759.284 21.732.568 8.596.142 17.841.142 25.787-2.979 29.194-10.067 55.306-29.212 87.74-30.346 35.2-2.411 59.04 16.591 88.23 29.496 5.84 2.695 12.82 3.829 19.47 3.403 6.16-.142 13.13.426 19.3-.566 28.38-9.219 50.76-31.907 82.55-32.759 37.14-2.411 60.17 22.974 92.28 32.617 5.52.566 11.68.141 17.19.283 6.82.141 14.11.141 20.44-2.554 19.46-6.948 36.98-18.151 56.77-24.39 36.49-11.769 77.04-6.382 113.04 4.538 26.76 7.941 53.19 18.152 81.42 21.697 7.29.142 15.08 0 22.54 0 10.87-.284 22.22.425 33.09-.427 19.79-2.694 39.24-7.514 58.7-12.195 32.61-8.082 65.7-15.455 99.58-18.575 56.77-5.531 114.36-2.127 170.3 7.09 30.17 4.821 60.01 11.203 90.19 16.306 18.01 2.838 36.32 6.242 54.65 6.666" stroke="url(#g)" stroke-width="1.868"/><path d="M.71 264.321c104.123.142 208.408-.85 312.371 4.823 46.873 2.552 93.744 7.514 140.13 14.463 30.815 4.397 61.792 9.785 92.77 12.621 13.137.142 26.924 0 40.061 0 9.568-.142 19.947.142 29.517-.284 24.652-2.834 48.656-9.217 72.011-16.025 39.896-12.051 82.552-21.978 124.883-15.314 33.249 4.255 61.469 21.556 93.096 29.921 3.892 1.134 8.92.992 12.974.852h21.409c11.84-.992 23.03-6.664 33.573-11.345 14.596-6.949 29.355-14.747 45.245-18.862 24.17-6.664 50.61-2.694 72.18 8.509 14.11 6.809 27.41 15.742 42.82 20.562 6 1.56 12.97.568 19.13.71 3.41 0 7.95.142 11.36-.426 3.56-.992 8.11-2.694 11.35-4.112 22.7-10.635 43.3-27.085 70.06-28.787 40.55-3.402 63.09 23.964 97.8 32.899h20.27c5.52.284 11.68-.284 16.71-2.268 20.11-6.807 38.44-17.726 59.04-23.824 39.58-12.195 83.37-8.225 122.45 3.404 19.95 5.672 39.42 12.621 59.69 17.442 12.48 3.12 25.45 5.246 38.43 4.536 14.92-.424 30.49.852 45.25-.85 41.36-6.381 80.77-19.71 121.97-26.234 54.96-9.075 111.74-8.651 166.9-.709 45.89 6.381 90.32 19.002 136.06 25.241" stroke="url(#h)" stroke-width="1.868"/><path d="M.71 250.428c132.83.566 265.986-4.255 398.492 4.396 61.144 3.829 120.991 16.024 181.324 25.241 16.22 2.836 32.924 2.128 49.304 2.128 14.436-.284 29.357.992 43.467-1.986 36.655-6.239 70.714-21.272 107.044-28.077 31.139-5.957 64.387-5.106 94.23 5.103 17.839 5.816 34.545 14.323 52.224 20.279 3.894 1.277 8.92 2.695 12.813 3.687 5.352.568 11.516.284 16.869.284 5.351 0 11.515 0 16.703-.14 3.894-.852 8.759-2.412 12.489-3.689 40.381-16.449 68.601-40.415 116.941-24.816 20.59 6.665 37.3 20.278 57.73 27.085 3.25 1.42 7.79 1.134 11.36 1.134h18.65c23.84-6.663 42-23.68 66.01-30.203 42.82-11.913 68.77 10.351 104.12 25.666 4.06 1.559 9.09 3.261 13.3 4.113h13.3c6.33-.284 13.46.566 19.79-.568 28.38-7.799 53.84-22.832 83.19-28.503 37.15-8.367 76.56-4.538 112.57 5.957 28.06 7.798 55.31 18.151 84.49 22.262 11.2.852 22.71 0 33.91.284 9.24-.284 18.8.568 28.05-.992 34.55-5.389 67.47-16.168 101.52-22.973 55.8-11.771 114.36-12.905 170.95-4.114 36.66 5.532 72.18 15.742 108.67 22.69" stroke="url(#i)" stroke-width="1.868"/><path d="M.71 238.228c121.801.286 243.766-3.402 365.569-2.552 45.897.568 91.959 2.412 137.371 8.225 39.088 4.68 77.364 13.331 115.964 20.138 9.57 1.56 19.624 3.26 29.355 4.112h24.005c12.487-.426 25.625.85 37.951-.992 28.707-4.538 55.468-15.315 82.878-23.258 47.844-14.464 92.122-12.761 136.886 8.369 13.622 5.67 27.409 12.619 42.329 15.315h20.762c22.54 1.276 44.92-16.025 65.04-24.108 25.62-11.911 56.76-13.047 82.39-.568 15.4 6.808 29.35 16.733 45.41 22.548 9.24 3.12 19.95 1.134 29.68 1.558 10.7-1.274 20.11-7.231 29.19-11.911 13.46-7.515 27.41-15.598 42.98-19.284 40.87-9.787 68.12 11.769 102.18 26.092 6.16 2.127 12.81 4.963 19.62 4.679 9.57-.142 19.47.142 29.04-.142 28.22-6.097 53.51-19.71 81.41-26.801 33.9-9.075 70.55-8.65 104.78-.994 22.05 4.823 43.31 12.339 64.87 18.436 14.28 3.828 28.87 8.083 43.95 8.793 17.19-.426 35.36.708 52.22-.568 28.06-4.113 55.15-12.479 82.57-19.144 56.1-14.605 115.95-18.436 173.53-8.935 29.67 4.539 58.39 12.763 87.43 19.712" stroke="url(#j)" stroke-width="1.868"/><path d="M.71 227.592c112.557.568 225.277-2.126 337.834-5.246 65.038-1.276 130.399-2.836 195.111 3.544 45.412 4.113 89.69 15.032 134.129 23.966 15.73 3.405 31.464 4.821 47.682 4.113 12.325-.426 25.302.85 37.303-.992 23.517-3.971 45.899-12.621 68.118-19.996 45.575-16.026 90.987-18.434 135.264 2.128 14.922 6.381 29.843 14.181 46.059 18.008 5.19.426 11.19.144 16.38.284 5.19 0 11.19.142 16.22-.284 8.27-1.984 16.71-5.673 24.17-9.217 27.89-14.606 56.11-29.921 90.01-22.122 18 3.828 33.41 13.615 48.98 21.84 6.81 3.544 14.44 7.231 22.06 9.217 4.54.142 10.05 0 14.6 0 4.54-.142 10.05.426 14.43-.71 10.22-3.119 19.63-8.367 28.71-13.33 36.98-22.264 69.58-26.518 109.96-7.374 17.68 7.516 38.11 20.704 58.23 20.988h22.21c5.03.142 10.71 0 15.58-1.56 21.08-5.105 40.7-14.18 61.3-20.703 29.2-9.926 61.15-13.615 92.29-10.352 46.05 3.97 87.1 25.666 132.66 31.905h34.07c7.78-.14 16.05.426 23.68-1.133 27.07-4.538 53.03-13.047 79.47-19.713 49.29-13.046 101.85-16.874 152.61-8.791 23.84 3.686 47.03 10.069 70.24 16.449" stroke="url(#k)" stroke-width="1.868"/><path d="M.71 218.38a5885.48 5885.48 0 0 0 353.728-6.807c74.606-3.12 149.698-7.659 224.143-1.276 44.925 3.544 88.392 14.889 131.857 24.816 9.082 1.984 18.975 3.829 28.222 4.963h32.436c22.058 1.418 43.142-5.529 63.253-12.621 54.495-20.988 99.744-32.048 155.212-5.673 14.599 6.383 29.189 14.465 45.249 17.728h16.22c39.57 2.978 66.01-40.842 120.99-32.758 17.84 2.553 33.41 11.202 48.33 19.568 12 6.525 24.98 14.466 39.9 12.764h14.27c8.76-1.561 17.2-5.957 24.82-9.785 29.52-16.734 55.95-29.495 92.28-21.412 30.33 6.664 55.47 25.382 86.28 30.771 9.09.142 18.66 0 27.73 0 8.29.568 16.56-.993 24.34-3.405 20.28-5.812 39.24-14.321 59.36-20.42 18.16-5.672 37.3-9.217 56.6-9.783 25.3-.992 50.61 2.837 74.61 9.643 27.9 7.657 54.81 18.86 83.85 23.114 10.05.71 20.6 0 30.64.142 6.82-.142 13.96.142 20.77-.142 7.63-1.134 15.25-2.694 22.7-4.396 22.07-5.246 43.46-12.479 65.36-18.01 63.27-16.875 124.08-14.321 186.21 5.105" stroke="url(#l)" stroke-width="1.868"/><path d="M.71 210.01c126.829 2.271 253.822.852 380.327-7.798 80.283-4.821 161.052-13.188 241.497-7.231 42.654 2.834 84.012 13.613 124.883 24.39 10.542 2.553 21.732 4.963 32.436 6.523 7.3.284 15.409 0 22.87.142h22.544c12.163-1.276 24.166-5.106 35.517-8.791 49.63-18.578 91.313-36.446 145.156-15.741 20.44 7.09 39.09 20.988 60.98 24.106 10.22-.566 21.74 1.276 31.63-1.416 34.22-11.913 59.04-37.014 99.58-31.765 18.98 2.126 35.52 11.343 51.25 20.276 8.92 4.822 18.33 9.927 28.55 12.481h14.11c38.92 2.978 61.63-41.975 125.86-32.475 34.38 5.104 63.08 25.1 96.99 31.765 12.97.424 26.1.142 38.93 0 33.88-6.525 63.73-23.823 97.78-29.921 34.72-6.949 71.37-3.971 104.95 5.955 24.81 7.09 48.81 17.017 74.27 22.122 12.66 2.694 25.95.992 38.92 1.418h15.58c12.65-1.702 25.13-4.963 37.32-8.507 23.99-7.091 47.68-15.316 72.47-20.138 44.45-9.075 91.65-6.381 134.79 6.807" stroke="url(#m)" stroke-width="1.868"/><path d="M.71 201.929c110.448 2.411 221.06 2.979 331.347-2.552 78.823-3.546 156.995-13.046 235.658-18.578 48.655-2.978 98.284-3.686 146.291 5.248 30.166 5.247 58.874 15.174 88.554 22.263 11.678 3.12 24.004 4.112 36.169 3.688 10.054-.426 21.083.85 30.976-.852 22.705-4.538 43.465-14.605 64.874-22.263 27.411-10.352 58.875-14.606 87.911-6.523 25.62 6.523 46.7 22.69 72.49 29.212 10.22-.426 21.25.85 31.3-.708 30.82-9.643 56.12-34.035 90.83-33.184 43.79-.567 69.42 35.593 100.07 33.324h17.19c10.87-2.552 21.08-7.941 30.82-12.903 57.09-32.616 96.34-23.258 153.75 1.558 14.93 5.815 30.82 12.197 47.52 10.779 12.65-.284 25.62 1.134 37.62-2.978 23.04-6.383 44.44-16.592 67.31-23.115 48.65-14.322 95.69-7.941 142.08 9.218 18.01 6.238 36 12.763 54.98 15.883 8.76.566 17.83 0 26.76.14 6.48-.14 13.13.142 19.63-.14 12.34-1.986 24.48-5.248 36.18-8.935 22.68-7.09 44.91-15.315 68.42-19.995 36.49-7.516 75.11-6.38 110.78 3.404" stroke="url(#n)" stroke-width="1.868"/><path d="M.71 193.278c130.073 2.978 260.633 4.396 390.706-3.12 68.93-3.829 137.372-13.188 205.977-20.704 75.581-8.083 141.753-8.367 213.926 15.74 20.272 5.673 41.032 13.898 62.766 12.622 14.596-.142 29.68 1.276 43.465-3.688 28.544-8.508 54.332-23.965 84.34-28.644 24.81-4.254 50.92-.143 73.31 10.21 14.43 6.381 28.22 14.606 43.46 19.71 7.14 2.694 15.57 1.56 23.2 1.702h11.51c3.57-.85 8.11-2.41 11.52-3.828 23.51-9.927 44.27-26.518 70.87-29.496 39.9-5.106 62.61 18.577 95.53 31.056 4.05 1.702 9.24 1.984 13.62 1.702 6.65 0 13.79 0 20.44-.144 20.27-5.387 37.46-17.299 56.76-24.673 30.49-12.621 66.66-11.486 97.64-.709 16.06 5.389 31.46 12.763 47.36 18.434 11.03 3.972 22.55 7.516 34.55 6.524h25.46c17.35-2.978 33.74-9.785 49.96-15.882 32.27-13.047 67.95-21.272 103.79-17.017 24.65 2.411 48.01 10.635 70.72 19.002 10.21 3.688 20.6 7.373 31.3 10.069 7.78 2.126 15.9 3.686 24.01 3.12 11.33-.144 22.85.282 34.05-.284 19.13-3.262 37.31-10.069 55.47-16.309 43.29-15.882 87.89-23.114 133.97-12.337" stroke="url(#o)" stroke-width="1.868"/><path d="M.71 183.35c74.767 1.845 149.698 2.128 224.466 1.702 71.199 0 142.562-.283 213.762-4.396 74.606-3.545 147.915-16.307 221.71-25.809 46.709-5.388 94.878-7.516 140.939 2.127 33.573 6.24 64.389 21.555 98.286 26.66 37.789 0 41.52 2.27 76.713-12.762 40.064-18.294 78.494-30.489 121.964-12.196 18.49 7.375 34.87 18.861 54.33 24.107 8.6.71 17.84.143 26.6.284 15.25-1.702 28.06-11.06 41.03-17.584 46.71-26.376 77.04-18.576 120.83 6.807 24.01 12.905 27.09 10.21 53.85 10.21 18.81-4.254 35.03-14.606 52.39-21.696 31.47-13.897 68.92-16.167 102.18-5.531 19.79 5.956 38.11 15.599 57.73 22.121 5.35 1.702 11.36 3.404 16.87 4.539 5.36.283 11.35 0 16.71.141 8.11-.283 16.7.852 24.81-.85 35.85-8.651 67.63-28.361 105.09-31.907 43.79-5.247 77.7 7.232 116.78 22.405 7.79 2.837 15.73 5.531 23.84 7.517 5.52 1.417 11.36 2.694 17.02 2.268h23.04c5.51 0 11.19.284 16.39-1.276 23.35-5.105 44.92-15.032 67.47-22.264 30-9.927 63.09-13.614 94.56-7.941" stroke="url(#p)" stroke-width="1.868"/><path d="M.71 171.58c108.178-.283 216.519-.424 324.697-.708 67.145-.851 134.453 1.986 201.436-3.403 40.061-2.978 79.957-8.651 119.207-15.599 45.089-7.799 90.663-16.309 136.886-15.74 32.438.141 64.55 6.096 94.716 16.449 18.49 6.097 37.142 13.471 56.603 16.875 12.652.141 25.626 0 38.114 0 6.973-1.276 14.436-3.545 20.921-5.956 40.71-16.166 74.12-37.154 120.99-23.966 20.76 5.672 38.28 17.727 57.74 25.809 3.24 1.276 7.79 2.837 11.36 3.687h11.19c7.29-.283 15.4.993 22.38-1.702 36.49-14.038 59.36-39.28 104.28-30.487 27.41 5.246 48.01 23.964 74.29 31.339 10.37 1.134 22.22.424 32.76.283 10.05-2.411 19.78-6.523 29.03-10.636 61.47-29.496 99.25-31.622 162.18-2.835 12.33 5.247 25.14 10.493 38.61 13.045 12.48-.141 25.29.426 37.78-.425 27.25-5.814 51.25-19.852 78.01-27.226 23.2-6.666 48.33-8.368 72.34-4.254 24.16 3.828 46.23 13.897 68.61 22.546 9.4 3.546 19.29 6.807 29.36 8.65 6.82.284 13.77 0 20.59.143 6.01 0 12.16.141 18.18-.143 17.17-3.119 33.24-9.784 49.29-16.023 30.49-12.48 64.06-21.129 97.96-17.018" stroke="url(#q)" stroke-width="1.868"/><path d="M.71 157.4c180.351-.425 360.701-.851 540.892-1.134 44.763.709 89.527-5.106 133.154-13.047 40.384-7.374 80.445-17.301 121.64-20.279 37.628-3.119 76.392.569 111.586 13.047 19.786 6.523 39.248 15.032 60.01 19.144 8.109.567 17.028.142 25.137.283 8.431.426 17.031-.283 24.811-3.119 19.63-6.239 37.31-16.591 56.77-23.399 28.87-11.06 62.44-9.642 89.85 4.397 11.35 5.246 22.38 11.911 33.9 16.875 4.54 1.844 9.89 3.97 14.92 4.822h11.03c5.84-.285 12.65.567 18.32-.709 16.87-5.106 31.31-15.316 46.88-22.69 27.41-14.038 58.87-13.897 86.44-.425 16.38 7.373 31.63 17.442 49.31 22.406 3.89 1.275 8.92.85 12.97.992h22.38c14.44-3.12 27.9-9.217 41.03-15.173 39.57-19.003 78.5-25.951 121.48-10.352 14.93 5.246 29.19 12.337 43.95 18.01 6.82 2.693 14.12 5.104 21.42 6.523 4.22.566 9.08.141 13.3.283 7.78-.142 15.89.142 23.52-.142 20.75-4.254 39.41-14.039 58.87-21.413 22.37-8.934 47.2-14.038 72.01-12.195 22.55 1.418 43.79 8.934 63.9 17.584 10.22 4.254 20.44 8.792 31.14 12.053 5.83 1.702 12 3.971 18.32 3.546 10.55-.142 21.43.141 31.95-.142 6.01-1.134 12.01-2.836 17.69-4.821 37.78-13.473 67.79-31.341 111.26-29.071" stroke="url(#r)" stroke-width="1.868"/><path d="M.71 143.361c133.155.284 266.309-7.8 399.465-4.255 55.468 1.135 110.936 3.971 166.404 2.979 29.517-.568 59.522 1.134 88.878-1.418 44.764-3.83 88.229-15.032 131.696-24.25 39.25-8.082 80.768-12.478 120.666-4.963 20.923 3.83 40.709 11.345 60.173 18.719 15.892 5.956 32.438 12.337 50.118 10.92h20.43c20.11-4.113 37.79-14.466 56.12-22.264 27.25-12.622 60.66-16.309 88.88-4.397 15.57 6.098 29.51 15.173 44.6 21.697 4.38 1.843 9.73 3.971 14.59 4.538h25.31c3.4-.709 7.62-2.128 10.7-3.404 15.89-6.523 30.17-16.308 46.06-22.972 24.33-10.778 53.85-9.785 78.01.993 20.28 7.941 38.6 21.979 61.15 24.816h28.22c15.41-1.985 29.35-9.502 43.3-15.458 37.3-18.151 75.1-25.525 115.96-11.06 23.36 7.658 44.28 21.838 69.1 25.95h30.81c18.81-2.836 35.52-12.053 52.72-19.002 22.53-9.785 47.68-16.591 73.14-14.889 18.17.85 35.84 6.097 52.23 12.904 17.35 7.09 34.06 16.166 52.87 20.278 7.12.568 14.6 0 21.73.142 5.66-.283 11.83.709 17.51-.993 19.3-4.821 36.51-13.897 54.65-20.988 17.04-6.806 35.37-11.627 54.19-12.053" stroke="url(#s)" stroke-width="1.868"/><path d="M.71 128.757c120.18-4.254 240.36-11.629 360.701-10.92 56.279.143 112.722 2.269 168.999 5.673 23.518 1.418 47.196 2.978 70.551 4.254 16.22.142 32.924 0 49.144 0 22.219-.567 45.088 1.135 67.145-1.559 40.709-4.397 79.796-16.309 119.532-25.1 38.439-8.367 79.634-11.488 118.073-1.419 15.893 3.971 31.301 10.21 46.385 16.166 11.84 4.397 24.16 9.784 37.14 11.203h20.27c5.03-.141 11.19.426 16.06-1.134 27.41-7.517 50.28-24.959 78.34-30.772 24.32-5.532 50.27-.568 71.52 10.634 13.14 6.524 25.79 14.607 39.9 19.287 5.51 2.127 12.16 1.276 17.84 1.418 6.97-.142 14.76.85 21.25-2.128 21.56-8.082 39.73-22.546 62.44-28.644 29.68-8.65 59.68.283 85.47 13.613 9.08 4.395 18.65 8.934 28.38 12.479 5.83 1.985 12.33 4.538 18.66 4.254h27.57c14.91-2.978 28.71-9.926 42.32-16.023 35.2-17.301 71.85-24.676 110.61-11.062 23.04 7.658 43.31 21.413 67.48 26.518 10.86-.142 21.9.141 32.75-.142 15.73-3.402 30.01-10.493 44.29-16.875 22.05-10.21 46.55-18.292 71.85-17.016 17.19.567 33.89 5.104 49.14 11.628 16.7 6.949 32.26 16.024 50.12 20.846 5.5 1.843 11.83.992 17.51 1.134 6.97-.284 14.11.425 21.08-.426 17.21-3.97 32.77-12.195 48.5-19.144 15.08-6.664 31.15-12.337 48.17-14.038" stroke="url(#t)" stroke-width="1.868"/><path d="M.71 112.164c150.185-8.367 300.531-18.86 451.039-14.18 66.174 1.7 132.184 7.799 198.03 13.754 20.598 2.269 41.685 1.843 62.606 1.702 18.65-.425 37.79 1.134 56.278-1.418 64.065-7.799 124.235-38.855 190.407-32.19 23.518 1.984 45.9 9.501 66.98 18.293 13.14 5.389 26.6 11.202 40.71 14.18 7.79.426 16.22.143 24.01.143 9.56.85 18.97-1.986 27.57-5.531 11.84-4.822 23.35-11.06 34.87-16.308 40.38-19.286 74.44-15.032 111.74 6.949 11.2 5.53 22.55 13.33 35.52 14.464h17.52c3.24 0 7.46.283 10.38-.993 17.19-5.389 31.95-15.74 48.17-22.972 26.11-12.904 58.06-13.33 85.31-2.553 22.06 7.657 41.52 21.271 64.88 26.092h24.16c6 .426 12.33-.993 17.84-3.119 40.88-15.316 67.63-37.437 116.45-29.639 16.71 2.695 32.28 9.503 47.04 16.592 12.81 5.956 25.78 12.905 40.22 15.599h29.51c14.77-2.552 27.9-9.643 41.03-15.599 21.58-10.493 45.43-19.57 70.72-18.577 16.88.285 33.41 4.963 48.32 11.629 15.73 6.807 30.49 15.741 47.2 20.704 4.73 1.843 10.39 1.276 15.41 1.276h18.99c13.28-1.702 25.29-8.367 37.12-13.613 15.73-7.516 31.8-15.174 49.48-18.577" stroke="url(#u)" stroke-width="1.868"/><path d="M.71 94.862c231.601-17.159 466.286-31.765 697.077.71 10.868 1.275 22.383 2.551 33.248 3.403 12.326.426 25.14 0 37.303.142 16.706-.426 33.899 1.134 50.442-1.844 31.789-4.68 62.117-15.457 92.933-23.681 49.79-13.473 96.177-12.621 142.727 8.791 14.27 5.956 28.54 12.762 44.11 15.883h31.3c9.41-1.843 18.66-5.814 27.09-9.785 27.73-14.039 56.44-29.355 90.01-23.114 18.33 2.978 34.55 12.053 50.12 20.561 8.75 4.68 18 9.36 27.89 11.912 4.38.142 9.57 0 13.79 0h13.78c8.28-1.985 16.39-5.673 23.85-9.5 29.51-16.025 55.79-29.355 91.96-23.399 22.38 3.262 42.01 13.897 61.63 23.115 8.44 3.828 17.51 7.799 26.92 9.36h17.68c4.7-.143 10.05.424 14.59-.569 13.31-3.402 25.63-9.642 37.63-15.314 18.82-9.218 39.25-17.584 61.3-18.294 17.21-.85 34.39 2.836 49.8 9.36 16.86 6.949 32.11 16.733 49.62 22.405 6.82 2.695 14.61 1.702 21.91 1.843h14.43c3.9-.424 8.28-1.985 12.01-3.261 30.96-11.912 57.57-31.906 93.41-30.913 15.9 0 31.46 4.254 45.59 10.493 14.42 6.382 27.73 14.747 42.64 20.279 2.91 1.134 6.48 2.126 9.41 2.835 2.26.143 5.35 0 7.63.143h20.59c11.19-1.276 21.41-6.949 31.31-11.488 14.09-6.948 28.05-14.464 43.63-18.718" stroke="url(#v)" stroke-width="1.868"/><path d="M.71 77.564C139.54 65.369 278.858 56.86 418.5 57.144c65.2 0 130.724.993 195.762 6.382 46.871 3.687 93.417 11.06 139.802 17.725 10.544 1.418 21.734 2.978 32.438 3.687h27.41c14.923-.425 30.33 1.135 44.928-1.276 31.462-4.82 60.979-16.308 91.309-24.674 34.87-9.785 73.47-12.337 108.18-.851 17.84 5.672 34.54 14.323 51.9 20.988 7.3 2.552 15.41 5.672 23.52 5.104 8.75-.283 18.32.568 26.92-.567 41.03-11.912 66.33-41.266 115.15-32.19 28.55 4.822 49.47 25.242 76.88 32.19h27.08c4.38-.85 9.41-2.694 13.46-4.396 35.68-16.45 60.01-34.743 103.8-28.787 19.63 2.694 37.47 11.202 54.66 19.853 10.22 4.963 20.92 10.069 32.27 12.763 4.7.284 9.9.141 14.61.141 5.5-.14 11.67.143 17.18-.283 8.92-2.127 17.53-5.814 25.64-9.643 17.83-8.508 35.35-18.435 55.3-22.405 22.7-4.821 46.86-.993 67.31 8.65 13.94 6.24 26.91 14.323 41.35 19.853 5.19 1.985 11.03 3.828 16.7 3.261h21.26c16.05-2.552 29.99-11.769 44.26-18.434 16.22-8.225 34.07-15.173 53.05-15.742 24.96-1.417 48 9.218 68.44 20.846 10.05 4.964 20.27 11.487 31.95 12.905 9.25-.284 18.65.425 27.73-.284 22.06-6.097 40.06-19.853 61.32-27.51" stroke="url(#w)" stroke-width="1.868"/><path d="M.71 60.26C119.43 48.774 238.797 41.4 358.331 40.124c81.742-.993 163.646-1.56 245.387 1.985 47.034 2.128 94.232 6.665 140.453 14.465 29.194 4.679 58.225 10.777 87.745 13.896h57.9c19.299-2.268 38.114-7.656 56.279-13.612 42.168-14.749 87.254-28.362 132.504-16.166 26.28 6.38 48.66 21.554 74.61 28.502 10.86 1.276 23.35.568 34.38.285 26.44-6.807 47.52-24.675 74.12-31.198 47.52-11.345 70.07 11.628 108.34 28.078 6.16 2.835 13.3 3.119 20.11 2.835 6.49-.283 13.63.71 19.95-.709 18.65-5.388 34.71-16.166 52.39-23.398 29.03-12.904 63.58-13.897 92.77-.709 17.67 7.233 33.57 18.01 52.22 23.4 6.33 1.842 13.46.708 19.95.992 4.54-.142 9.58.14 14.12-.285 5.67-1.417 11.51-3.545 16.86-5.813 13.94-6.097 27.09-14.039 41.35-19.853 36.83-15.316 68.94-8.65 101.86 10.493 10.55 5.672 21.24 11.628 33.08 14.749 3.73.425 7.95.14 11.68.14h16.22c9.09-1.701 17.35-5.955 25.31-9.783 17.68-9.077 35.03-19.711 55.47-23.115 19.45-3.545 39.89 0 57.08 8.508 15.25 7.091 28.87 17.159 45.09 22.69 5.68 2.269 12.33.993 18.48 1.276h12.65c5.04-.993 9.9-2.978 14.44-5.105 13.3-5.956 25.62-13.898 38.94-19.853" stroke="url(#x)" stroke-width="1.868"/><path d="M.71 43.386c85.31-8.651 170.944-15.033 256.903-17.301 111.747-2.978 223.818-3.262 335.727-1.986 48.656.852 97.636 2.695 145.806 9.077 40.221 4.963 79.634 14.606 119.53 21.271 11.515 2.269 23.68 2.126 35.358 1.985 11.515-.142 23.355.141 34.87-.284 54.171-8.083 100.396-40.414 157.646-33.466 32.92 2.693 59.68 21.27 89.69 31.34 6.97 2.551 15.24 1.559 22.7 1.701 6-.283 12.98.71 18.66-1.135 30.81-9.784 56.44-32.898 90.82-33.183 48.49-1.843 74.44 36.587 108.67 33.892 6.32-.283 13.29.567 19.62-.567 19.46-5.389 36.33-16.308 54.66-23.823 27.41-12.338 60.49-13.756 88.06-1.419 17.51 7.091 33.09 17.868 51.26 23.824 6.97 2.552 14.92 1.135 22.38 1.418h11.02c7.79-1.418 15.09-4.822 22.06-8.083 14.28-6.949 27.9-15.316 43.15-20.562 22.53-8.366 49.14-7.373 70.71 2.837 16.87 7.372 31.63 18.576 49.3 24.39 3.41 1.418 7.95 1.135 11.52 1.135h16.05c8.11-.142 15.73-4.539 22.72-7.658 11.84-5.956 23.35-13.188 35.69-18.436 18.96-8.649 41.98-11.06 62.1-4.254 22.38 6.949 39.24 23.4 61.79 29.922 8.43.141 17.02 0 25.3 0 16.87-3.83 30.66-14.323 45.59-21.838" stroke="url(#y)" stroke-width="1.868"/><path d="M.71 26.793C120.727 13.463 241.718 8.926 362.546 8.926c88.392-.143 176.785-.569 265.013-.426 48.007.426 96.34 1.276 143.861 7.232 36.978 4.396 72.984 13.047 109.151 20.846 15.732 3.403 31.952 6.239 48.17 5.246 12.651-.425 25.948.852 38.439-.85 47.199-8.65 89.369-36.87 139.149-33.467 35.36.993 61.64 19.144 92.61 30.913 6.98 2.978 14.93 3.12 22.38 2.837 7.14-.283 15.25.85 22.06-1.276 30.33-9.926 55.63-32.757 89.53-33.04 39.74-1.845 63.09 23.68 97.31 33.607 10.55.567 21.74.567 32.28-.142 20.44-5.247 37.79-16.875 56.93-24.674 29.99-13.188 63.25-12.338 92.12 2.694 15.57 7.375 30.01 17.442 47.35 21.839h27.42c24.32-5.815 42.98-22.69 66.82-29.922 21.72-7.516 46.71-5.247 66.82 4.963 14.27 6.665 26.91 16.166 41.52 22.122 1.79.709 4.86 1.702 6.8 2.269 3.57.425 7.79.142 11.36.142 5.83-.283 12.34.852 18-.71 15.41-4.963 28.38-14.18 42.33-21.412 19.47-10.777 43.95-16.166 66.18-9.076 13.77 4.113 25.79 12.054 37.62 19.286 7.96 4.538 15.9 9.926 25.29 11.486h23.36c13.96-3.545 25.63-11.912 37.65-18.575" stroke="url(#z)" stroke-width="1.868"/><path d="M.71 10.629C138.405-5.538 277.561-6.388 416.232-4.97c86.606.85 173.376-.568 259.983-1.135 45.576 0 91.474.567 136.561 6.665 36.331 4.538 71.687 14.18 107.208 22.264 8.432 1.843 17.352 3.545 25.948 4.68 15.407.141 31.141 0 46.711 0 50.766-6.948 90.016-39.565 145.476-34.035 16.06 1.278 31.79 6.098 46.07 12.621 14.76 6.524 29.03 14.89 44.92 19.57 5.68 1.985 12.49 1.135 18.33 1.276 5.84-.141 12.49.426 18.16-.567 31.47-9.36 57.09-33.608 91.96-33.892 38.28-1.843 62.77 22.547 95.86 33.042 3.73 1.417 8.75.993 12.81.993h18.97c19.46-2.838 35.68-14.607 53.04-22.265 27.42-13.756 59.69-16.875 88.23-3.687 17.83 7.516 33.24 19.57 52.22 25.1 6.01.993 12.81.142 18.98.426 3.25 0 7.46.14 10.71-.284 4.38-1.276 9.24-3.12 13.29-4.963 10.87-5.106 21.08-11.487 31.63-16.875 24.33-13.33 53.35-17.159 79.15-4.68 14.42 6.523 26.76 16.024 41.03 22.689 3.4 1.418 7.45 3.261 11.19 3.687h15.73c12.48 1.135 23.19-5.956 33.24-11.486 24.33-15.032 49.96-29.496 80.94-19.996 11.68 3.404 22.05 9.786 31.8 16.166 6.32 4.113 12.97 8.367 19.79 11.629 3.88 1.702 8.11 3.83 12.48 3.404h19.62c11.84-2.553 21.73-9.644 31.63-15.457" stroke="url(#A)" stroke-width="1.868"/><path d="M.71-4.969c67.307-7.657 135.263-12.478 203.218-13.897 83.042-1.985 166.08.284 249.12 1.135 90.338 1.56 180.514-1.277 270.852-2.837 43.141-.425 86.769.143 129.425 6.382 35.844 4.82 70.226 15.74 105.259 23.824 19.137 5.104 39.248 3.119 58.876 3.402 23.03-.708 44.27-11.202 65.2-18.859 26.76-10.92 56.6-18.86 86.28-14.606 31.63 3.544 56.44 23.255 85.8 32.19 4.38 1.134 9.89.567 14.59.708 5.84 0 12.17 0 18.01-.14 32.92-9.218 57.57-34.177 94.39-34.46 36.82-1.702 62.44 21.696 94.55 32.474 3.73 1.417 8.6 1.843 12.65 1.702h18.82c6.49.283 12.81-2.554 18.65-4.68 9.41-3.97 18.65-9.076 27.58-13.614 25.45-14.04 55.63-21.838 84.82-11.345 13.77 4.68 25.95 12.338 38.28 19.286 9.72 5.247 20.11 11.203 32.11 9.927 5.99-.142 12.48.283 18.48-.426 16.21-4.82 29.85-14.747 44.45-22.405 22.05-12.338 49.46-16.308 73.3-5.247 12.97 5.673 24 14.038 36.17 20.704 4.69 2.694 10.05 5.105 15.41 6.665h24.16c5.36-1.419 10.71-3.829 15.41-6.382 25.64-14.464 49.8-34.46 83.04-26.233 13.3 3.119 24.64 10.493 35.37 17.725 5.66 3.828 11.67 7.799 17.82 10.92 2.6 1.418 6.02 2.694 8.93 3.544 2.09.283 5.03.142 7.12.142 5.85-.283 11.85.425 17.69-.426 8.6-2.835 16.39-7.515 24.01-12.195" stroke="url(#B)" stroke-width="1.868"/></mask><g mask="url(#C)"><path d="M1941.01-24.869c0-16.395-16.77-29.686-37.45-29.686L945.529-104 977.5 14.5 397 149.5-120.5 164l47.923-148.874-83.346-39.995c-20.68 0-37.445-16.395-37.445 0v415.296c0 16.396 16.765 29.687 37.445 29.687H1903.56c20.68 0 37.45-13.291 37.45-29.687V-24.869Z" fill="#fff"/></g></g><defs><linearGradient id="b" x1="1065.38" y1="343.952" x2="1065.38" y2="380.274" gradientUnits="userSpaceOnUse"><stop stop-color="#303030"/><stop offset="1" stop-color="#303030" stop-opacity="0"/></linearGradient><linearGradient id="c" x1="1065.63" y1="330.109" x2="1065.63" y2="366.284" gradientUnits="userSpaceOnUse"><stop stop-color="#303030"/><stop offset="1" stop-color="#303030" stop-opacity="0"/></linearGradient><linearGradient id="d" x1="1065.46" y1="315.952" x2="1065.46" y2="352.311" gradientUnits="userSpaceOnUse"><stop stop-color="#303030"/><stop offset="1" stop-color="#303030" stop-opacity="0"/></linearGradient><linearGradient id="e" x1="1065.3" y1="302.484" x2="1065.3" y2="338.233" gradientUnits="userSpaceOnUse"><stop stop-color="#303030"/><stop offset="1" stop-color="#303030" stop-opacity="0"/></linearGradient><linearGradient id="f" x1="1065.46" y1="287.845" x2="1065.46" y2="324.221" gradientUnits="userSpaceOnUse"><stop stop-color="#303030"/><stop offset="1" stop-color="#303030" stop-opacity="0"/></linearGradient><linearGradient id="g" x1="1065.46" y1="274.133" x2="1065.46" y2="310.268" gradientUnits="userSpaceOnUse"><stop stop-color="#303030"/><stop offset="1" stop-color="#303030" stop-opacity="0"/></linearGradient><linearGradient id="h" x1="1065.46" y1="259.996" x2="1065.46" y2="296.292" gradientUnits="userSpaceOnUse"><stop stop-color="#303030"/><stop offset="1" stop-color="#303030" stop-opacity="0"/></linearGradient><linearGradient id="i" x1="1065.46" y1="246.207" x2="1065.46" y2="282.271" gradientUnits="userSpaceOnUse"><stop stop-color="#303030"/><stop offset="1" stop-color="#303030" stop-opacity="0"/></linearGradient><linearGradient id="j" x1="1065.38" y1="232.036" x2="1065.38" y2="268.19" gradientUnits="userSpaceOnUse"><stop stop-color="#303030"/><stop offset="1" stop-color="#303030" stop-opacity="0"/></linearGradient><linearGradient id="k" x1="1065.38" y1="217.835" x2="1065.38" y2="254.146" gradientUnits="userSpaceOnUse"><stop stop-color="#303030"/><stop offset="1" stop-color="#303030" stop-opacity="0"/></linearGradient><linearGradient id="l" x1="1065.38" y1="204.189" x2="1065.38" y2="240.261" gradientUnits="userSpaceOnUse"><stop stop-color="#303030"/><stop offset="1" stop-color="#303030" stop-opacity="0"/></linearGradient><linearGradient id="m" x1="1065.3" y1="190.082" x2="1065.3" y2="226.036" gradientUnits="userSpaceOnUse"><stop stop-color="#303030"/><stop offset="1" stop-color="#303030" stop-opacity="0"/></linearGradient><linearGradient id="n" x1="1065.46" y1="175.619" x2="1065.46" y2="212.09" gradientUnits="userSpaceOnUse"><stop stop-color="#303030"/><stop offset="1" stop-color="#303030" stop-opacity="0"/></linearGradient><linearGradient id="o" x1="1065.55" y1="161.212" x2="1065.55" y2="197.949" gradientUnits="userSpaceOnUse"><stop stop-color="#303030"/><stop offset="1" stop-color="#303030" stop-opacity="0"/></linearGradient><linearGradient id="p" x1="1065.38" y1="147.353" x2="1065.38" y2="185.226" gradientUnits="userSpaceOnUse"><stop stop-color="#303030"/><stop offset="1" stop-color="#303030" stop-opacity="0"/></linearGradient><linearGradient id="q" x1="1065.46" y1="133.251" x2="1065.46" y2="171.58" gradientUnits="userSpaceOnUse"><stop stop-color="#303030"/><stop offset="1" stop-color="#303030" stop-opacity="0"/></linearGradient><linearGradient id="r" x1="1065.63" y1="119.058" x2="1065.63" y2="157.4" gradientUnits="userSpaceOnUse"><stop stop-color="#303030"/><stop offset="1" stop-color="#303030" stop-opacity="0"/></linearGradient><linearGradient id="s" x1="1065.55" y1="104.931" x2="1065.55" y2="143.368" gradientUnits="userSpaceOnUse"><stop stop-color="#303030"/><stop offset="1" stop-color="#303030" stop-opacity="0"/></linearGradient><linearGradient id="t" x1="1065.3" y1="91.328" x2="1065.3" y2="128.757" gradientUnits="userSpaceOnUse"><stop stop-color="#303030"/><stop offset="1" stop-color="#303030" stop-opacity="0"/></linearGradient><linearGradient id="u" x1="1065.46" y1="76.779" x2="1065.46" y2="113.566" gradientUnits="userSpaceOnUse"><stop stop-color="#303030"/><stop offset="1" stop-color="#303030" stop-opacity="0"/></linearGradient><linearGradient id="v" x1="1065.38" y1="62.636" x2="1065.38" y2="99.169" gradientUnits="userSpaceOnUse"><stop stop-color="#303030"/><stop offset="1" stop-color="#303030" stop-opacity="0"/></linearGradient><linearGradient id="w" x1="1065.38" y1="48.367" x2="1065.38" y2="85.048" gradientUnits="userSpaceOnUse"><stop stop-color="#303030"/><stop offset="1" stop-color="#303030" stop-opacity="0"/></linearGradient><linearGradient id="x" x1="1065.38" y1="33.938" x2="1065.38" y2="70.47" gradientUnits="userSpaceOnUse"><stop stop-color="#303030"/><stop offset="1" stop-color="#303030" stop-opacity="0"/></linearGradient><linearGradient id="y" x1="1065.38" y1="20.165" x2="1065.38" y2="56.501" gradientUnits="userSpaceOnUse"><stop stop-color="#303030"/><stop offset="1" stop-color="#303030" stop-opacity="0"/></linearGradient><linearGradient id="z" x1="1065.38" y1="5.434" x2="1065.38" y2="42.025" gradientUnits="userSpaceOnUse"><stop stop-color="#303030"/><stop offset="1" stop-color="#303030" stop-opacity="0"/></linearGradient><linearGradient id="A" x1="1065.3" y1="-8.862" x2="1065.3" y2="27.566" gradientUnits="userSpaceOnUse"><stop stop-color="#303030"/><stop offset="1" stop-color="#303030" stop-opacity="0"/></linearGradient><linearGradient id="B" x1="1065.63" y1="-23.621" x2="1065.63" y2="13.191" gradientUnits="userSpaceOnUse"><stop stop-color="#303030"/><stop offset="1" stop-color="#303030" stop-opacity="0"/></linearGradient><clipPath id="a"><rect width="1400" height="343" rx="40" fill="#fff"/></clipPath></defs></svg>