<svg width="1400" height="343" viewBox="0 0 1400 343" fill="none" xmlns="http://www.w3.org/2000/svg">
<g opacity="0.55">
<g clip-path="url(#clip0_56_138)">
<mask id="mask0_56_138" style="mask-type:alpha" maskUnits="userSpaceOnUse" x="0" y="-25" width="2132" height="665">
<path d="M0.70929 377.202C61.5293 379.329 122.511 380.889 183.331 380.039C220.796 379.471 258.587 381.315 295.727 377.911C356.71 373.514 416.068 360.185 476.241 351.534C527.654 344.445 581.337 343.025 631.777 356.072C659.187 362.739 685.461 373.658 713.358 378.621C727.143 379.045 741.416 378.763 755.201 378.621C762.662 377.343 770.771 374.934 777.908 372.522C808.076 361.745 837.593 345.437 871.327 345.437C906.035 344.161 932.148 361.037 961.503 373.798C965.234 375.216 970.099 376.918 973.991 377.911C977.722 378.195 982.75 378.195 986.48 378.195C993.129 377.769 1000.75 379.187 1007.08 377.06C1034.49 367.986 1056.71 346.998 1087.2 345.295C1109.74 343.169 1130.83 352.67 1148.99 363.445C1159.53 368.978 1170.24 376.776 1182.73 377.911C1189.86 377.911 1197.65 377.911 1204.94 377.911C1214.03 375.784 1222.62 371.246 1230.57 366.85C1264.14 346.572 1293.18 336.787 1332.59 352.102C1350.59 359.051 1367.13 369.262 1385.95 374.934C1395.19 378.337 1405.41 377.202 1415.3 377.343C1420.49 377.343 1426.17 377.343 1431.36 377.343C1436.55 376.776 1442.22 375.358 1447.25 374.224C1479.05 366.141 1509.85 354.796 1542.46 349.55C1615.92 337.213 1691.02 347.706 1763.85 357.633C1812.34 364.297 1860.83 370.538 1909.8 373.94C1947.43 377.202 1985.23 376.21 2023.03 376.21C2045.56 376.21 2068.09 376.066 2090.49 376.066C2103.61 375.358 2116.93 374.508 2130.07 373.372" stroke="url(#paint0_linear_56_138)" stroke-width="1.86842"/>
<path d="M0.70929 357.491C87.8035 359.759 174.736 367.418 261.828 366.142C294.591 365.576 327.84 367.418 360.601 364.157C415.097 359.477 468.13 346.288 521.978 337.921C570.796 330.548 622.209 329.272 670.054 342.601C695.516 349.266 719.845 359.759 745.796 364.724C754.715 365.576 764.446 364.866 773.366 365.008C780.827 365.15 788.935 365.15 796.073 362.881C823.483 355.507 847.647 340.333 875.707 334.519C901.655 328.704 929.553 332.392 952.908 343.452C966.856 349.692 980.153 357.633 994.751 362.597C1001.08 365.15 1008.54 364.44 1015.19 364.582C1023.46 364.866 1032.05 364.724 1039.51 361.179C1059.63 352.812 1077.14 339.057 1098.88 333.811C1141.37 323.6 1163.59 346.714 1197.65 361.745C1202.03 363.731 1207.38 364.582 1212.41 364.157C1218.25 364.157 1224.73 364.157 1230.57 364.157C1247.6 359.903 1261.71 349.266 1277.28 342.035C1303.88 328.138 1335.34 327.712 1363.24 338.915C1384.81 346.998 1405.08 359.051 1428.44 363.305C1435.57 364.014 1443.36 363.447 1450.66 363.589C1458.93 363.305 1467.52 364.156 1475.64 363.163C1500.45 359.051 1524.29 351.11 1548.62 344.87C1582.68 335.795 1618.04 330.972 1653.72 330.264C1749.41 328.138 1843.32 348.558 1938.03 357.349C1959.76 359.477 1981.49 361.179 2003.39 362.311C2018.8 362.311 2034.37 362.311 2049.78 362.171C2066 362.171 2082.22 362.171 2098.44 362.029C2109.14 361.887 2120 362.311 2130.55 361.319" stroke="url(#paint1_linear_56_138)" stroke-width="1.86842"/>
<path d="M0.70929 336.788C91.3717 339.198 181.872 345.721 272.372 351.252C315.837 353.238 359.465 351.818 402.931 351.818C458.724 348.273 512.247 333.242 566.902 323.883C611.666 316.508 659.026 315.374 702.979 327.569C728.117 334.236 751.958 345.155 777.746 350.401C786.503 351.678 796.073 350.685 804.993 350.968C814.075 351.394 823.481 350.685 831.754 347.565C858.351 339.198 882.031 324.025 910.089 319.346C934.579 314.806 960.367 319.487 981.939 330.265C995.562 336.504 1008.54 344.587 1023.13 349.265C1029.3 351.536 1036.76 350.401 1043.41 350.542C1050.06 350.685 1057.35 350.826 1063.36 347.989C1085.9 339.056 1104.88 322.891 1129.85 318.636C1169.1 311.404 1191.65 333.95 1223.27 347.707C1233.17 352.104 1245.01 349.691 1255.71 350.259C1271.28 347.281 1284.42 337.78 1298.2 331.116C1321.4 318.21 1349.94 313.248 1376.7 319.771C1411.57 327.427 1441.9 350.117 1478.88 349.691C1492.02 349.409 1505.47 350.117 1518.62 349.265C1540.67 346.005 1562.09 339.622 1583.65 334.094C1611.87 326.577 1640.73 320.763 1670.1 318.21C1713.08 314.382 1756.39 315.8 1799.19 319.629C1875.27 326.577 1950.2 341.325 2026.43 347.139C2041.34 348.699 2056.41 348.415 2071.34 348.273C2090.96 348.273 2110.6 348.133 2130.22 348.133" stroke="url(#paint2_linear_56_138)" stroke-width="1.86842"/>
<path d="M0.70929 316.369C62.5024 317.787 124.62 320.055 186.251 324.309C238.638 327.714 291.024 332.96 343.249 336.789C366.279 338.915 389.795 338.065 412.987 338.065C433.747 337.639 455.157 339.057 475.755 336.363C518.409 331.684 559.443 319.913 601.124 311.546C641.833 303.605 685.137 300.911 725.845 310.412C754.39 316.651 780.503 329.84 808.886 336.363C817.481 338.207 827.049 336.931 835.809 337.215C839.863 337.215 845.053 337.215 849.108 337.215C854.784 336.221 861.271 334.236 866.624 332.392C894.682 322.181 920.956 305.306 952.258 304.03C988.427 301.477 1012.92 319.629 1043.08 333.1C1046.65 334.518 1051.35 336.221 1055.08 336.931C1058.65 336.931 1063.52 336.931 1067.09 336.931C1073.41 336.789 1080.87 337.639 1086.87 335.37C1112.98 325.87 1134.56 305.732 1163.91 303.889C1199.59 300.627 1222.3 323.459 1252.14 334.944C1256.36 336.789 1261.87 336.647 1266.41 336.647C1272.09 336.647 1278.41 336.647 1284.09 336.647C1300.47 332.392 1314.58 323.033 1329.34 316.085C1342.8 309.562 1357.89 304.598 1373.46 303.605C1426.17 299.209 1470.12 335.512 1521.69 336.221C1536.45 335.795 1551.38 336.931 1565.98 335.512C1602.14 329.84 1636.68 318.071 1672.7 311.546C1742.11 298.357 1814.28 301.195 1884.18 309.702C1946.79 317.219 2008.73 329.982 2071.83 334.802C2091.13 335.654 2110.6 334.802 2129.9 334.944" stroke="url(#paint3_linear_56_138)" stroke-width="1.86842"/>
<path d="M0.70929 297.223C101.914 298.357 203.282 301.619 303.836 311.688C345.356 315.658 386.714 320.905 428.394 324.025C457.59 324.309 487.27 324.309 516.462 323.883C553.604 320.479 589.609 310.552 625.453 301.761C665.351 291.976 707.844 286.446 748.877 293.82C780.827 298.923 809.21 314.24 840.188 322.181C848.622 324.309 858.028 323.033 866.624 323.315C870.679 323.315 875.867 323.315 879.761 323.315C885.437 322.465 891.764 320.479 897.115 318.637C925.984 307.717 953.069 289.706 985.831 289.848C1018.92 288.714 1043.41 307.149 1071.14 319.345C1077.14 322.039 1084.12 323.315 1090.93 322.747C1097.25 322.607 1104.23 323.173 1110.39 322.181C1139.1 312.964 1161.8 289.848 1194.08 289.424C1230.41 287.58 1252.79 312.68 1284.26 322.181C1289.77 322.607 1296.09 322.323 1301.77 322.323C1306.15 322.181 1311.5 322.889 1315.72 321.331C1332.75 316.084 1347.51 306.441 1363.56 299.633C1394.7 285.169 1431.52 286.872 1464.28 296.088C1486.83 302.045 1508.56 310.694 1531.27 316.508C1539.86 318.637 1548.94 320.763 1557.71 321.613C1562.41 321.613 1567.59 321.613 1572.29 321.613C1584.62 321.471 1597.11 321.897 1609.44 321.331C1628.25 318.777 1646.58 314.382 1664.91 309.844C1698.96 301.335 1733.35 293.536 1768.71 290.416C1816.07 286.02 1863.91 287.58 1911.11 292.684C1953.43 297.365 1995.28 305.447 2037.28 312.114C2058.69 315.516 2080.26 318.493 2102 320.337C2111.4 320.479 2120.82 320.337 2130.22 320.337" stroke="url(#paint4_linear_56_138)" stroke-width="1.86842"/>
<path d="M0.70929 279.923C93.9665 280.489 187.548 281.055 280.643 287.58C324.434 290.7 368.226 295.52 411.691 301.193C437.802 304.595 464.075 308.141 490.351 310.268C515.651 310.268 541.114 310.268 566.416 310.126C596.421 307.148 625.613 299.349 654.322 291.55C694.868 280.205 738.335 272.122 780.827 279.355C814.238 284.175 842.944 301.335 875.221 308.992C882.194 309.986 889.98 309.276 896.953 309.56C905.549 309.702 914.794 309.702 922.74 306.581C951.934 296.514 978.046 277.369 1010.48 276.235C1045.68 273.824 1069.52 292.826 1098.71 305.731C1104.55 308.426 1111.53 309.56 1118.18 309.134C1124.34 308.992 1131.31 309.56 1137.48 308.568C1165.86 299.349 1188.24 276.661 1220.03 275.809C1257.17 273.398 1280.2 298.783 1312.31 308.426C1317.83 308.992 1323.99 308.567 1329.5 308.709C1336.32 308.85 1343.61 308.85 1349.94 306.155C1369.4 299.207 1386.92 288.004 1406.71 281.765C1443.2 269.996 1483.75 275.383 1519.75 286.303C1546.51 294.244 1572.94 304.455 1601.17 308C1608.46 308.142 1616.25 308 1623.71 308C1634.58 307.716 1645.93 308.425 1656.8 307.573C1676.59 304.879 1696.04 300.059 1715.5 295.378C1748.11 287.296 1781.2 279.923 1815.08 276.803C1871.85 271.272 1929.44 274.676 1985.38 283.893C2015.55 288.714 2045.39 295.096 2075.57 300.199C2093.58 303.037 2111.89 306.441 2130.22 306.865" stroke="url(#paint5_linear_56_138)" stroke-width="1.86842"/>
<path d="M0.70929 264.321C104.833 264.463 209.118 263.471 313.081 269.144C359.954 271.696 406.825 276.658 453.211 283.607C484.026 288.004 515.003 293.392 545.981 296.228C559.118 296.37 572.905 296.228 586.042 296.228C595.61 296.086 605.989 296.37 615.559 295.944C640.211 293.11 664.215 286.727 687.57 279.919C727.466 267.868 770.122 257.941 812.453 264.605C845.702 268.86 873.922 286.161 905.549 294.526C909.441 295.66 914.469 295.518 918.523 295.378C925.336 295.378 932.957 295.378 939.932 295.378C951.772 294.386 962.962 288.714 973.505 284.033C988.101 277.084 1002.86 269.286 1018.75 265.171C1042.92 258.507 1069.36 262.477 1090.93 273.68C1105.04 280.489 1118.34 289.422 1133.75 294.242C1139.75 295.802 1146.72 294.81 1152.88 294.952C1156.29 294.952 1160.83 295.094 1164.24 294.526C1167.8 293.534 1172.35 291.832 1175.59 290.414C1198.29 279.779 1218.89 263.329 1245.65 261.627C1286.2 258.225 1308.74 285.591 1343.45 294.526C1350.1 294.526 1357.08 294.526 1363.72 294.526C1369.24 294.81 1375.4 294.242 1380.43 292.258C1400.54 285.451 1418.87 274.532 1439.47 268.434C1479.05 256.239 1522.84 260.209 1561.92 271.838C1581.87 277.51 1601.34 284.459 1621.61 289.28C1634.09 292.4 1647.06 294.526 1660.04 293.816C1674.96 293.392 1690.53 294.668 1705.29 292.966C1746.65 286.585 1786.06 273.256 1827.26 266.732C1882.22 257.657 1939 258.081 1994.16 266.023C2040.05 272.404 2084.48 285.025 2130.22 291.264" stroke="url(#paint6_linear_56_138)" stroke-width="1.86842"/>
<path d="M0.70929 250.428C133.54 250.994 266.696 246.173 399.202 254.824C460.346 258.653 520.193 270.848 580.526 280.065C596.746 282.901 613.45 282.193 629.83 282.193C644.266 281.909 659.187 283.185 673.297 280.207C709.952 273.968 744.011 258.935 780.341 252.13C811.48 246.173 844.728 247.024 874.571 257.233C892.41 263.049 909.116 271.556 926.795 277.512C930.689 278.789 935.715 280.207 939.608 281.199C944.96 281.767 951.124 281.483 956.477 281.483C961.828 281.483 967.992 281.483 973.18 281.343C977.074 280.491 981.939 278.931 985.669 277.654C1026.05 261.205 1054.27 237.239 1102.61 252.838C1123.2 259.503 1139.91 273.116 1160.34 279.923C1163.59 281.343 1168.13 281.057 1171.7 281.057C1177.7 281.057 1184.35 281.057 1190.35 281.057C1214.19 274.394 1232.35 257.377 1256.36 250.854C1299.18 238.941 1325.13 261.205 1360.48 276.52C1364.54 278.079 1369.57 279.781 1373.78 280.633C1378 280.633 1382.86 280.633 1387.08 280.633C1393.41 280.349 1400.54 281.199 1406.87 280.065C1435.25 272.266 1460.71 257.233 1490.06 251.562C1527.21 243.195 1566.62 247.024 1602.63 257.519C1630.69 265.317 1657.94 275.67 1687.12 279.781C1698.32 280.633 1709.83 279.781 1721.03 280.065C1730.27 279.781 1739.83 280.633 1749.08 279.073C1783.63 273.684 1816.55 262.905 1850.6 256.1C1906.4 244.329 1964.96 243.195 2021.55 251.986C2058.21 257.518 2093.73 267.728 2130.22 274.676" stroke="url(#paint7_linear_56_138)" stroke-width="1.86842"/>
<path d="M0.70929 238.228C122.511 238.514 244.476 234.826 366.279 235.676C412.176 236.244 458.238 238.088 503.65 243.901C542.738 248.581 581.014 257.232 619.614 264.039C629.184 265.599 639.238 267.299 648.969 268.151C656.754 268.151 665.351 268.151 672.974 268.151C685.461 267.725 698.599 269.001 710.925 267.159C739.632 262.621 766.393 251.844 793.803 243.901C841.647 229.437 885.925 231.14 930.689 252.27C944.311 257.94 958.098 264.889 973.018 267.585C979.667 267.585 987.128 267.585 993.78 267.585C1016.32 268.861 1038.7 251.56 1058.82 243.477C1084.44 231.566 1115.58 230.43 1141.21 242.909C1156.61 249.717 1170.56 259.642 1186.62 265.457C1195.86 268.577 1206.57 266.591 1216.3 267.015C1227 265.741 1236.41 259.784 1245.49 255.104C1258.95 247.589 1272.9 239.506 1288.47 235.82C1329.34 226.033 1356.59 247.589 1390.65 261.912C1396.81 264.039 1403.46 266.875 1410.27 266.591C1419.84 266.449 1429.74 266.733 1439.31 266.449C1467.53 260.352 1492.82 246.739 1520.72 239.648C1554.62 230.573 1591.27 230.998 1625.5 238.654C1647.55 243.477 1668.81 250.993 1690.37 257.09C1704.65 260.918 1719.24 265.173 1734.32 265.883C1751.51 265.457 1769.68 266.591 1786.54 265.315C1814.6 261.202 1841.69 252.836 1869.11 246.171C1925.21 231.566 1985.06 227.735 2042.64 237.236C2072.31 241.775 2101.03 249.999 2130.07 256.948" stroke="url(#paint8_linear_56_138)" stroke-width="1.86842"/>
<path d="M0.70929 227.592C113.267 228.16 225.987 225.466 338.544 222.346C403.582 221.07 468.943 219.51 533.655 225.89C579.067 230.003 623.345 240.922 667.784 249.856C683.514 253.261 699.248 254.677 715.466 253.969C727.791 253.543 740.768 254.819 752.769 252.977C776.286 249.006 798.668 240.356 820.887 232.981C866.462 216.955 911.874 214.547 956.151 235.109C971.073 241.49 985.994 249.29 1002.21 253.117C1007.4 253.543 1013.4 253.261 1018.59 253.401C1023.78 253.401 1029.78 253.543 1034.81 253.117C1043.08 251.133 1051.52 247.444 1058.98 243.9C1086.87 229.294 1115.09 213.979 1148.99 221.778C1166.99 225.606 1182.4 235.393 1197.97 243.618C1204.78 247.162 1212.41 250.849 1220.03 252.835C1224.57 252.977 1230.08 252.835 1234.63 252.835C1239.17 252.693 1244.68 253.261 1249.06 252.125C1259.28 249.006 1268.69 243.758 1277.77 238.795C1314.75 216.531 1347.35 212.277 1387.73 231.421C1405.41 238.937 1425.84 252.125 1445.96 252.409C1453.25 252.409 1460.87 252.409 1468.17 252.409C1473.2 252.551 1478.88 252.409 1483.75 250.849C1504.83 245.744 1524.45 236.669 1545.05 230.146C1574.25 220.22 1606.2 216.531 1637.34 219.794C1683.39 223.764 1724.44 245.46 1770 251.699C1781.36 251.699 1792.71 251.699 1804.07 251.699C1811.85 251.559 1820.12 252.125 1827.75 250.566C1854.82 246.028 1880.78 237.519 1907.22 230.853C1956.51 217.807 2009.07 213.979 2059.83 222.062C2083.67 225.748 2106.86 232.131 2130.07 238.511" stroke="url(#paint9_linear_56_138)" stroke-width="1.86842"/>
<path d="M0.70929 218.38C118.619 219.656 236.691 217.386 354.438 211.573C429.044 208.453 504.136 203.914 578.581 210.297C623.506 213.841 666.973 225.186 710.438 235.113C719.52 237.097 729.413 238.942 738.66 240.076C749.202 240.076 760.392 240.076 771.096 240.076C793.154 241.494 814.238 234.547 834.349 227.455C888.844 206.467 934.093 195.407 989.561 221.782C1004.16 228.165 1018.75 236.247 1034.81 239.51C1039.84 239.51 1045.84 239.51 1051.03 239.51C1090.6 242.488 1117.04 198.668 1172.02 206.752C1189.86 209.305 1205.43 217.954 1220.35 226.32C1232.35 232.845 1245.33 240.786 1260.25 239.084C1264.79 239.084 1269.98 239.084 1274.52 239.084C1283.28 237.523 1291.72 233.127 1299.34 229.299C1328.86 212.565 1355.29 199.804 1391.62 207.887C1421.95 214.551 1447.09 233.269 1477.9 238.658C1486.99 238.8 1496.56 238.658 1505.63 238.658C1513.92 239.226 1522.19 237.665 1529.97 235.253C1550.25 229.441 1569.21 220.932 1589.33 214.833C1607.49 209.161 1626.63 205.616 1645.93 205.05C1671.23 204.058 1696.54 207.887 1720.54 214.693C1748.44 222.35 1775.35 233.553 1804.39 237.807C1814.44 238.517 1824.99 237.807 1835.03 237.949C1841.85 237.807 1848.99 238.091 1855.8 237.807C1863.43 236.673 1871.05 235.113 1878.5 233.411C1900.57 228.165 1921.96 220.932 1943.86 215.401C2007.13 198.526 2067.94 201.08 2130.07 220.506" stroke="url(#paint10_linear_56_138)" stroke-width="1.86842"/>
<path d="M0.70929 210.01C127.539 212.281 254.532 210.862 381.037 202.212C461.32 197.391 542.089 189.024 622.534 194.981C665.188 197.815 706.546 208.594 747.417 219.371C757.959 221.924 769.149 224.334 779.853 225.894C787.153 226.178 795.262 225.894 802.723 226.036C810.021 226.036 817.967 226.036 825.267 226.036C837.43 224.76 849.433 220.93 860.784 217.245C910.414 198.667 952.097 180.799 1005.94 201.504C1026.38 208.594 1045.03 222.492 1066.92 225.61C1077.14 225.044 1088.66 226.886 1098.55 224.194C1132.77 212.281 1157.59 187.18 1198.13 192.429C1217.11 194.555 1233.65 203.772 1249.38 212.705C1258.3 217.527 1267.71 222.632 1277.93 225.186C1282.31 225.186 1287.66 225.186 1292.04 225.186C1330.96 228.164 1353.67 183.211 1417.9 192.711C1452.28 197.815 1480.98 217.811 1514.89 224.476C1527.86 224.9 1540.99 224.618 1553.82 224.476C1587.7 217.951 1617.55 200.653 1651.6 194.555C1686.32 187.606 1722.97 190.584 1756.55 200.51C1781.36 207.6 1805.36 217.527 1830.82 222.632C1843.48 225.326 1856.77 223.624 1869.74 224.05C1874.77 224.05 1880.3 224.05 1885.32 224.05C1897.97 222.348 1910.45 219.087 1922.64 215.543C1946.63 208.452 1970.32 200.227 1995.11 195.405C2039.56 186.33 2086.76 189.024 2129.9 202.212" stroke="url(#paint11_linear_56_138)" stroke-width="1.86842"/>
<path d="M0.70929 201.929C111.158 204.34 221.77 204.908 332.057 199.377C410.88 195.831 489.052 186.331 567.715 180.799C616.37 177.821 665.999 177.113 714.006 186.047C744.172 191.294 772.88 201.221 802.56 208.31C814.238 211.43 826.564 212.422 838.729 211.998C848.783 211.572 859.812 212.848 869.705 211.146C892.41 206.608 913.17 196.541 934.579 188.883C961.99 178.531 993.454 174.277 1022.49 182.36C1048.11 188.883 1069.19 205.05 1094.98 211.572C1105.2 211.146 1116.23 212.422 1126.28 210.864C1157.1 201.221 1182.4 176.829 1217.11 177.68C1260.9 177.113 1286.53 213.273 1317.18 211.004C1322.69 211.004 1328.85 211.004 1334.37 211.004C1345.24 208.452 1355.45 203.063 1365.19 198.101C1422.28 165.485 1461.53 174.843 1518.94 199.659C1533.87 205.474 1549.76 211.856 1566.46 210.438C1579.11 210.154 1592.08 211.572 1604.08 207.46C1627.12 201.077 1648.52 190.868 1671.39 184.345C1720.04 170.023 1767.08 176.404 1813.47 193.563C1831.48 199.801 1849.47 206.326 1868.45 209.446C1877.21 210.012 1886.28 209.446 1895.21 209.586C1901.69 209.446 1908.34 209.728 1914.84 209.446C1927.18 207.46 1939.32 204.198 1951.02 200.511C1973.7 193.421 1995.93 185.196 2019.44 180.516C2055.93 173 2094.55 174.136 2130.22 183.92" stroke="url(#paint12_linear_56_138)" stroke-width="1.86842"/>
<path d="M0.70929 193.278C130.783 196.256 261.343 197.674 391.416 190.158C460.346 186.329 528.788 176.97 597.393 169.454C672.974 161.371 739.146 161.087 811.319 185.194C831.591 190.867 852.351 199.092 874.085 197.816C888.681 197.674 903.765 199.092 917.55 194.128C946.094 185.62 971.882 170.163 1001.89 165.484C1026.7 161.23 1052.81 165.341 1075.2 175.694C1089.63 182.075 1103.42 190.3 1118.66 195.404C1125.8 198.098 1134.23 196.964 1141.86 197.106C1145.26 197.106 1149.96 197.106 1153.37 197.106C1156.94 196.256 1161.48 194.696 1164.89 193.278C1188.4 183.351 1209.16 166.76 1235.76 163.782C1275.66 158.676 1298.37 182.359 1331.29 194.838C1335.34 196.54 1340.53 196.822 1344.91 196.54C1351.56 196.54 1358.7 196.54 1365.35 196.396C1385.62 191.009 1402.81 179.097 1422.11 171.723C1452.6 159.102 1488.77 160.237 1519.75 171.014C1535.81 176.403 1551.21 183.777 1567.11 189.448C1578.14 193.42 1589.66 196.964 1601.66 195.972C1610.09 195.972 1618.69 195.972 1627.12 195.972C1644.47 192.994 1660.86 186.187 1677.08 180.09C1709.35 167.043 1745.03 158.818 1780.87 163.073C1805.52 165.484 1828.88 173.708 1851.59 182.075C1861.8 185.763 1872.19 189.448 1882.89 192.144C1890.67 194.27 1898.79 195.83 1906.9 195.264C1918.23 195.12 1929.75 195.546 1940.95 194.98C1960.08 191.718 1978.26 184.911 1996.42 178.671C2039.71 162.789 2084.31 155.557 2130.39 166.334" stroke="url(#paint13_linear_56_138)" stroke-width="1.86842"/>
<path d="M0.70929 183.35C75.4774 185.195 150.408 185.478 225.176 185.052C296.375 185.052 367.738 184.769 438.938 180.656C513.544 177.111 586.853 164.349 660.648 154.847C707.357 149.459 755.526 147.331 801.587 156.974C835.16 163.214 865.976 178.529 899.873 183.634C937.662 183.634 941.393 185.904 976.586 170.872C1016.65 152.578 1055.08 140.383 1098.55 158.676C1117.04 166.051 1133.42 177.537 1152.88 182.783C1161.48 183.493 1170.72 182.926 1179.48 183.067C1194.73 181.365 1207.54 172.007 1220.51 165.483C1267.22 139.107 1297.55 146.907 1341.34 172.29C1365.35 185.195 1368.43 182.5 1395.19 182.5C1414 178.246 1430.22 167.894 1447.58 160.804C1479.05 146.907 1516.5 144.637 1549.76 155.273C1569.55 161.229 1587.87 170.872 1607.49 177.394C1612.84 179.096 1618.85 180.798 1624.36 181.933C1629.72 182.216 1635.71 181.933 1641.07 182.074C1649.18 181.791 1657.77 182.926 1665.88 181.224C1701.73 172.573 1733.51 152.863 1770.97 149.317C1814.76 144.07 1848.67 156.549 1887.75 171.722C1895.54 174.559 1903.48 177.253 1911.59 179.239C1917.11 180.656 1922.95 181.933 1928.61 181.507C1936.24 181.507 1944.03 181.507 1951.65 181.507C1957.16 181.507 1962.84 181.791 1968.04 180.231C1991.39 175.126 2012.96 165.199 2035.51 157.967C2065.51 148.04 2098.6 144.353 2130.07 150.026" stroke="url(#paint14_linear_56_138)" stroke-width="1.86842"/>
<path d="M0.70929 171.58C108.888 171.297 217.229 171.156 325.407 170.872C392.552 170.021 459.86 172.858 526.843 167.469C566.904 164.491 606.8 158.818 646.05 151.87C691.139 144.071 736.713 135.561 782.936 136.13C815.374 136.271 847.486 142.226 877.652 152.579C896.142 158.676 914.794 166.05 934.255 169.454C946.907 169.595 959.881 169.454 972.369 169.454C979.342 168.178 986.805 165.909 993.29 163.498C1034 147.332 1067.41 126.344 1114.28 139.532C1135.04 145.204 1152.56 157.259 1172.02 165.341C1175.26 166.617 1179.81 168.178 1183.38 169.028C1186.78 169.028 1191.32 169.028 1194.57 169.028C1201.86 168.745 1209.97 170.021 1216.95 167.326C1253.44 153.288 1276.31 128.046 1321.23 136.839C1348.64 142.085 1369.24 160.803 1395.52 168.178C1405.89 169.312 1417.74 168.602 1428.28 168.461C1438.33 166.05 1448.06 161.938 1457.31 157.825C1518.78 128.329 1556.56 126.203 1619.49 154.99C1631.82 160.237 1644.63 165.483 1658.1 168.035C1670.58 167.894 1683.39 168.461 1695.88 167.61C1723.13 161.796 1747.13 147.758 1773.89 140.384C1797.09 133.718 1822.22 132.016 1846.23 136.13C1870.39 139.958 1892.46 150.027 1914.84 158.676C1924.24 162.222 1934.13 165.483 1944.2 167.326C1951.02 167.61 1957.97 167.326 1964.79 167.469C1970.8 167.469 1976.95 167.61 1982.97 167.326C2000.14 164.207 2016.21 157.542 2032.26 151.303C2062.75 138.823 2096.32 130.174 2130.22 134.285" stroke="url(#paint15_linear_56_138)" stroke-width="1.86842"/>
<path d="M0.70929 157.4C181.061 156.975 361.411 156.549 541.602 156.266C586.365 156.975 631.129 151.16 674.756 143.219C715.14 135.845 755.201 125.918 796.396 122.94C834.024 119.821 872.788 123.509 907.982 135.987C927.768 142.51 947.23 151.019 967.992 155.131C976.101 155.698 985.02 155.273 993.129 155.414C1001.56 155.84 1010.16 155.131 1017.94 152.295C1037.57 146.056 1055.25 135.704 1074.71 128.896C1103.58 117.836 1137.15 119.254 1164.56 133.293C1175.91 138.539 1186.94 145.204 1198.46 150.168C1203 152.012 1208.35 154.138 1213.38 154.99C1216.62 154.99 1221.16 154.99 1224.41 154.99C1230.25 154.705 1237.06 155.557 1242.73 154.281C1259.6 149.175 1274.04 138.965 1289.61 131.591C1317.02 117.553 1348.48 117.694 1376.05 131.166C1392.43 138.539 1407.68 148.608 1425.36 153.572C1429.25 154.847 1434.28 154.422 1438.33 154.564C1445.63 154.564 1453.42 154.564 1460.71 154.564C1475.15 151.444 1488.61 145.347 1501.74 139.391C1541.31 120.388 1580.24 113.44 1623.22 129.039C1638.15 134.285 1652.41 141.376 1667.17 147.049C1673.99 149.742 1681.29 152.153 1688.59 153.572C1692.81 154.138 1697.67 153.713 1701.89 153.855C1709.67 153.713 1717.78 153.997 1725.41 153.713C1746.16 149.459 1764.82 139.674 1784.28 132.3C1806.65 123.366 1831.48 118.262 1856.29 120.105C1878.84 121.523 1900.08 129.039 1920.19 137.689C1930.41 141.943 1940.63 146.481 1951.33 149.742C1957.16 151.444 1963.33 153.713 1969.65 153.288C1980.2 153.146 1991.08 153.429 2001.6 153.146C2007.61 152.012 2013.61 150.31 2019.29 148.325C2057.07 134.852 2087.08 116.984 2130.55 119.254" stroke="url(#paint16_linear_56_138)" stroke-width="1.86842"/>
<path d="M0.70929 143.361C133.865 143.645 267.019 135.561 400.175 139.106C455.643 140.241 511.111 143.077 566.579 142.085C596.096 141.517 626.101 143.219 655.457 140.667C700.221 136.837 743.686 125.635 787.153 116.417C826.403 108.335 867.921 103.939 907.819 111.454C928.742 115.284 948.528 122.799 967.992 130.173C983.884 136.129 1000.43 142.51 1018.11 141.093C1024.76 141.093 1032.05 141.093 1038.54 141.093C1058.65 136.98 1076.33 126.627 1094.66 118.829C1121.91 106.207 1155.32 102.52 1183.54 114.432C1199.11 120.53 1213.05 129.605 1228.14 136.129C1232.52 137.972 1237.87 140.1 1242.73 140.667C1245.98 140.667 1250.36 140.667 1253.6 140.667C1258.14 140.667 1263.5 140.667 1268.04 140.667C1271.44 139.958 1275.66 138.539 1278.74 137.263C1294.63 130.74 1308.91 120.955 1324.8 114.291C1349.13 103.513 1378.65 104.506 1402.81 115.284C1423.09 123.225 1441.41 137.263 1463.96 140.1C1473.2 140.1 1482.94 140.1 1492.18 140.1C1507.59 138.115 1521.53 130.598 1535.48 124.642C1572.78 106.491 1610.58 99.1166 1651.44 113.582C1674.8 121.24 1695.72 135.42 1720.54 139.532C1730.75 139.532 1741.14 139.532 1751.35 139.532C1770.16 136.696 1786.87 127.479 1804.07 120.53C1826.6 110.745 1851.75 103.939 1877.21 105.641C1895.38 106.491 1913.05 111.738 1929.44 118.545C1946.79 125.635 1963.5 134.711 1982.31 138.823C1989.43 139.391 1996.91 138.823 2004.04 138.965C2009.7 138.682 2015.87 139.674 2021.55 137.972C2040.85 133.151 2058.06 124.075 2076.2 116.984C2093.24 110.178 2111.57 105.357 2130.39 104.931" stroke="url(#paint17_linear_56_138)" stroke-width="1.86842"/>
<path d="M0.70929 128.757C120.89 124.503 241.07 117.128 361.411 117.837C417.69 117.98 474.133 120.106 530.41 123.51C553.928 124.928 577.606 126.488 600.961 127.764C617.181 127.906 633.885 127.764 650.105 127.764C672.324 127.197 695.193 128.899 717.25 126.205C757.959 121.808 797.046 109.896 836.782 101.105C875.221 92.7378 916.416 89.6174 954.855 99.6863C970.748 103.657 986.156 109.896 1001.24 115.852C1013.08 120.249 1025.4 125.636 1038.38 127.055C1044.87 127.055 1052.17 127.055 1058.65 127.055C1063.68 126.914 1069.84 127.481 1074.71 125.921C1102.12 118.404 1124.99 100.962 1153.05 95.1488C1177.37 89.6174 1203.32 94.5806 1224.57 105.783C1237.71 112.307 1250.36 120.39 1264.47 125.07C1269.98 127.197 1276.63 126.346 1282.31 126.488C1289.28 126.346 1297.07 127.338 1303.56 124.36C1325.12 116.278 1343.29 101.814 1366 95.7157C1395.68 87.0653 1425.68 95.9992 1451.47 109.329C1460.55 113.724 1470.12 118.263 1479.85 121.808C1485.68 123.793 1492.18 126.346 1498.51 126.062C1507.59 126.062 1516.99 126.062 1526.08 126.062C1540.99 123.084 1554.79 116.136 1568.4 110.039C1603.6 92.7376 1640.25 85.3634 1679.01 98.977C1702.05 106.635 1722.32 120.39 1746.49 125.495C1757.35 125.353 1768.39 125.636 1779.24 125.353C1794.97 121.951 1809.25 114.86 1823.53 108.478C1845.58 98.2678 1870.08 90.1856 1895.38 91.4617C1912.57 92.0286 1929.27 96.566 1944.52 103.09C1961.22 110.039 1976.78 119.114 1994.64 123.936C2000.14 125.779 2006.47 124.928 2012.15 125.07C2019.12 124.786 2026.26 125.495 2033.23 124.644C2050.44 120.674 2066 112.449 2081.73 105.5C2096.81 98.836 2112.88 93.1635 2129.9 91.4617" stroke="url(#paint18_linear_56_138)" stroke-width="1.86842"/>
<path d="M0.70929 112.164C150.895 103.797 301.241 93.3038 451.749 97.9836C517.923 99.6843 583.933 105.783 649.779 111.738C670.377 114.007 691.464 113.581 712.385 113.44C731.035 113.015 750.175 114.574 768.663 112.022C832.728 104.223 892.898 73.1673 959.07 79.8312C982.588 81.8164 1004.97 89.3332 1026.05 98.1247C1039.19 103.514 1052.65 109.327 1066.76 112.305C1074.55 112.731 1082.98 112.448 1090.77 112.448C1100.33 113.298 1109.74 110.462 1118.34 106.917C1130.18 102.095 1141.69 95.8561 1153.21 90.6094C1193.59 71.3232 1227.65 75.5772 1264.95 97.5578C1276.15 103.088 1287.5 110.888 1300.47 112.022C1306.15 112.022 1312.47 112.022 1317.99 112.022C1321.23 112.022 1325.45 112.305 1328.37 111.029C1345.56 105.64 1360.32 95.2892 1376.54 88.0571C1402.65 75.1527 1434.6 74.7269 1461.85 85.5037C1483.91 93.1614 1503.37 106.775 1526.73 111.596C1534.67 111.596 1542.95 111.596 1550.89 111.596C1556.89 112.022 1563.22 110.603 1568.73 108.477C1609.61 93.1614 1636.36 71.0397 1685.18 78.8385C1701.89 81.5331 1717.46 88.3405 1732.22 95.4303C1745.03 101.386 1758 108.335 1772.44 111.029C1782.17 111.029 1792.23 111.029 1801.95 111.029C1816.72 108.477 1829.85 101.386 1842.98 95.4303C1864.56 84.9368 1888.41 75.8606 1913.7 76.8531C1930.58 77.1379 1947.11 81.8164 1962.02 88.4816C1977.75 95.2892 1992.51 104.223 2009.22 109.186C2013.95 111.029 2019.61 110.462 2024.63 110.462C2030.8 110.462 2037.28 110.462 2043.62 110.462C2056.9 108.76 2068.91 102.095 2080.74 96.8486C2096.47 89.3332 2112.54 81.6755 2130.22 78.2716" stroke="url(#paint19_linear_56_138)" stroke-width="1.86842"/>
<path d="M0.70929 94.8619C232.311 77.7033 466.996 63.097 697.787 95.5712C708.655 96.8471 720.17 98.1233 731.035 98.9749C743.361 99.4007 756.175 98.9749 768.338 99.1173C785.044 98.6914 802.237 100.251 818.78 97.2729C850.569 92.5931 880.897 81.8163 911.713 73.5917C961.503 60.1189 1007.89 60.9705 1054.44 82.3831C1068.71 88.3391 1082.98 95.1454 1098.55 98.2656C1103.58 98.2656 1109.42 98.2656 1114.28 98.2656C1119.15 98.2656 1124.99 98.2656 1129.85 98.2656C1139.26 96.4226 1148.51 92.4521 1156.94 88.4815C1184.67 74.442 1213.38 59.1264 1246.95 65.3671C1265.28 68.345 1281.5 77.4199 1297.07 85.9281C1305.82 90.6079 1315.07 95.2877 1324.96 97.8398C1329.34 97.9822 1334.53 97.8398 1338.75 97.8398C1342.97 97.8398 1348.16 97.8398 1352.53 97.8398C1360.81 95.8546 1368.92 92.1673 1376.38 88.3391C1405.89 72.3155 1432.17 58.9853 1468.34 64.9413C1490.72 68.2026 1510.35 78.8384 1529.97 88.0557C1538.41 91.8839 1547.48 95.8546 1556.89 97.4153C1562.57 97.4153 1568.89 97.4153 1574.57 97.4153C1579.27 97.2729 1584.62 97.8398 1589.16 96.8471C1602.47 93.4447 1614.79 87.2053 1626.79 81.5328C1645.61 72.3155 1666.04 63.9486 1688.09 63.2393C1705.3 62.389 1722.48 66.0748 1737.89 72.599C1754.75 79.5476 1770 89.3318 1787.51 95.0043C1794.33 97.6988 1802.12 96.7061 1809.42 96.8471C1814.12 96.8471 1819.14 96.8471 1823.85 96.8471C1827.75 96.4226 1832.13 94.8619 1835.86 93.5858C1866.82 81.6739 1893.43 61.6798 1929.27 62.6725C1945.17 62.6725 1960.73 66.9265 1974.86 73.1659C1989.28 79.5476 2002.59 87.9133 2017.5 93.4447C2020.41 94.5785 2023.98 95.5712 2026.91 96.2803C2029.17 96.4226 2032.26 96.2804 2034.54 96.4226C2041.34 96.4226 2048.31 96.4226 2055.13 96.4226C2066.32 95.1467 2076.54 89.4742 2086.44 84.9354C2100.53 77.9868 2114.49 70.4712 2130.07 66.2172" stroke="url(#paint20_linear_56_138)" stroke-width="1.86842"/>
<path d="M0.70929 77.5639C139.541 65.3685 278.859 56.8605 418.501 57.1439C483.701 57.1439 549.225 58.1366 614.263 63.5257C661.134 67.2129 707.68 74.586 754.065 81.251C764.609 82.6695 775.799 84.2291 786.503 84.9384C795.425 84.9384 804.993 84.9384 813.913 84.9384C828.836 84.5125 844.243 86.0732 858.841 83.6622C890.303 78.8413 919.82 67.3539 950.15 58.9883C985.02 49.2028 1023.62 46.6505 1058.33 58.1366C1076.17 63.8092 1092.87 72.4596 1110.23 79.1248C1117.53 81.6768 1125.64 84.7973 1133.75 84.2291C1142.5 83.9457 1152.07 84.7973 1160.67 83.6622C1201.7 71.7503 1227 42.3965 1275.82 51.4714C1304.37 56.2936 1325.29 76.7136 1352.7 83.6622C1361.62 83.6622 1370.86 83.6622 1379.78 83.6622C1384.16 82.8119 1389.19 80.9676 1393.24 79.2658C1428.92 62.8165 1453.25 44.523 1497.04 50.4787C1516.67 53.1734 1534.51 61.6814 1551.7 70.3318C1561.92 75.2951 1572.62 80.4007 1583.97 83.0954C1588.67 83.3788 1593.87 83.2364 1598.58 83.2364C1604.08 83.0954 1610.25 83.3788 1615.76 82.953C1624.68 80.8265 1633.29 77.1394 1641.4 73.3099C1659.23 64.8017 1676.75 54.8753 1696.7 50.9046C1719.4 46.0837 1743.56 49.9119 1764.01 59.5551C1777.95 65.7944 1790.92 73.8781 1805.36 79.4082C1810.55 81.3934 1816.39 83.2364 1822.06 82.6695C1829.04 82.6695 1836.34 82.6695 1843.32 82.6695C1859.37 80.1173 1873.31 70.9 1887.58 64.235C1903.8 56.0102 1921.65 49.0617 1940.63 48.4935C1965.59 47.0763 1988.63 57.7108 2009.07 69.3393C2019.12 74.3026 2029.34 80.8265 2041.02 82.2437C2050.27 81.9603 2059.67 82.6695 2068.75 81.9603C2090.81 75.8633 2108.81 62.1072 2130.07 54.4495" stroke="url(#paint21_linear_56_138)" stroke-width="1.86842"/>
<path d="M0.70929 60.2603C119.43 48.7744 238.798 41.4 358.332 40.124C440.074 39.1313 521.978 38.5645 603.719 42.1092C650.753 44.237 697.951 48.7744 744.172 56.5745C773.366 61.253 802.397 67.3514 831.917 70.4703C842.133 70.4703 853 70.4703 863.218 70.4703C871.813 70.4703 881.06 70.4703 889.817 70.4703C909.116 68.2017 927.931 62.8139 946.096 56.858C988.264 42.1092 1033.35 28.4955 1078.6 40.692C1104.88 47.0725 1127.26 62.2457 1153.21 69.1944C1164.07 70.4703 1176.56 69.7624 1187.59 69.4791C1214.03 62.6715 1235.11 44.8037 1261.71 38.281C1309.23 26.936 1331.78 49.9093 1370.05 66.3587C1376.21 69.1944 1383.35 69.4778 1390.16 69.1944C1396.65 68.9109 1403.79 69.9034 1410.11 68.4851C1428.76 63.0974 1444.82 52.3192 1462.5 45.0871C1491.53 32.1827 1526.08 31.19 1555.27 44.378C1572.94 51.6112 1588.84 62.3881 1607.49 67.7772C1613.82 69.6202 1620.95 68.4864 1627.44 68.7699C1631.98 68.6275 1637.02 68.9109 1641.56 68.4851C1647.23 67.0679 1653.07 64.9402 1658.42 62.6715C1672.36 56.5745 1685.51 48.6334 1699.77 42.8185C1736.6 27.5029 1768.71 34.1681 1801.63 53.3119C1812.18 58.9844 1822.87 64.9402 1834.71 68.0606C1838.44 68.4864 1842.66 68.2017 1846.39 68.2017C1851.75 68.2017 1857.26 68.2017 1862.61 68.2017C1871.7 66.4997 1879.96 62.2457 1887.92 58.4175C1905.6 49.3411 1922.95 38.7068 1943.39 35.3029C1962.84 31.7582 1983.28 35.3029 2000.47 43.8112C2015.72 50.902 2029.34 60.9696 2045.56 66.5011C2051.24 68.7699 2057.89 67.4937 2064.04 67.7772C2068.09 67.7772 2072.63 67.7772 2076.69 67.7772C2081.73 66.7845 2086.59 64.7991 2091.13 62.6715C2104.43 56.7156 2116.75 48.7744 2130.07 42.8185" stroke="url(#paint22_linear_56_138)" stroke-width="1.86842"/>
<path d="M0.70929 43.3856C86.0196 34.735 171.654 28.3534 257.613 26.0846C369.36 23.1066 481.431 22.8232 593.34 24.0994C641.996 24.9508 690.976 26.7938 739.146 33.1756C779.367 38.1388 818.78 47.7819 858.676 54.447C870.191 56.7158 882.356 56.5734 894.034 56.4324C905.549 56.29 917.389 56.5734 928.904 56.1476C983.075 48.0654 1029.3 15.7336 1086.55 22.6822C1119.47 25.3753 1146.23 43.9522 1176.24 54.0212C1183.21 56.5734 1191.48 55.5807 1198.94 55.7231C1204.94 55.4397 1211.92 56.4324 1217.6 54.588C1248.41 44.8039 1274.04 21.6895 1308.42 21.4048C1356.91 19.5618 1382.86 57.9919 1417.09 55.2973C1423.41 55.0138 1430.38 55.8642 1436.71 54.7304C1456.17 49.3413 1473.04 38.4223 1491.37 30.9068C1518.78 18.5692 1551.86 17.1507 1579.43 29.4884C1596.94 36.5793 1612.52 47.3561 1630.69 53.3119C1637.66 55.8642 1645.61 54.447 1653.07 54.7304C1656.47 54.7304 1660.7 54.7304 1664.09 54.7304C1671.88 53.3119 1679.18 49.9082 1686.15 46.6469C1700.43 39.6982 1714.05 31.3313 1729.3 26.0846C1751.83 17.7189 1778.44 18.7116 1800.01 28.9216C1816.88 36.2945 1831.64 47.4985 1849.31 53.3119C1852.72 54.7304 1857.26 54.447 1860.83 54.447C1866.02 54.447 1871.7 54.447 1876.88 54.447C1884.99 54.3046 1892.61 49.9082 1899.6 46.7893C1911.44 40.8333 1922.95 33.6014 1935.29 28.3534C1954.25 19.7042 1977.27 17.2931 1997.39 24.0994C2019.77 31.0478 2036.63 47.4985 2059.18 54.0212C2067.61 54.1622 2076.2 54.0212 2084.48 54.0212C2101.35 50.1916 2115.14 39.6982 2130.07 32.1829" stroke="url(#paint23_linear_56_138)" stroke-width="1.86842"/>
<path d="M0.70929 26.7934C120.728 13.4631 241.719 8.92565 362.547 8.92565C450.939 8.78327 539.332 8.3575 627.56 8.49985C675.567 8.92565 723.9 9.77593 771.421 15.7318C808.399 20.1282 844.405 28.7786 880.572 36.5776C896.304 39.9813 912.524 42.8168 928.742 41.8243C941.393 41.3985 954.69 42.6757 967.181 40.974C1014.38 32.3236 1056.55 4.10346 1106.33 7.5072C1141.69 8.49985 1167.97 26.651 1198.94 38.4204C1205.92 41.3985 1213.87 41.5408 1221.32 41.2574C1228.46 40.974 1236.57 42.1077 1243.38 39.9813C1273.71 30.0547 1299.01 7.22378 1332.91 6.94034C1372.65 5.09611 1396 30.6216 1430.22 40.5481C1440.77 41.115 1451.96 41.115 1462.5 40.4058C1482.94 35.1591 1500.29 23.5307 1519.43 15.7318C1549.42 2.54395 1582.68 3.39424 1611.55 18.4264C1627.12 25.8007 1641.56 35.8683 1658.9 40.2647C1667.98 40.2647 1677.24 40.2647 1686.32 40.2647C1710.64 34.4498 1729.3 17.5748 1753.14 10.3428C1774.86 2.82737 1799.85 5.09611 1819.96 15.3061C1834.23 21.9712 1846.87 31.4719 1861.48 37.4279C1863.27 38.137 1866.34 39.1296 1868.28 39.6965C1871.85 40.1223 1876.07 39.8389 1879.64 39.8389C1885.47 39.5555 1891.98 40.6905 1897.64 39.1296C1913.05 34.1664 1926.02 24.9491 1939.97 17.7171C1959.44 6.94034 1983.92 1.5513 2006.15 8.64092C2019.92 12.7539 2031.94 20.6951 2043.77 27.9272C2051.73 32.4646 2059.67 37.8535 2069.06 39.4131C2076.86 39.4131 2084.65 39.4131 2092.42 39.4131C2106.38 35.8683 2118.05 27.5014 2130.07 20.8375" stroke="url(#paint24_linear_56_138)" stroke-width="1.86842"/>
<path d="M0.70929 10.629C138.406 -5.53811 277.562 -6.38839 416.233 -4.96996C502.839 -4.11966 589.609 -5.53811 676.216 -6.10497C721.792 -6.10497 767.69 -5.53811 812.777 0.56017C849.108 5.09763 884.464 14.7407 919.985 22.8243C928.417 24.6672 937.337 26.3691 945.933 27.5042C961.34 27.6453 977.074 27.5042 992.644 27.5042C1043.41 20.5556 1082.66 -12.0609 1138.12 -6.53076C1154.18 -5.2534 1169.91 -0.432503 1184.19 6.09028C1198.95 12.6143 1213.22 20.9801 1229.11 25.6599C1234.79 27.6453 1241.6 26.795 1247.44 26.936C1253.28 26.795 1259.93 27.3618 1265.6 26.3691C1297.07 17.0094 1322.69 -7.23868 1357.56 -7.52341C1395.84 -9.36637 1420.33 15.0242 1453.42 25.5188C1457.15 26.936 1462.17 26.5115 1466.23 26.5115C1472.39 26.5115 1479.05 26.5115 1485.2 26.5115C1504.66 23.6745 1520.88 11.9051 1538.24 4.24734C1565.66 -9.50872 1597.93 -12.6277 1626.47 0.56017C1644.3 8.07559 1659.71 20.1298 1678.69 25.6599C1684.7 26.6526 1691.5 25.8023 1697.67 26.0857C1700.92 26.0857 1705.13 26.2268 1708.38 25.8023C1712.76 24.5261 1717.62 22.682 1721.67 20.839C1732.54 15.7334 1742.75 9.35168 1753.3 3.96392C1777.63 -9.36635 1806.65 -13.1946 1832.45 -0.715904C1846.87 5.80686 1859.21 15.3076 1873.48 21.9727C1876.88 23.3912 1880.93 25.2341 1884.67 25.6599C1889.7 25.6599 1895.21 25.6599 1900.4 25.6599C1912.88 26.795 1923.59 19.704 1933.64 14.1739C1957.97 -0.858277 1983.6 -15.3222 2014.58 -5.82154C2026.26 -2.41779 2036.63 3.96391 2046.38 10.3443C2052.7 14.4573 2059.35 18.7114 2066.17 21.9727C2070.05 23.6747 2074.28 25.8023 2078.65 25.3765C2085.13 25.3765 2091.78 25.3765 2098.27 25.3765C2110.11 22.8243 2120 15.7334 2129.9 9.91981" stroke="url(#paint25_linear_56_138)" stroke-width="1.86842"/>
<path d="M0.70929 -4.9687C68.0168 -12.6265 135.973 -17.4474 203.928 -18.8659C286.97 -20.8511 370.008 -18.5824 453.048 -17.7308C543.386 -16.1712 633.562 -19.0082 723.9 -20.5678C767.041 -20.9934 810.669 -20.4254 853.325 -14.186C889.169 -9.36511 923.551 1.55408 958.584 9.63766C977.721 14.742 997.832 12.7567 1017.46 13.0401C1040.49 12.3322 1061.73 1.83752 1082.66 -5.81898C1109.42 -16.7381 1139.26 -24.6795 1168.94 -20.4254C1200.57 -16.8805 1225.38 2.83017 1254.74 11.7641C1259.12 12.8991 1264.63 12.3322 1269.33 12.4733C1275.17 12.4733 1281.5 12.4733 1287.34 12.3322C1320.26 3.11489 1344.91 -21.8438 1381.73 -22.1272C1418.55 -23.8291 1444.17 -0.431225 1476.28 10.3469C1480.01 11.7641 1484.88 12.1898 1488.93 12.0488C1494.94 12.0488 1501.58 12.0488 1507.75 12.0488C1514.24 12.3322 1520.56 9.49529 1526.4 7.36892C1535.81 3.39831 1545.05 -1.70732 1553.98 -6.24479C1579.43 -20.2844 1609.61 -28.0831 1638.8 -17.5897C1652.57 -12.9099 1664.75 -5.25212 1677.08 1.69643C1686.8 6.94314 1697.19 12.899 1709.19 11.623C1715.18 11.4806 1721.67 11.9064 1727.67 11.1972C1743.88 6.37628 1757.52 -3.55025 1772.12 -11.208C1794.17 -23.5457 1821.58 -27.5163 1845.42 -16.4547C1858.39 -10.7822 1869.42 -2.41653 1881.59 4.24861C1886.28 6.94314 1891.64 9.35422 1897 10.9137C1900.57 10.9137 1904.62 10.9137 1908.02 10.9137C1912.25 10.9137 1916.94 10.9137 1921.16 10.9137C1926.52 9.49529 1931.87 7.0855 1936.57 4.53203C1962.21 -9.93197 1986.37 -29.9275 2019.61 -21.7014C2032.91 -18.5824 2044.25 -11.208 2054.98 -3.97605C2060.64 -0.147787 2066.65 3.82282 2072.8 6.94314C2075.4 8.36159 2078.82 9.63766 2081.73 10.488C2083.82 10.7714 2086.76 10.6303 2088.85 10.6303C2094.7 10.3469 2100.7 11.0548 2106.54 10.2045C2115.14 7.36894 2122.93 2.68909 2130.55 -1.99074" stroke="url(#paint26_linear_56_138)" stroke-width="1.86842"/>
</mask>
<g mask="url(#mask0_56_138)">
<path d="M1941.01 -24.8688C1941.01 -41.2642 1924.24 -54.5552 1903.56 -54.5552L945.529 -104L977.5 14.5L397 149.5L-120.5 164L-72.5774 15.1263L-155.923 -24.8688C-176.603 -24.8688 -193.368 -41.2642 -193.368 -24.8688V390.427C-193.368 406.823 -176.603 420.114 -155.923 420.114H1903.56C1924.24 420.114 1941.01 406.823 1941.01 390.427V-24.8688Z" fill="white"/>
</g>
</g>
</g>
<defs>
<linearGradient id="paint0_linear_56_138" x1="1065.38" y1="343.952" x2="1065.38" y2="380.274" gradientUnits="userSpaceOnUse">
<stop stop-color="#303030"/>
<stop offset="1" stop-color="#303030" stop-opacity="0"/>
</linearGradient>
<linearGradient id="paint1_linear_56_138" x1="1065.63" y1="330.109" x2="1065.63" y2="366.284" gradientUnits="userSpaceOnUse">
<stop stop-color="#303030"/>
<stop offset="1" stop-color="#303030" stop-opacity="0"/>
</linearGradient>
<linearGradient id="paint2_linear_56_138" x1="1065.46" y1="315.952" x2="1065.46" y2="352.311" gradientUnits="userSpaceOnUse">
<stop stop-color="#303030"/>
<stop offset="1" stop-color="#303030" stop-opacity="0"/>
</linearGradient>
<linearGradient id="paint3_linear_56_138" x1="1065.3" y1="302.484" x2="1065.3" y2="338.233" gradientUnits="userSpaceOnUse">
<stop stop-color="#303030"/>
<stop offset="1" stop-color="#303030" stop-opacity="0"/>
</linearGradient>
<linearGradient id="paint4_linear_56_138" x1="1065.46" y1="287.845" x2="1065.46" y2="324.221" gradientUnits="userSpaceOnUse">
<stop stop-color="#303030"/>
<stop offset="1" stop-color="#303030" stop-opacity="0"/>
</linearGradient>
<linearGradient id="paint5_linear_56_138" x1="1065.46" y1="274.133" x2="1065.46" y2="310.268" gradientUnits="userSpaceOnUse">
<stop stop-color="#303030"/>
<stop offset="1" stop-color="#303030" stop-opacity="0"/>
</linearGradient>
<linearGradient id="paint6_linear_56_138" x1="1065.46" y1="259.996" x2="1065.46" y2="296.292" gradientUnits="userSpaceOnUse">
<stop stop-color="#303030"/>
<stop offset="1" stop-color="#303030" stop-opacity="0"/>
</linearGradient>
<linearGradient id="paint7_linear_56_138" x1="1065.46" y1="246.207" x2="1065.46" y2="282.271" gradientUnits="userSpaceOnUse">
<stop stop-color="#303030"/>
<stop offset="1" stop-color="#303030" stop-opacity="0"/>
</linearGradient>
<linearGradient id="paint8_linear_56_138" x1="1065.38" y1="232.036" x2="1065.38" y2="268.19" gradientUnits="userSpaceOnUse">
<stop stop-color="#303030"/>
<stop offset="1" stop-color="#303030" stop-opacity="0"/>
</linearGradient>
<linearGradient id="paint9_linear_56_138" x1="1065.38" y1="217.835" x2="1065.38" y2="254.146" gradientUnits="userSpaceOnUse">
<stop stop-color="#303030"/>
<stop offset="1" stop-color="#303030" stop-opacity="0"/>
</linearGradient>
<linearGradient id="paint10_linear_56_138" x1="1065.38" y1="204.189" x2="1065.38" y2="240.261" gradientUnits="userSpaceOnUse">
<stop stop-color="#303030"/>
<stop offset="1" stop-color="#303030" stop-opacity="0"/>
</linearGradient>
<linearGradient id="paint11_linear_56_138" x1="1065.3" y1="190.082" x2="1065.3" y2="226.036" gradientUnits="userSpaceOnUse">
<stop stop-color="#303030"/>
<stop offset="1" stop-color="#303030" stop-opacity="0"/>
</linearGradient>
<linearGradient id="paint12_linear_56_138" x1="1065.46" y1="175.619" x2="1065.46" y2="212.09" gradientUnits="userSpaceOnUse">
<stop stop-color="#303030"/>
<stop offset="1" stop-color="#303030" stop-opacity="0"/>
</linearGradient>
<linearGradient id="paint13_linear_56_138" x1="1065.55" y1="161.212" x2="1065.55" y2="197.949" gradientUnits="userSpaceOnUse">
<stop stop-color="#303030"/>
<stop offset="1" stop-color="#303030" stop-opacity="0"/>
</linearGradient>
<linearGradient id="paint14_linear_56_138" x1="1065.38" y1="147.353" x2="1065.38" y2="185.226" gradientUnits="userSpaceOnUse">
<stop stop-color="#303030"/>
<stop offset="1" stop-color="#303030" stop-opacity="0"/>
</linearGradient>
<linearGradient id="paint15_linear_56_138" x1="1065.46" y1="133.251" x2="1065.46" y2="171.58" gradientUnits="userSpaceOnUse">
<stop stop-color="#303030"/>
<stop offset="1" stop-color="#303030" stop-opacity="0"/>
</linearGradient>
<linearGradient id="paint16_linear_56_138" x1="1065.63" y1="119.058" x2="1065.63" y2="157.4" gradientUnits="userSpaceOnUse">
<stop stop-color="#303030"/>
<stop offset="1" stop-color="#303030" stop-opacity="0"/>
</linearGradient>
<linearGradient id="paint17_linear_56_138" x1="1065.55" y1="104.931" x2="1065.55" y2="143.368" gradientUnits="userSpaceOnUse">
<stop stop-color="#303030"/>
<stop offset="1" stop-color="#303030" stop-opacity="0"/>
</linearGradient>
<linearGradient id="paint18_linear_56_138" x1="1065.3" y1="91.3283" x2="1065.3" y2="128.757" gradientUnits="userSpaceOnUse">
<stop stop-color="#303030"/>
<stop offset="1" stop-color="#303030" stop-opacity="0"/>
</linearGradient>
<linearGradient id="paint19_linear_56_138" x1="1065.46" y1="76.7795" x2="1065.46" y2="113.566" gradientUnits="userSpaceOnUse">
<stop stop-color="#303030"/>
<stop offset="1" stop-color="#303030" stop-opacity="0"/>
</linearGradient>
<linearGradient id="paint20_linear_56_138" x1="1065.38" y1="62.6362" x2="1065.38" y2="99.169" gradientUnits="userSpaceOnUse">
<stop stop-color="#303030"/>
<stop offset="1" stop-color="#303030" stop-opacity="0"/>
</linearGradient>
<linearGradient id="paint21_linear_56_138" x1="1065.38" y1="48.3667" x2="1065.38" y2="85.0482" gradientUnits="userSpaceOnUse">
<stop stop-color="#303030"/>
<stop offset="1" stop-color="#303030" stop-opacity="0"/>
</linearGradient>
<linearGradient id="paint22_linear_56_138" x1="1065.38" y1="33.9377" x2="1065.38" y2="70.4703" gradientUnits="userSpaceOnUse">
<stop stop-color="#303030"/>
<stop offset="1" stop-color="#303030" stop-opacity="0"/>
</linearGradient>
<linearGradient id="paint23_linear_56_138" x1="1065.38" y1="20.1649" x2="1065.38" y2="56.5009" gradientUnits="userSpaceOnUse">
<stop stop-color="#303030"/>
<stop offset="1" stop-color="#303030" stop-opacity="0"/>
</linearGradient>
<linearGradient id="paint24_linear_56_138" x1="1065.38" y1="5.43389" x2="1065.38" y2="42.0248" gradientUnits="userSpaceOnUse">
<stop stop-color="#303030"/>
<stop offset="1" stop-color="#303030" stop-opacity="0"/>
</linearGradient>
<linearGradient id="paint25_linear_56_138" x1="1065.3" y1="-8.86161" x2="1065.3" y2="27.5662" gradientUnits="userSpaceOnUse">
<stop stop-color="#303030"/>
<stop offset="1" stop-color="#303030" stop-opacity="0"/>
</linearGradient>
<linearGradient id="paint26_linear_56_138" x1="1065.63" y1="-23.6208" x2="1065.63" y2="13.1915" gradientUnits="userSpaceOnUse">
<stop stop-color="#303030"/>
<stop offset="1" stop-color="#303030" stop-opacity="0"/>
</linearGradient>
<clipPath id="clip0_56_138">
<rect width="1400" height="343" rx="40" fill="white"/>
</clipPath>
</defs>
</svg>
