<svg width="1400" height="308" viewBox="0 0 1400 308" fill="none" xmlns="http://www.w3.org/2000/svg">
<g opacity="0.55">
<g clip-path="url(#clip0_255_195)">
<mask id="mask0_255_195" style="mask-type:alpha" maskUnits="userSpaceOnUse" x="0" y="-24" width="1715" height="535">
<path d="M0.694153 334.697C68.4094 332.873 135.994 327.054 203.057 318.499C262.945 311.311 324.006 303.782 384.283 310.856C409.466 313.707 433.994 320.209 458.132 326.711C468.569 329.45 479.397 332.073 490.098 333.671C496.359 334.355 503.406 333.899 509.667 334.013C515.931 334.013 522.845 334.013 528.979 334.013C535.241 333.099 542.026 331.389 548.026 329.679C588.864 316.445 620.701 298.649 665.974 311.995C684.501 317.358 700.55 327.966 719.207 332.987C723.512 334.013 728.601 333.442 733.037 333.556C737.343 333.442 742.431 333.785 746.736 333.215C769.047 327.054 786.66 310.968 810.147 307.774C829.848 304.468 849.158 311.768 865.075 321.464C873.817 325.913 882.95 332.644 893.389 333.328C901.607 332.987 910.611 334.585 918.046 330.932C941.924 319.981 960.189 302.87 989.807 307.433C1011.07 310.284 1027.25 324.089 1046.56 331.161C1055.17 334.469 1064.96 332.53 1074.09 332.987C1084.66 332.189 1094.32 326.711 1103.84 322.948C1121.06 315.189 1139.46 308.801 1158.9 307.205C1212.66 302.527 1264.84 318.042 1317.43 325.571C1349.78 330.362 1382.53 333.099 1415.27 332.301C1454.55 332.073 1493.82 332.301 1533.1 331.959C1593.37 330.134 1653.52 327.852 1713.54 323.405" stroke="url(#paint0_linear_255_195)" stroke-width="1.50307"/>
<path d="M0.694153 324.204C28.0934 323.975 55.8841 324.432 83.2833 323.748C129.21 322.036 175.267 318.044 220.802 311.883C300.128 301.16 383.24 286.331 461.784 308.461C481.486 313.481 500.927 320.326 521.149 323.063C528.717 323.063 536.676 323.063 544.243 323.063C550.506 323.177 557.289 323.291 563.292 321.581C581.298 317.473 597.868 309.487 615.22 303.784C630.095 298.764 646.403 295.684 662.451 296.597C690.503 297.281 711.77 312.226 736.56 321.124C740.734 322.722 745.823 322.949 750.259 322.722C755.739 322.607 761.741 323.063 767.221 322.379C793.185 314.736 813.407 294.315 842.895 296.141C858.03 296.597 871.86 303.213 884.254 310.401C892.996 314.964 901.869 321.465 912.177 322.493C920.265 322.036 929.138 323.861 936.575 320.438C961.625 309.374 979.239 291.807 1010.29 296.597C1030.12 299.448 1045.78 311.199 1063.52 318.501C1066.79 319.869 1070.96 321.238 1074.48 322.036C1082.44 322.379 1090.79 322.036 1098.75 322.15C1111.8 319.983 1123.67 313.938 1135.94 309.487C1154.33 302.072 1174.3 297.623 1194.52 296.254C1252.96 291.807 1309.98 306.75 1367.26 314.05C1399.23 318.044 1431.58 321.352 1463.95 321.352C1511.05 321.124 1558.14 321.352 1605.25 320.897C1641.51 319.64 1677.66 317.701 1713.8 314.622" stroke="url(#paint1_linear_255_195)" stroke-width="1.50307"/>
<path d="M0.694153 313.135C35.7914 313.021 71.1494 313.021 106.246 312.907C141.344 313.364 176.702 312.337 211.668 308.458C278.73 302.298 344.62 284.957 412.466 285.871C439.865 286.098 467.134 290.206 493.098 297.735C511.103 302.755 529.108 309.143 547.766 311.995C555.203 312.109 563.162 311.995 570.599 311.995C590.43 313.25 608.436 304.123 626.179 297.506C666.104 280.851 698.2 280.737 736.299 300.815C744.91 304.921 754.044 309.484 763.698 311.539C769.047 311.539 775.18 311.539 780.529 311.539C783.66 311.652 787.706 311.425 790.576 310.284C803.362 306.062 814.583 298.533 826.717 292.83C845.113 283.475 868.337 281.878 887.387 290.662C902.129 296.594 914.525 307.66 930.573 311.082C939.575 310.741 949.492 312.566 957.711 308.345C982.11 296.935 1000.24 280.624 1030.51 284.957C1050.87 287.583 1067.31 299.561 1085.7 306.747C1089.88 308.345 1094.58 310.056 1099.14 310.625C1104.36 310.625 1109.97 310.625 1115.06 310.625C1127.98 311.652 1139.98 306.633 1151.72 302.755C1171.16 295.796 1191.39 289.863 1212.14 286.898C1276.59 277.543 1341.3 291.804 1404.84 300.131C1440.33 304.921 1476.07 308.115 1511.97 309.599C1544.31 310.056 1576.81 309.484 1609.15 309.599C1622.98 309.484 1636.96 309.599 1650.77 309.484C1671.92 308.572 1693.06 307.204 1714.07 305.378" stroke="url(#paint2_linear_255_195)" stroke-width="1.50307"/>
<path d="M0.694153 299.448C49.6214 301.158 98.6791 302.413 147.606 301.729C177.745 301.272 208.146 302.756 238.024 300.017C287.083 296.481 334.834 285.758 383.24 278.799C424.6 273.096 467.786 271.954 508.363 282.449C530.413 287.812 551.549 296.596 573.991 300.589C585.081 300.93 596.563 300.703 607.652 300.589C613.654 299.56 620.178 297.623 625.919 295.682C650.188 287.013 673.933 273.894 701.071 273.894C728.992 272.867 749.999 286.443 773.614 296.709C776.615 297.85 780.529 299.219 783.66 300.017C786.662 300.246 790.707 300.246 793.707 300.246C799.056 299.903 805.189 301.044 810.276 299.333C832.326 292.033 850.201 275.149 874.73 273.78C892.866 272.069 909.828 279.712 924.44 288.381C932.922 292.831 941.533 299.105 951.578 300.017C957.32 300.017 963.583 300.017 969.453 300.017C976.761 298.307 983.675 294.656 990.069 291.119C1017.08 274.806 1040.43 266.935 1072.14 279.255C1086.62 284.845 1099.93 293.06 1115.06 297.623C1122.5 300.36 1130.72 299.448 1138.68 299.56C1142.85 299.56 1147.42 299.56 1151.59 299.56C1155.77 299.105 1160.33 297.964 1164.38 297.052C1189.96 290.55 1214.74 281.423 1240.97 277.202C1300.07 267.278 1360.48 275.719 1419.07 283.705C1458.08 289.066 1497.09 294.086 1536.48 296.823C1566.75 299.448 1597.16 298.65 1627.57 298.65C1645.69 298.65 1663.82 298.534 1681.84 298.534C1692.39 297.964 1703.11 297.28 1713.68 296.366" stroke="url(#paint3_linear_255_195)" stroke-width="1.50307"/>
<path d="M0.69397 283.589C70.7578 285.414 140.691 291.575 210.754 290.548C237.11 290.093 263.857 291.575 290.212 288.952C334.052 285.187 376.715 274.577 420.033 267.846C459.306 261.915 500.665 260.888 539.155 271.611C559.638 276.973 579.21 285.414 600.086 289.408C607.261 290.093 615.089 289.522 622.265 289.636C628.267 289.75 634.79 289.75 640.532 287.926C662.582 281.993 682.021 269.787 704.594 265.109C725.469 260.431 747.911 263.399 766.699 272.295C777.92 277.315 788.617 283.703 800.361 287.697C805.448 289.75 811.452 289.179 816.801 289.293C823.455 289.522 830.369 289.408 836.371 286.556C852.55 279.826 866.641 268.76 884.125 264.539C918.308 256.325 936.182 274.92 963.582 287.012C967.105 288.609 971.41 289.293 975.454 288.952C980.153 288.952 985.372 288.952 990.069 288.952C1003.77 285.53 1015.12 276.973 1027.65 271.156C1049.04 259.976 1074.35 259.633 1096.79 268.646C1114.15 275.148 1130.46 284.844 1149.25 288.267C1154.99 288.836 1161.25 288.381 1167.12 288.495C1173.77 288.267 1180.69 288.951 1187.21 288.153C1207.17 284.844 1226.35 278.456 1245.92 273.436C1273.33 266.136 1301.77 262.256 1330.47 261.687C1407.45 259.976 1483 276.403 1559.19 283.475C1576.67 285.187 1594.15 286.556 1611.77 287.467C1624.17 287.467 1636.69 287.467 1649.09 287.354C1662.14 287.354 1675.18 287.354 1688.23 287.24C1696.84 287.126 1705.58 287.467 1714.07 286.669" stroke="url(#paint4_linear_255_195)" stroke-width="1.50307"/>
<path d="M0.69397 266.936C73.6282 268.875 146.432 274.122 219.236 278.571C254.201 280.169 289.298 279.026 324.265 279.026C369.149 276.175 412.205 264.083 456.173 256.554C492.184 250.621 530.283 249.709 565.642 259.52C585.864 264.883 605.043 273.667 625.788 277.887C632.833 278.914 640.532 278.116 647.708 278.343C655.014 278.685 662.58 278.116 669.236 275.605C690.632 268.875 709.682 256.668 732.254 252.905C751.954 249.252 772.7 253.017 790.054 261.689C801.013 266.707 811.45 273.21 823.194 276.973C828.151 278.799 834.153 277.887 839.502 278C844.853 278.116 850.722 278.228 855.55 275.947C873.686 268.76 888.951 255.756 909.044 252.333C940.619 246.515 958.755 264.653 984.196 275.72C992.155 279.256 1001.68 277.316 1010.29 277.773C1022.82 275.377 1033.38 267.734 1044.48 262.372C1063.13 251.991 1086.1 247.999 1107.62 253.246C1135.68 259.405 1160.07 277.659 1189.82 277.316C1200.39 277.089 1211.22 277.659 1221.79 276.973C1239.53 274.35 1256.76 269.216 1274.11 264.768C1296.81 258.721 1320.03 254.044 1343.65 251.991C1378.23 248.911 1413.07 250.052 1447.5 253.132C1508.7 258.722 1568.98 270.585 1630.3 275.263C1642.3 276.518 1654.43 276.289 1666.44 276.175C1682.22 276.175 1698.01 276.062 1713.8 276.062" stroke="url(#paint5_linear_255_195)" stroke-width="1.50307"/>
<path d="M0.694153 250.509C50.4042 251.649 100.375 253.474 149.955 256.897C192.098 259.635 234.241 263.856 276.253 266.936C294.78 268.646 313.698 267.962 332.355 267.962C349.056 267.619 366.279 268.76 382.849 266.593C417.163 262.829 450.173 253.36 483.704 246.629C516.452 240.241 551.289 238.074 584.036 245.717C607 250.736 628.007 261.346 650.84 266.593C657.754 268.076 665.451 267.05 672.498 267.278C675.759 267.278 679.935 267.278 683.197 267.278C687.763 266.479 692.982 264.882 697.288 263.399C719.859 255.185 740.996 241.609 766.177 240.582C795.273 238.529 814.974 253.131 839.242 263.969C842.112 265.109 845.896 266.479 848.896 267.05C851.767 267.05 855.681 267.05 858.552 267.05C863.64 266.936 869.642 267.62 874.469 265.795C895.475 258.152 912.829 241.952 936.444 240.47C965.148 237.845 983.415 256.213 1007.42 265.452C1010.81 266.936 1015.25 266.821 1018.9 266.821C1023.47 266.821 1028.56 266.821 1033.12 266.821C1046.3 263.399 1057.65 255.87 1069.53 250.28C1080.36 245.033 1092.49 241.039 1105.01 240.241C1147.42 236.704 1182.78 265.909 1224.26 266.479C1236.14 266.136 1248.14 267.05 1259.89 265.909C1288.98 261.346 1316.77 251.878 1345.74 246.629C1401.58 236.019 1459.64 238.302 1515.87 245.146C1566.24 251.192 1616.07 261.46 1666.83 265.338C1682.35 266.023 1698.02 265.338 1713.54 265.452" stroke="url(#paint6_linear_255_195)" stroke-width="1.50307"/>
<path d="M0.694153 235.106C82.1091 236.019 163.655 238.643 244.547 246.743C277.949 249.937 311.219 254.158 344.749 256.668C368.236 256.896 392.113 256.896 415.597 256.554C445.476 253.815 474.44 245.829 503.275 238.757C535.371 230.886 569.556 226.437 602.565 232.369C628.267 236.474 651.1 248.796 676.021 255.184C682.806 256.896 690.372 255.87 697.288 256.097C700.55 256.097 704.724 256.097 707.856 256.097C712.422 255.413 717.512 253.815 721.816 252.333C745.04 243.549 766.829 229.06 793.185 229.174C819.801 228.261 839.502 243.092 861.814 252.903C866.642 255.07 872.251 256.097 877.731 255.64C882.821 255.527 888.43 255.983 893.389 255.184C916.482 247.77 934.747 229.174 960.713 228.833C989.937 227.349 1007.94 247.541 1033.26 255.184C1037.69 255.527 1042.78 255.299 1047.34 255.299C1050.87 255.184 1055.17 255.754 1058.57 254.5C1072.27 250.28 1084.14 242.523 1097.06 237.045C1122.11 225.41 1151.72 226.779 1178.08 234.194C1196.22 238.986 1213.7 245.944 1231.97 250.621C1238.88 252.333 1246.18 254.044 1253.24 254.727C1257.02 254.727 1261.19 254.727 1264.97 254.727C1274.89 254.613 1284.93 254.956 1294.86 254.5C1309.98 252.446 1324.73 248.911 1339.48 245.26C1366.87 238.415 1394.54 232.141 1422.98 229.631C1461.08 226.094 1499.57 227.349 1537.53 231.455C1571.58 235.221 1605.25 241.723 1639.03 247.086C1656.26 249.823 1673.61 252.217 1691.1 253.701C1698.66 253.815 1706.24 253.701 1713.8 253.701" stroke="url(#paint7_linear_255_195)" stroke-width="1.50307"/>
<path d="M0.69397 221.189C75.7157 221.644 150.998 222.1 225.89 227.349C261.117 229.859 296.346 233.737 331.312 238.3C352.317 241.037 373.453 243.89 394.591 245.6C414.944 245.6 435.428 245.6 455.782 245.486C479.92 243.09 503.404 236.816 526.499 230.543C559.117 221.416 594.084 214.914 628.267 220.732C655.145 224.61 678.238 238.414 704.203 244.574C709.813 245.373 716.076 244.802 721.686 245.031C728.601 245.145 736.038 245.145 742.431 242.635C765.916 234.536 786.922 219.134 813.016 218.222C841.33 216.283 860.509 231.569 883.993 241.951C888.691 244.118 894.301 245.031 899.65 244.688C904.609 244.574 910.218 245.031 915.177 244.233C938.01 236.816 956.015 218.565 981.587 217.879C1011.47 215.94 1029.99 236.361 1055.83 244.118C1060.26 244.574 1065.22 244.233 1069.66 244.347C1075.14 244.46 1081.01 244.46 1086.1 242.292C1101.75 236.702 1115.84 227.69 1131.76 222.671C1161.12 213.203 1193.74 217.537 1222.7 226.322C1244.23 232.71 1265.49 240.924 1288.2 243.776C1294.07 243.89 1300.33 243.776 1306.33 243.776C1315.08 243.547 1324.21 244.118 1332.96 243.433C1348.87 241.266 1364.52 237.388 1380.18 233.622C1406.41 227.12 1433.02 221.189 1460.29 218.679C1505.95 214.23 1552.28 216.968 1597.28 224.383C1621.55 228.261 1645.56 233.395 1669.83 237.5C1684.32 239.783 1699.05 242.522 1713.8 242.863" stroke="url(#paint8_linear_255_195)" stroke-width="1.50307"/>
<path d="M0.69397 208.639C84.4573 208.753 168.351 207.955 251.984 212.518C289.692 214.572 327.398 218.564 364.713 224.154C389.503 227.69 414.422 232.025 439.343 234.307C449.911 234.421 461.003 234.307 471.571 234.307C479.268 234.193 487.617 234.421 495.316 234.078C515.147 231.798 534.457 226.664 553.246 221.186C585.341 211.492 619.656 203.506 653.709 208.867C680.456 212.29 703.159 226.208 728.601 232.937C731.732 233.85 735.777 233.736 739.038 233.623C744.519 233.623 750.65 233.623 756.261 233.623C765.785 232.825 774.787 228.261 783.269 224.496C795.011 218.906 806.885 212.633 819.67 209.323C839.111 203.961 860.378 207.155 877.731 216.168C889.082 221.645 899.781 228.831 912.177 232.709C917.003 233.964 922.613 233.166 927.571 233.28C930.311 233.28 933.965 233.394 936.704 232.937C939.575 232.139 943.229 230.77 945.838 229.629C964.103 221.074 980.673 207.841 1002.2 206.471C1034.82 203.734 1052.96 225.75 1080.88 232.937C1086.23 232.937 1091.84 232.937 1097.18 232.937C1101.62 233.166 1106.58 232.709 1110.63 231.113C1126.8 225.637 1141.55 216.853 1158.12 211.947C1189.96 202.137 1225.18 205.331 1256.63 214.686C1272.68 219.249 1288.33 224.839 1304.64 228.717C1314.69 231.227 1325.12 232.937 1335.55 232.366C1347.56 232.025 1360.09 233.052 1371.96 231.682C1405.23 226.549 1436.94 215.827 1470.08 210.578C1514.3 203.277 1559.97 203.619 1604.34 210.008C1641.26 215.141 1677 225.294 1713.8 230.313" stroke="url(#paint9_linear_255_195)" stroke-width="1.50307"/>
<path d="M0.69397 197.461C107.551 197.917 214.669 194.039 321.265 200.998C370.453 204.078 418.598 213.888 467.133 221.303C480.182 223.585 493.619 223.015 506.796 223.015C518.409 222.787 530.413 223.813 541.764 221.417C571.251 216.399 598.65 204.305 627.876 198.831C652.926 194.039 679.673 194.723 703.68 202.936C718.032 207.615 731.471 214.458 745.693 219.25C748.825 220.276 752.868 221.417 756.001 222.215C760.305 222.672 765.264 222.444 769.57 222.444C773.875 222.444 778.834 222.444 783.008 222.331C786.14 221.646 790.054 220.391 793.054 219.364C825.542 206.131 848.244 186.851 887.125 199.4C903.695 204.762 917.134 215.713 933.573 221.189C936.182 222.331 939.836 222.101 942.706 222.101C947.533 222.101 952.883 222.101 957.711 222.101C976.89 216.741 991.503 203.051 1010.81 197.804C1045.26 188.221 1066.13 206.131 1094.58 218.452C1097.84 219.705 1101.88 221.075 1105.28 221.76C1108.67 221.76 1112.58 221.76 1115.97 221.76C1121.06 221.532 1126.8 222.215 1131.89 221.303C1154.73 215.029 1175.21 202.936 1198.82 198.374C1228.7 191.643 1260.41 194.723 1289.37 203.166C1311.94 209.439 1333.87 217.768 1357.35 221.075C1366.35 221.76 1375.62 221.075 1384.62 221.303C1392.05 221.075 1399.75 221.76 1407.19 220.505C1434.99 216.17 1461.47 207.499 1488.86 202.025C1533.74 192.555 1580.85 191.643 1626.38 198.715C1655.87 203.166 1684.44 211.378 1713.8 216.968" stroke="url(#paint10_linear_255_195)" stroke-width="1.50307"/>
<path d="M0.69397 187.649C98.6789 187.879 196.795 184.912 294.78 185.595C331.703 186.052 368.758 187.536 405.29 192.212C436.734 195.977 467.526 202.936 498.578 208.412C506.276 209.667 514.364 211.035 522.192 211.72C528.456 211.72 535.371 211.72 541.504 211.72C551.549 211.378 562.118 212.404 572.034 210.922C595.127 207.271 616.656 198.601 638.706 192.212C677.195 180.577 712.814 181.946 748.825 198.944C759.784 203.506 770.875 209.096 782.877 211.265C788.226 211.265 794.228 211.265 799.579 211.265C817.715 212.291 835.719 198.373 851.898 191.871C872.512 182.289 897.564 181.375 918.177 191.414C930.573 196.891 941.793 204.875 954.711 209.553C962.146 212.063 970.757 210.465 978.587 210.806C987.198 209.781 994.764 204.99 1002.07 201.224C1012.9 195.179 1024.12 188.677 1036.65 185.711C1069.53 177.838 1091.44 195.179 1118.84 206.702C1123.8 208.412 1129.15 210.694 1134.63 210.465C1142.33 210.351 1150.29 210.579 1157.99 210.351C1180.69 205.446 1201.04 194.495 1223.48 188.791C1250.75 181.491 1280.24 181.832 1307.77 187.991C1325.51 191.871 1342.61 197.918 1359.96 202.822C1371.45 205.902 1383.18 209.324 1395.32 209.896C1409.14 209.553 1423.76 210.465 1437.33 209.439C1459.9 206.13 1481.69 199.4 1503.74 194.038C1548.88 182.289 1597.02 179.207 1643.35 186.85C1667.22 190.501 1690.32 197.118 1713.68 202.708" stroke="url(#paint11_linear_255_195)" stroke-width="1.50307"/>
<path d="M0.69397 179.092C91.242 179.549 181.92 177.382 272.468 174.872C324.789 173.845 377.369 172.59 429.428 177.723C465.96 181.031 501.579 189.815 537.328 197.003C549.983 199.742 562.64 200.881 575.687 200.311C585.602 199.969 596.041 200.995 605.695 199.513C624.614 196.319 642.62 189.36 660.494 183.427C697.157 170.535 733.689 168.598 769.309 185.139C781.312 190.272 793.316 196.548 806.362 199.626C810.538 199.969 815.366 199.742 819.54 199.854C823.715 199.854 828.543 199.969 832.588 199.626C839.242 198.03 846.027 195.063 852.028 192.211C874.469 180.462 897.172 168.141 924.44 174.415C938.922 177.495 951.318 185.368 963.843 191.984C969.323 194.836 975.456 197.801 981.587 199.399C985.241 199.513 989.676 199.399 993.33 199.399C996.983 199.285 1001.42 199.742 1004.94 198.828C1013.16 196.319 1020.73 192.097 1028.04 188.105C1057.78 170.194 1084.01 166.772 1116.5 182.172C1130.72 188.219 1147.16 198.828 1163.34 199.056C1169.21 199.056 1175.34 199.056 1181.21 199.056C1185.25 199.17 1189.83 199.056 1193.74 197.801C1210.69 193.695 1226.48 186.394 1243.05 181.147C1266.54 173.161 1292.25 170.194 1317.3 172.819C1354.34 176.013 1387.36 193.466 1424.02 198.485C1433.15 198.485 1442.29 198.485 1451.42 198.485C1457.69 198.372 1464.34 198.828 1470.47 197.574C1492.25 193.923 1513.14 187.078 1534.41 181.715C1574.06 171.221 1616.34 168.141 1657.18 174.643C1676.36 177.609 1695.01 182.743 1713.68 187.876" stroke="url(#paint12_linear_255_195)" stroke-width="1.50307"/>
<path d="M0.69397 171.681C95.5476 172.707 190.532 170.881 285.255 166.205C345.272 163.695 405.681 160.044 465.569 165.179C501.709 168.03 536.676 177.156 571.642 185.142C578.948 186.739 586.907 188.222 594.346 189.134C602.826 189.134 611.828 189.134 620.439 189.134C638.184 190.275 655.145 184.687 671.324 178.981C715.162 162.097 751.563 153.201 796.185 174.418C807.928 179.552 819.671 186.055 832.588 188.679C836.633 188.679 841.46 188.679 845.634 188.679C877.471 191.075 898.736 155.823 942.967 162.327C957.32 164.38 969.845 171.338 981.848 178.069C991.503 183.318 1001.94 189.706 1013.94 188.336C1017.6 188.336 1021.77 188.336 1025.43 188.336C1032.47 187.081 1039.26 183.545 1045.39 180.465C1069.13 167.003 1090.4 156.737 1119.63 163.24C1144.02 168.601 1164.25 183.659 1189.03 187.994C1196.35 188.108 1204.04 187.994 1211.34 187.994C1218.01 188.451 1224.66 187.195 1230.93 185.255C1247.23 180.579 1262.49 173.734 1278.68 168.828C1293.29 164.265 1308.68 161.413 1324.21 160.958C1344.56 160.16 1364.92 163.24 1384.23 168.715C1406.67 174.875 1428.32 183.887 1451.68 187.31C1459.77 187.881 1468.25 187.31 1476.33 187.424C1481.82 187.31 1487.56 187.538 1493.04 187.31C1499.18 186.397 1505.31 185.142 1511.3 183.773C1529.06 179.552 1546.27 173.734 1563.88 169.285C1614.78 155.709 1663.7 157.764 1713.68 173.391" stroke="url(#paint13_linear_255_195)" stroke-width="1.50307"/>
<path d="M0.694153 164.947C102.724 166.774 204.885 165.633 306.653 158.674C371.236 154.796 436.213 148.065 500.927 152.857C535.241 155.137 568.511 163.808 601.391 172.478C609.871 174.531 618.873 176.47 627.484 177.725C633.356 177.953 639.88 177.725 645.882 177.839C651.752 177.839 658.145 177.839 664.017 177.839C673.802 176.813 683.458 173.731 692.589 170.767C732.515 155.822 766.047 141.448 809.363 158.104C825.803 163.808 840.807 174.988 858.421 177.496C866.641 177.041 875.905 178.523 883.864 176.357C911.392 166.774 931.356 146.581 963.974 150.804C979.239 152.514 992.547 159.929 1005.2 167.115C1012.38 170.994 1019.95 175.101 1028.17 177.155C1031.69 177.155 1036 177.155 1039.52 177.155C1070.83 179.551 1089.1 143.388 1140.76 151.03C1168.42 155.137 1191.52 171.223 1218.79 176.584C1229.22 176.925 1239.79 176.698 1250.11 176.584C1277.37 171.335 1301.38 157.42 1328.77 152.514C1356.7 146.924 1386.18 149.319 1413.19 157.304C1433.15 163.008 1452.46 170.994 1472.94 175.101C1483.13 177.268 1493.82 175.899 1504.25 176.241C1508.3 176.241 1512.75 176.241 1516.79 176.241C1526.97 174.872 1537.01 172.249 1546.81 169.398C1566.11 163.694 1585.16 157.077 1605.11 153.198C1640.87 145.897 1678.84 148.065 1713.54 158.674" stroke="url(#paint14_linear_255_195)" stroke-width="1.50307"/>
<path d="M0.694153 158.446C89.546 160.385 178.528 160.842 267.25 156.393C330.66 153.54 393.547 145.898 456.827 141.448C495.969 139.052 535.893 138.483 574.513 145.67C598.78 149.89 621.875 157.876 645.751 163.579C655.145 166.089 665.061 166.887 674.847 166.546C682.935 166.203 691.808 167.23 699.766 165.861C718.032 162.21 734.732 154.111 751.954 147.951C774.006 139.623 799.318 136.201 822.672 142.703C843.287 147.951 860.247 160.956 880.993 166.203C889.213 165.861 898.084 166.887 906.174 165.634C930.964 157.876 951.317 138.254 979.239 138.939C1014.47 138.483 1035.08 167.571 1059.74 165.746C1064.18 165.746 1069.13 165.746 1073.57 165.746C1082.31 163.693 1090.53 159.358 1098.36 155.366C1144.29 129.128 1175.86 136.657 1222.05 156.62C1234.06 161.297 1246.84 166.432 1260.28 165.291C1270.45 165.063 1280.89 166.203 1290.54 162.895C1309.07 157.761 1326.29 149.548 1344.69 144.301C1383.83 132.778 1421.67 137.912 1458.99 151.715C1473.47 156.734 1487.95 161.983 1503.22 164.493C1510.27 164.948 1517.56 164.493 1524.74 164.606C1529.96 164.493 1535.31 164.72 1540.54 164.493C1550.46 162.895 1560.23 160.271 1569.64 157.305C1587.89 151.601 1605.77 144.984 1624.68 141.22C1654.04 135.174 1685.1 136.087 1713.8 143.958" stroke="url(#paint15_linear_255_195)" stroke-width="1.50307"/>
<path d="M0.694153 151.487C105.333 153.883 210.363 155.024 315.002 148.977C370.453 145.898 425.512 138.368 480.702 132.322C541.504 125.819 594.737 125.591 652.797 144.984C669.105 149.548 685.806 156.165 703.29 155.138C715.032 155.024 727.166 156.165 738.255 152.171C761.218 145.327 781.963 132.893 806.101 129.128C826.065 125.706 847.07 129.014 865.075 137.342C876.686 142.475 887.778 149.092 900.041 153.198C905.781 155.365 912.568 154.453 918.7 154.567C921.44 154.567 925.222 154.567 927.964 154.567C930.833 153.883 934.485 152.628 937.227 151.487C956.145 143.502 972.847 130.155 994.243 127.759C1026.34 123.652 1044.61 142.703 1071.09 152.742C1074.35 154.112 1078.53 154.339 1082.05 154.112C1087.4 154.112 1093.14 154.112 1098.49 153.996C1114.8 149.662 1128.63 140.08 1144.16 134.147C1168.68 123.994 1197.78 124.907 1222.7 133.577C1235.62 137.912 1248.01 143.844 1260.8 148.407C1269.67 151.602 1278.94 154.453 1288.59 153.655C1295.38 153.655 1302.29 153.655 1309.07 153.655C1323.03 151.259 1336.22 145.783 1349.26 140.878C1375.23 130.383 1403.93 123.766 1432.76 127.188C1452.59 129.128 1471.38 135.744 1489.65 142.475C1497.87 145.442 1506.22 148.407 1514.84 150.575C1521.09 152.285 1527.63 153.541 1534.15 153.085C1543.26 152.969 1552.53 153.312 1561.54 152.857C1576.93 150.233 1591.55 144.756 1606.16 139.737C1640.99 126.96 1676.87 121.143 1713.93 129.812" stroke="url(#paint16_linear_255_195)" stroke-width="1.50307"/>
<path d="M0.694153 143.501C60.8421 144.985 121.12 145.213 181.268 144.87C238.546 144.87 295.954 144.642 353.231 141.333C413.249 138.482 472.223 128.215 531.588 120.571C569.163 116.237 607.914 114.525 644.968 122.283C671.976 127.302 696.766 139.623 724.035 143.729C754.435 143.729 757.436 145.555 785.748 133.463C817.975 118.746 848.896 108.935 883.864 123.652C898.738 129.584 911.915 138.824 927.571 143.045C934.487 143.616 941.924 143.16 948.969 143.273C961.234 141.904 971.542 134.376 981.978 129.127C1019.55 107.909 1043.95 114.184 1079.18 134.603C1098.49 144.985 1100.97 142.817 1122.5 142.817C1137.63 139.395 1150.68 131.067 1164.64 125.364C1189.96 114.184 1220.09 112.358 1246.84 120.914C1262.76 125.705 1277.5 133.463 1293.29 138.71C1297.59 140.079 1302.42 141.448 1306.85 142.361C1311.16 142.589 1315.99 142.361 1320.3 142.475C1326.82 142.247 1333.74 143.16 1340.26 141.791C1369.09 134.832 1394.67 118.975 1424.8 116.122C1460.03 111.902 1487.3 121.94 1518.74 134.147C1525.01 136.429 1531.4 138.596 1537.92 140.193C1542.36 141.333 1547.06 142.361 1551.62 142.019C1557.75 142.019 1564.02 142.019 1570.15 142.019C1574.58 142.019 1579.15 142.247 1583.33 140.992C1602.12 136.885 1619.46 128.899 1637.61 123.081C1661.75 115.096 1688.37 112.13 1713.68 116.693" stroke="url(#paint17_linear_255_195)" stroke-width="1.50307"/>
<path d="M0.694153 134.033C87.7193 133.805 174.876 133.691 261.9 133.463C315.916 132.778 370.063 135.06 423.948 130.725C456.175 128.33 488.27 123.766 519.845 118.176C556.117 111.902 592.78 105.057 629.964 105.514C656.059 105.628 681.892 110.419 706.159 118.747C721.033 123.652 736.038 129.584 751.694 132.322C761.872 132.436 772.309 132.322 782.355 132.322C787.965 131.296 793.968 129.47 799.185 127.531C831.936 114.526 858.812 97.6421 896.52 108.251C913.22 112.815 927.311 122.512 942.967 129.013C945.577 130.04 949.231 131.296 952.101 131.98C954.84 131.98 958.494 131.98 961.103 131.98C966.974 131.752 973.498 132.778 979.109 130.611C1008.46 119.317 1026.86 99.0111 1063 106.085C1085.05 110.305 1101.62 125.363 1122.76 131.296C1131.11 132.208 1140.63 131.637 1149.11 131.524C1157.2 129.584 1165.03 126.276 1172.47 122.968C1221.92 99.2391 1252.32 97.5286 1302.94 120.687C1312.85 124.907 1323.16 129.128 1334 131.181C1344.04 131.068 1354.34 131.524 1364.39 130.839C1386.31 126.162 1405.62 114.869 1427.15 108.936C1445.81 103.574 1466.03 102.205 1485.34 105.514C1504.78 108.594 1522.53 116.694 1540.54 123.652C1548.1 126.504 1556.05 129.128 1564.15 130.611C1569.64 130.839 1575.23 130.611 1580.72 130.725C1585.56 130.725 1590.5 130.839 1595.34 130.611C1609.15 128.101 1622.08 122.74 1634.99 117.72C1659.52 107.681 1686.53 100.723 1713.8 104.03" stroke="url(#paint18_linear_255_195)" stroke-width="1.50307"/>
<path d="M0.69397 122.625C145.78 122.283 290.864 121.941 435.82 121.713C471.831 122.283 507.841 117.605 542.938 111.217C575.425 105.285 607.652 97.2991 640.792 94.9035C671.062 92.3943 702.246 95.3606 730.558 105.399C746.476 110.646 762.132 117.492 778.834 120.8C785.357 121.256 792.533 120.914 799.056 121.028C805.841 121.37 812.755 120.8 819.018 118.519C834.805 113.499 849.027 105.171 864.684 99.6948C887.908 90.7973 914.915 91.9383 936.965 103.232C946.1 107.452 954.971 112.814 964.234 116.807C967.888 118.29 972.194 120.001 976.238 120.686C978.848 120.686 982.501 120.686 985.11 120.686C989.807 120.457 995.287 121.142 999.852 120.116C1013.42 116.008 1025.03 107.795 1037.56 101.862C1059.61 90.5693 1084.92 90.6827 1107.1 101.521C1120.28 107.452 1132.54 115.552 1146.77 119.545C1149.9 120.572 1153.94 120.229 1157.2 120.344C1163.07 120.344 1169.34 120.344 1175.21 120.344C1186.82 117.833 1197.65 112.929 1208.21 108.137C1240.05 92.8503 1271.36 87.2606 1305.94 99.8094C1317.95 104.03 1329.42 109.734 1341.3 114.298C1346.78 116.464 1352.66 118.404 1358.53 119.545C1361.92 120.001 1365.83 119.659 1369.22 119.773C1375.49 119.659 1382.01 119.888 1388.14 119.659C1404.84 116.236 1419.85 108.365 1435.51 102.433C1453.5 95.2461 1473.47 91.1398 1493.43 92.6223C1511.57 93.7634 1528.66 99.8094 1544.84 106.768C1553.06 110.19 1561.28 113.841 1569.89 116.464C1574.58 117.833 1579.54 119.659 1584.62 119.317C1593.12 119.203 1601.86 119.431 1610.33 119.203C1615.17 118.29 1619.99 116.921 1624.56 115.324C1654.95 104.486 1679.09 90.1122 1714.07 91.9384" stroke="url(#paint19_linear_255_195)" stroke-width="1.50307"/>
<path d="M0.694153 111.331C107.812 111.559 214.929 105.056 322.049 107.908C366.67 108.821 411.292 111.102 455.913 110.305C479.659 109.848 503.796 111.217 527.413 109.164C563.423 106.083 598.389 97.0709 633.356 89.656C664.931 83.1542 698.331 79.6174 730.427 85.6632C747.259 88.7439 763.176 94.7899 778.834 100.722C791.619 105.513 804.927 110.646 819.149 109.506C824.498 109.506 830.369 109.506 835.59 109.506C851.767 106.198 865.989 97.8695 880.731 91.5957C902.652 81.4425 929.528 78.4763 952.231 88.059C964.756 92.9647 975.976 100.265 988.11 105.513C991.634 106.996 995.94 108.708 999.852 109.164C1002.46 109.164 1005.98 109.164 1008.6 109.164C1012.25 109.164 1016.55 109.164 1020.21 109.164C1022.95 108.593 1026.34 107.452 1028.82 106.426C1041.6 101.178 1053.09 93.3063 1065.87 87.9455C1085.44 79.2749 1109.19 80.0735 1128.63 88.7441C1144.94 95.1324 1159.68 106.426 1177.82 108.708C1185.25 108.708 1193.09 108.708 1200.52 108.708C1212.92 107.111 1224.13 101.064 1235.36 96.2725C1265.36 81.6705 1295.77 75.7382 1328.64 87.3749C1347.43 93.5352 1364.26 104.943 1384.23 108.251C1392.44 108.251 1400.8 108.251 1409.01 108.251C1424.15 105.97 1437.58 98.5546 1451.42 92.9647C1469.55 85.0927 1489.78 79.6174 1510.27 80.9864C1524.88 81.6705 1539.1 85.8912 1552.28 91.3677C1566.24 97.0709 1579.68 104.373 1594.81 107.68C1600.54 108.137 1606.55 107.68 1612.3 107.795C1616.85 107.567 1621.81 108.365 1626.38 106.996C1641.91 103.118 1655.75 95.8164 1670.34 90.112C1684.05 84.6368 1698.8 80.7584 1713.93 80.416" stroke="url(#paint20_linear_255_195)" stroke-width="1.50307"/>
<path d="M0.694153 99.5828C97.3744 96.1606 194.055 90.2283 290.864 90.7987C336.138 90.9133 381.545 92.6239 426.817 95.3621C445.736 96.5032 464.784 97.7578 483.573 98.7842C496.621 98.8988 510.058 98.7842 523.106 98.7842C540.981 98.3284 559.378 99.6974 577.122 97.5298C609.871 93.9931 641.315 84.4104 673.281 77.338C704.204 70.6071 737.343 68.0969 768.266 76.1969C781.051 79.3911 793.447 84.4104 805.581 89.2017C815.104 92.7385 825.02 97.0727 835.457 98.2138C840.676 98.2138 846.548 98.2138 851.767 98.2138C855.812 98.1004 860.769 98.5562 864.685 97.3018C886.735 91.2548 905.131 77.2235 927.702 72.5467C947.274 68.0969 968.148 72.0896 985.241 81.1017C995.809 86.3501 1005.99 92.8519 1017.34 96.6167C1021.77 98.3284 1027.12 97.6433 1031.69 97.7578C1037.3 97.6433 1043.56 98.4418 1048.78 96.0461C1066.13 89.5443 1080.75 77.9086 1099.01 73.0027C1122.89 66.0438 1147.03 73.2307 1167.77 83.9544C1175.08 87.49 1182.78 91.1413 1190.61 93.9931C1195.3 95.5901 1200.52 97.6433 1205.61 97.4153C1212.92 97.4153 1220.48 97.4153 1227.79 97.4153C1239.79 95.0195 1250.89 89.4298 1261.84 84.5249C1290.15 70.607 1319.64 64.6747 1350.82 75.6263C1369.35 81.7868 1385.66 92.8519 1405.1 96.9592C1413.84 96.8447 1422.72 97.0727 1431.45 96.8447C1444.11 94.1076 1455.59 88.4032 1467.08 83.2693C1484.82 75.0558 1504.53 68.554 1524.88 69.5805C1538.71 70.0366 1552.14 73.6868 1564.41 78.935C1577.85 84.5249 1590.37 91.8253 1604.73 95.7046C1609.15 97.1872 1614.25 96.5032 1618.82 96.6167C1624.43 96.3887 1630.17 96.9592 1635.77 96.2741C1649.62 93.081 1662.14 86.4636 1674.79 80.8737C1686.92 75.5129 1699.85 70.9495 1713.54 69.5805" stroke="url(#paint21_linear_255_195)" stroke-width="1.50307"/>
<path d="M0.69397 86.2335C121.512 79.5027 242.459 71.0611 363.538 74.8259C416.772 76.194 469.874 81.0998 522.845 85.891C539.415 87.7162 556.378 87.3736 573.208 87.2601C588.212 86.9176 603.609 88.1722 618.482 86.119C670.019 79.8452 718.424 54.8621 771.656 60.223C790.576 61.82 808.581 67.867 825.541 74.9393C836.109 79.2746 846.939 83.9514 858.29 86.347C864.552 86.6896 871.338 86.4616 877.6 86.4616C885.297 87.1456 892.865 84.8646 899.781 82.0128C909.306 78.1335 918.569 73.1143 927.833 68.8936C960.32 53.3786 987.719 56.8008 1017.73 74.4833C1026.73 78.9321 1035.86 85.2071 1046.3 86.119C1050.87 86.119 1055.96 86.119 1060.39 86.119C1063 86.119 1066.39 86.347 1068.74 85.3206C1082.57 80.9853 1094.45 72.6583 1107.49 66.8404C1128.5 56.4593 1154.2 56.1167 1176.12 64.7863C1193.87 70.9466 1209.52 81.8984 1228.31 85.7766C1234.71 85.7766 1241.36 85.7766 1247.75 85.7766C1252.57 86.119 1257.67 84.978 1262.1 83.2674C1294.99 70.9466 1316.51 53.1506 1355.79 59.4244C1369.22 61.5921 1381.75 67.0684 1393.62 72.7718C1403.93 77.5631 1414.36 83.1529 1425.98 85.3206C1433.8 85.3206 1441.9 85.3206 1449.72 85.3206C1461.6 83.2674 1472.16 77.5631 1482.73 72.7718C1500.09 64.3302 1519.27 57.0288 1539.62 57.8272C1553.19 58.0563 1566.5 61.82 1578.49 67.1819C1591.15 72.6583 1603.02 79.8452 1616.46 83.838C1620.26 85.3206 1624.82 84.8645 1628.86 84.8645C1633.82 84.8645 1639.03 84.8645 1644.13 84.8645C1654.82 83.4954 1664.48 78.1335 1674 73.9128C1686.65 67.867 1699.58 61.7066 1713.8 58.9684" stroke="url(#paint22_linear_255_195)" stroke-width="1.50307"/>
<path d="M0.694153 72.3154C187.009 58.512 375.803 46.7617 561.465 72.886C570.208 73.9124 579.471 74.939 588.212 75.6241C598.128 75.9666 608.436 75.6241 618.221 75.7386C631.659 75.3961 645.491 76.6507 658.799 74.255C684.372 70.4902 708.77 61.8207 733.56 55.2043C773.614 44.366 810.929 45.0511 848.376 62.2767C859.857 67.068 871.339 72.5434 883.864 75.0535C887.908 75.0535 892.606 75.0535 896.52 75.0535C900.434 75.0535 905.131 75.0535 909.045 75.0535C916.613 73.5709 924.05 70.3767 930.833 67.1826C953.145 55.8884 976.238 43.5676 1003.25 48.588C1017.99 50.9836 1031.04 58.284 1043.56 65.1285C1050.61 68.8932 1058.05 72.6579 1066 74.711C1069.53 74.8255 1073.7 74.711 1077.09 74.711C1080.49 74.711 1084.66 74.711 1088.18 74.711C1094.84 73.114 1101.36 70.1477 1107.36 67.068C1131.11 54.1777 1152.25 43.4541 1181.34 48.2454C1199.35 50.869 1215.14 59.4251 1230.93 66.84C1237.71 69.9197 1245.01 73.114 1252.58 74.3695C1257.15 74.3695 1262.23 74.3695 1266.8 74.3695C1270.58 74.255 1274.89 74.711 1278.54 73.9124C1289.24 71.1753 1299.16 66.156 1308.81 61.5927C1323.95 54.1777 1340.39 47.4468 1358.13 46.8763C1371.97 46.1922 1385.79 49.1573 1398.19 54.4057C1411.75 59.9957 1424.02 67.8666 1438.11 72.4299C1443.59 74.5975 1449.85 73.7989 1455.73 73.9124C1459.51 73.9124 1463.55 73.9124 1467.34 73.9124C1470.47 73.5709 1474 72.3154 1477 71.2888C1501.91 61.7061 1523.31 45.6217 1552.14 46.4202C1564.93 46.4202 1577.45 49.8424 1588.82 54.8618C1600.42 59.9957 1611.12 66.7255 1623.12 71.1753C1625.46 72.0874 1628.33 72.886 1630.69 73.4564C1632.51 73.5709 1634.99 73.4565 1636.83 73.5709C1642.3 73.5709 1647.9 73.5709 1653.39 73.5709C1662.39 72.5445 1670.61 67.9811 1678.58 64.3299C1689.91 58.74 1701.14 52.694 1713.68 49.2719" stroke="url(#paint23_linear_255_195)" stroke-width="1.50307"/>
<path d="M0.694153 58.3995C112.379 48.5888 224.454 41.7445 336.791 41.9725C389.242 41.9725 441.953 42.771 494.273 47.1063C531.979 50.0725 569.423 56.0039 606.739 61.3656C615.22 62.5068 624.222 63.7614 632.833 64.332C640.011 64.332 647.708 64.332 654.883 64.332C666.888 63.9894 679.283 65.2449 691.026 63.3054C716.336 59.4271 740.082 50.186 764.481 43.4561C792.533 35.5841 823.585 33.5309 851.506 42.771C865.858 47.3344 879.297 54.2933 893.258 59.6552C899.129 61.7082 905.652 64.2185 912.177 63.7614C919.222 63.5334 926.921 64.2185 933.835 63.3054C966.845 53.7227 987.198 30.1088 1026.47 37.4092C1049.43 41.2884 1066.27 57.7154 1088.32 63.3054C1095.49 63.3054 1102.93 63.3054 1110.1 63.3054C1113.63 62.6213 1117.67 61.1376 1120.93 59.7686C1149.64 46.5358 1169.21 31.8194 1204.43 36.6106C1220.22 38.7783 1234.58 45.6227 1248.4 52.5816C1256.63 56.5743 1265.23 60.6816 1274.37 62.8493C1278.15 63.0773 1282.33 62.9628 1286.11 62.9628C1290.54 62.8493 1295.51 63.0773 1299.94 62.7348C1307.11 61.0241 1314.04 58.058 1320.56 54.9773C1334.91 48.1328 1349 40.1474 1365.05 36.9531C1383.31 33.0749 1402.75 36.1545 1419.2 43.9122C1430.41 48.9314 1440.85 55.4344 1452.46 59.8832C1456.63 61.4802 1461.34 62.9628 1465.9 62.5068C1471.51 62.5068 1477.39 62.5068 1483 62.5068C1495.92 60.4536 1507.13 53.0387 1518.61 47.6769C1531.66 41.0604 1546.01 35.4707 1561.28 35.0136C1581.36 33.8735 1599.89 42.4285 1616.34 51.7831C1624.43 55.7759 1632.65 61.0241 1642.04 62.1642C1649.48 61.9362 1657.04 62.5068 1664.35 61.9362C1682.1 57.0314 1696.57 45.9652 1713.68 39.8049" stroke="url(#paint24_linear_255_195)" stroke-width="1.50307"/>
<path d="M0.694153 44.4796C96.2001 35.2397 192.227 29.3072 288.387 28.2808C354.145 27.4822 420.034 27.0261 485.791 29.8778C523.628 31.5895 561.597 35.2397 598.78 41.5145C622.265 45.2782 645.62 50.1841 669.367 52.6931C677.586 52.6931 686.328 52.6931 694.548 52.6931C701.462 52.6931 708.901 52.6931 715.945 52.6931C731.471 50.8681 746.607 46.5339 761.219 41.7425C795.142 29.8778 831.414 18.9261 867.815 28.7377C888.952 33.8705 906.957 46.0768 927.833 51.6667C936.575 52.6931 946.621 52.1236 955.492 51.8958C976.761 46.4193 993.721 32.0453 1015.12 26.7981C1053.35 17.6715 1071.48 36.1526 1102.27 49.3855C1107.23 51.6667 1112.97 51.8947 1118.45 51.6667C1123.67 51.4387 1129.41 52.2371 1134.5 51.0961C1149.51 46.7619 1162.42 38.0913 1176.64 32.2734C1200 21.8923 1227.79 21.0937 1251.28 31.7029C1265.49 37.5218 1278.28 46.1913 1293.29 50.5266C1298.38 52.0092 1304.11 51.0972 1309.33 51.3252C1312.98 51.2107 1317.04 51.4387 1320.69 51.0961C1325.25 49.956 1329.95 48.2444 1334.26 46.4193C1345.47 41.5145 1356.05 35.1262 1367.52 30.4483C1397.15 18.1275 1422.98 23.4894 1449.46 38.8899C1457.95 43.4532 1466.55 48.2444 1476.07 50.7546C1479.08 51.0972 1482.47 50.8681 1485.47 50.8681C1489.78 50.8681 1494.21 50.8681 1498.52 50.8681C1505.83 49.499 1512.48 46.0768 1518.88 42.9971C1533.1 35.6955 1547.06 27.1407 1563.51 24.4024C1579.15 21.5508 1595.6 24.4024 1609.42 31.2469C1621.69 36.9512 1632.65 45.0502 1645.69 49.5C1650.26 51.3252 1655.61 50.2986 1660.56 50.5266C1663.82 50.5266 1667.47 50.5266 1670.73 50.5266C1674.79 49.728 1678.7 48.1309 1682.35 46.4193C1693.06 41.628 1702.96 35.2397 1713.68 30.4483" stroke="url(#paint25_linear_255_195)" stroke-width="1.50307"/>
<path d="M0.694153 30.9058C69.3228 23.9467 138.212 18.813 207.363 16.9878C297.259 14.5922 387.415 14.3642 477.442 15.3908C516.583 16.0758 555.986 17.5584 594.737 22.6923C627.093 26.685 658.799 34.4425 690.894 39.8043C700.157 41.6294 709.944 41.5149 719.338 41.4014C728.601 41.2869 738.126 41.5149 747.39 41.1724C790.968 34.6705 828.151 8.6609 874.209 14.2507C900.695 16.4173 922.222 31.3617 946.36 39.4617C951.971 41.5149 958.625 40.7163 964.626 40.8309C969.453 40.6028 975.064 41.4014 979.63 39.9177C1004.42 32.0468 1025.03 13.4522 1052.7 13.2231C1091.71 11.7406 1112.58 42.656 1140.11 40.4883C1145.2 40.2603 1150.81 40.9443 1155.9 40.0323C1171.56 35.697 1185.12 26.9131 1199.87 20.8671C1221.92 10.942 1248.53 9.80095 1270.71 19.7261C1284.8 25.4304 1297.33 34.1 1311.94 38.8911C1317.56 40.9443 1323.95 39.8043 1329.95 40.0323C1332.68 40.0323 1336.09 40.0323 1338.82 40.0323C1345.08 38.8912 1350.95 36.153 1356.57 33.5294C1368.05 27.9395 1379.01 21.2086 1391.27 16.9878C1409.4 10.258 1430.8 11.0566 1448.16 19.2701C1461.73 25.2014 1473.6 34.2145 1487.82 38.8911C1490.56 40.0323 1494.21 39.8043 1497.09 39.8043C1501.26 39.8043 1505.83 39.8043 1510 39.8043C1516.52 39.6897 1522.65 36.153 1528.27 33.6439C1537.8 28.8526 1547.06 23.0348 1556.98 18.813C1572.24 11.8551 1590.76 9.91546 1606.94 15.3908C1624.95 20.9806 1638.51 34.2145 1656.65 39.4617C1663.43 39.5752 1670.34 39.4617 1677 39.4617C1690.57 36.381 1701.67 27.9395 1713.68 21.8937" stroke="url(#paint26_linear_255_195)" stroke-width="1.50307"/>
<path d="M0.694153 17.5569C97.244 6.83324 194.576 3.18304 291.778 3.18304C362.885 3.06851 433.994 2.72599 504.97 2.84051C543.59 3.18304 582.472 3.86706 620.701 8.65836C650.448 12.1951 679.413 19.1539 708.508 25.4279C721.164 28.166 734.212 30.4471 747.259 29.6487C757.436 29.3061 768.133 30.3336 778.182 28.9646C816.149 22.0057 850.072 -0.696211 890.125 2.04196C918.569 2.84051 939.706 17.4424 964.626 26.9104C970.237 29.3061 976.63 29.4207 982.63 29.1926C988.372 28.9646 994.897 29.8767 1000.38 28.166C1024.77 20.1805 1045.13 1.81396 1072.4 1.58594C1104.36 0.102334 1123.15 20.6366 1150.68 28.6221C1159.16 29.0781 1168.16 29.0781 1176.64 28.5075C1193.09 24.2868 1207.04 14.9322 1222.44 8.65836C1246.57 -1.95077 1273.33 -1.26675 1296.55 10.826C1309.07 16.7584 1320.69 24.8573 1334.65 28.3941C1341.95 28.3941 1349.39 28.3941 1356.7 28.3941C1376.27 23.7162 1391.27 10.1409 1410.45 4.32307C1427.93 -1.72277 1448.03 0.102338 1464.21 8.31582C1475.68 13.6777 1485.86 21.3206 1497.61 26.1119C1499.05 26.6824 1501.52 27.4809 1503.08 27.937C1505.95 28.2795 1509.35 28.0515 1512.22 28.0515C1516.91 27.8235 1522.14 28.7366 1526.7 27.4809C1539.1 23.4882 1549.53 16.0733 1560.76 10.2554C1576.42 1.58594 1596.11 -2.74932 1613.99 2.95399C1625.07 6.26271 1634.74 12.6511 1644.25 18.469C1650.65 22.1192 1657.04 26.4543 1664.6 27.709C1670.87 27.709 1677.14 27.709 1683.39 27.709C1694.62 24.8573 1704.01 18.1264 1713.68 12.7656" stroke="url(#paint27_linear_255_195)" stroke-width="1.50307"/>
<path d="M0.694153 4.55358C111.465 -8.45224 223.411 -9.13625 334.966 -7.99518C404.638 -7.31115 474.44 -8.45223 544.112 -8.90825C580.776 -8.90825 617.699 -8.45224 653.969 -3.54642C683.197 0.103786 711.639 7.86126 740.214 14.3642C746.997 15.8467 754.173 17.2159 761.089 18.129C773.483 18.2425 786.14 18.129 798.665 18.129C839.502 12.5391 871.077 -13.6995 915.699 -9.25078C928.616 -8.2232 941.272 -4.34498 952.754 0.902329C964.626 6.15068 976.107 12.8806 988.894 16.6453C993.46 18.2425 998.942 17.5584 1003.64 17.6719C1008.33 17.5584 1013.68 18.0144 1018.25 17.2159C1043.56 9.68635 1064.18 -9.82028 1092.23 -10.0493C1123.02 -11.5319 1142.72 8.08928 1169.34 16.5318C1172.34 17.6719 1176.38 17.3304 1179.64 17.3304C1184.6 17.3304 1189.96 17.3304 1194.91 17.3304C1210.56 15.0481 1223.61 5.58015 1237.58 -0.580237C1259.63 -11.6464 1285.59 -14.1556 1308.55 -3.54642C1322.9 2.49943 1335.3 12.1965 1350.56 16.6453C1355.4 17.4439 1360.87 16.7598 1365.83 16.9878C1368.44 16.9878 1371.83 17.1013 1374.45 16.7598C1377.97 15.7332 1381.88 14.2497 1385.14 12.7671C1393.89 8.65981 1402.1 3.526 1410.58 -0.808239C1430.15 -11.5319 1453.5 -14.6116 1474.25 -4.57297C1485.86 0.674335 1495.78 8.31729 1507.26 13.6791C1510 14.8202 1513.26 16.3027 1516.26 16.6453C1520.31 16.6453 1524.74 16.6453 1528.92 16.6453C1538.96 17.5584 1547.57 11.854 1555.66 7.40525C1575.23 -4.6875 1595.85 -16.3231 1620.77 -8.68025C1630.17 -5.94207 1638.51 -0.808247 1646.35 4.32453C1651.44 7.63325 1656.79 11.0555 1662.27 13.6791C1665.4 15.0483 1668.8 16.7598 1672.31 16.4173C1677.53 16.4173 1682.88 16.4173 1688.09 16.4173C1697.62 14.3642 1705.58 8.65981 1713.54 3.98303" stroke="url(#paint28_linear_255_195)" stroke-width="1.50307"/>
<path d="M0.694153 -7.99412C54.8403 -14.1545 109.508 -18.0327 164.175 -19.1738C230.979 -20.7708 297.78 -18.9458 364.582 -18.2607C437.256 -17.0061 509.798 -19.2884 582.472 -20.543C617.177 -20.8854 652.274 -20.4284 686.589 -15.4091C715.424 -11.5309 743.083 -2.74681 771.266 3.75611C786.66 7.86234 802.839 6.26524 818.626 6.49326C837.154 5.92376 854.246 -2.51879 871.077 -8.67814C892.606 -17.4621 916.611 -23.8506 940.489 -20.4284C965.931 -17.5767 985.893 -1.72024 1009.51 5.4667C1013.03 6.37977 1017.47 5.92375 1021.25 6.03723C1025.95 6.03723 1031.04 6.03724 1035.73 5.92376C1062.22 -1.4912 1082.05 -21.5694 1111.67 -21.7974C1141.29 -23.1666 1161.9 -4.3439 1187.73 4.32666C1190.74 5.46671 1194.65 5.80924 1197.91 5.69576C1202.74 5.69576 1208.08 5.69576 1213.05 5.69576C1218.27 5.92376 1223.35 3.64158 1228.05 1.931C1235.62 -1.2632 1243.05 -5.37047 1250.23 -9.02068C1270.71 -20.315 1294.99 -26.5888 1318.47 -18.1472C1329.55 -14.3825 1339.35 -8.22212 1349.26 -2.63229C1357.09 1.58848 1365.44 6.37976 1375.1 5.35321C1379.92 5.23869 1385.14 5.58123 1389.96 5.01068C1403.01 1.13246 1413.97 -6.85304 1425.72 -13.0134C1443.46 -22.9386 1465.51 -26.1327 1484.69 -17.2341C1495.12 -12.6709 1504 -5.94101 1513.78 -0.579166C1517.56 1.58848 1521.87 3.52809 1526.18 4.78266C1529.06 4.78266 1532.32 4.78266 1535.05 4.78266C1538.45 4.78266 1542.22 4.78266 1545.62 4.78266C1549.93 3.64158 1554.23 1.703 1558.02 -0.351164C1578.64 -11.9869 1598.08 -28.0724 1624.82 -21.4549C1635.52 -18.9458 1644.64 -13.0134 1653.27 -7.19557C1657.82 -4.11589 1662.66 -0.9217 1667.61 1.58848C1669.7 2.72956 1672.45 3.75611 1674.79 4.44014C1676.48 4.66814 1678.84 4.55466 1680.52 4.55466C1685.22 4.32666 1690.05 4.89616 1694.75 4.21214C1701.67 1.93101 1707.94 -1.83374 1714.07 -5.59847" stroke="url(#paint29_linear_255_195)" stroke-width="1.50307"/>
</mask>
<g mask="url(#mask0_255_195)">
<path d="M1714 84.5706C1714 72.5065 1700.54 62.7265 1683.93 62.7265L897 -19L483 98L237.5 129.5L96.9998 114L30.0692 84.5706C13.4623 84.5706 -0.000183105 72.5065 -0.000183105 84.5706V390.156C-0.000183105 402.22 13.4623 412 30.0692 412H1683.93C1700.54 412 1714 402.22 1714 390.156V84.5706Z" fill="white"/>
</g>
</g>
</g>
<defs>
<linearGradient id="paint0_linear_255_195" x1="857.117" y1="306.342" x2="857.117" y2="334.697" gradientUnits="userSpaceOnUse">
<stop stop-color="#303030"/>
<stop offset="1" stop-color="#303030" stop-opacity="0"/>
</linearGradient>
<linearGradient id="paint1_linear_255_195" x1="857.246" y1="295.442" x2="857.246" y2="324.204" gradientUnits="userSpaceOnUse">
<stop stop-color="#303030"/>
<stop offset="1" stop-color="#303030" stop-opacity="0"/>
</linearGradient>
<linearGradient id="paint2_linear_255_195" x1="857.378" y1="283.832" x2="857.378" y2="313.135" gradientUnits="userSpaceOnUse">
<stop stop-color="#303030"/>
<stop offset="1" stop-color="#303030" stop-opacity="0"/>
</linearGradient>
<linearGradient id="paint3_linear_255_195" x1="857.181" y1="272.699" x2="857.181" y2="301.919" gradientUnits="userSpaceOnUse">
<stop stop-color="#303030"/>
<stop offset="1" stop-color="#303030" stop-opacity="0"/>
</linearGradient>
<linearGradient id="paint4_linear_255_195" x1="857.378" y1="261.562" x2="857.378" y2="290.663" gradientUnits="userSpaceOnUse">
<stop stop-color="#303030"/>
<stop offset="1" stop-color="#303030" stop-opacity="0"/>
</linearGradient>
<linearGradient id="paint5_linear_255_195" x1="857.246" y1="250.174" x2="857.246" y2="279.423" gradientUnits="userSpaceOnUse">
<stop stop-color="#303030"/>
<stop offset="1" stop-color="#303030" stop-opacity="0"/>
</linearGradient>
<linearGradient id="paint6_linear_255_195" x1="857.117" y1="239.339" x2="857.117" y2="268.097" gradientUnits="userSpaceOnUse">
<stop stop-color="#303030"/>
<stop offset="1" stop-color="#303030" stop-opacity="0"/>
</linearGradient>
<linearGradient id="paint7_linear_255_195" x1="857.246" y1="227.563" x2="857.246" y2="256.826" gradientUnits="userSpaceOnUse">
<stop stop-color="#303030"/>
<stop offset="1" stop-color="#303030" stop-opacity="0"/>
</linearGradient>
<linearGradient id="paint8_linear_255_195" x1="857.246" y1="216.531" x2="857.246" y2="245.6" gradientUnits="userSpaceOnUse">
<stop stop-color="#303030"/>
<stop offset="1" stop-color="#303030" stop-opacity="0"/>
</linearGradient>
<linearGradient id="paint9_linear_255_195" x1="857.246" y1="205.159" x2="857.246" y2="234.358" gradientUnits="userSpaceOnUse">
<stop stop-color="#303030"/>
<stop offset="1" stop-color="#303030" stop-opacity="0"/>
</linearGradient>
<linearGradient id="paint10_linear_255_195" x1="857.246" y1="194.066" x2="857.246" y2="223.078" gradientUnits="userSpaceOnUse">
<stop stop-color="#303030"/>
<stop offset="1" stop-color="#303030" stop-opacity="0"/>
</linearGradient>
<linearGradient id="paint11_linear_255_195" x1="857.181" y1="182.667" x2="857.181" y2="211.752" gradientUnits="userSpaceOnUse">
<stop stop-color="#303030"/>
<stop offset="1" stop-color="#303030" stop-opacity="0"/>
</linearGradient>
<linearGradient id="paint12_linear_255_195" x1="857.181" y1="171.243" x2="857.181" y2="200.454" gradientUnits="userSpaceOnUse">
<stop stop-color="#303030"/>
<stop offset="1" stop-color="#303030" stop-opacity="0"/>
</linearGradient>
<linearGradient id="paint13_linear_255_195" x1="857.181" y1="160.265" x2="857.181" y2="189.283" gradientUnits="userSpaceOnUse">
<stop stop-color="#303030"/>
<stop offset="1" stop-color="#303030" stop-opacity="0"/>
</linearGradient>
<linearGradient id="paint14_linear_255_195" x1="857.117" y1="148.915" x2="857.117" y2="177.839" gradientUnits="userSpaceOnUse">
<stop stop-color="#303030"/>
<stop offset="1" stop-color="#303030" stop-opacity="0"/>
</linearGradient>
<linearGradient id="paint15_linear_255_195" x1="857.246" y1="137.28" x2="857.246" y2="166.62" gradientUnits="userSpaceOnUse">
<stop stop-color="#303030"/>
<stop offset="1" stop-color="#303030" stop-opacity="0"/>
</linearGradient>
<linearGradient id="paint16_linear_255_195" x1="857.312" y1="125.691" x2="857.312" y2="155.245" gradientUnits="userSpaceOnUse">
<stop stop-color="#303030"/>
<stop offset="1" stop-color="#303030" stop-opacity="0"/>
</linearGradient>
<linearGradient id="paint17_linear_255_195" x1="857.181" y1="114.543" x2="857.181" y2="145.01" gradientUnits="userSpaceOnUse">
<stop stop-color="#303030"/>
<stop offset="1" stop-color="#303030" stop-opacity="0"/>
</linearGradient>
<linearGradient id="paint18_linear_255_195" x1="857.246" y1="103.199" x2="857.246" y2="134.033" gradientUnits="userSpaceOnUse">
<stop stop-color="#303030"/>
<stop offset="1" stop-color="#303030" stop-opacity="0"/>
</linearGradient>
<linearGradient id="paint19_linear_255_195" x1="857.378" y1="91.7801" x2="857.378" y2="122.625" gradientUnits="userSpaceOnUse">
<stop stop-color="#303030"/>
<stop offset="1" stop-color="#303030" stop-opacity="0"/>
</linearGradient>
<linearGradient id="paint20_linear_255_195" x1="857.312" y1="80.416" x2="857.312" y2="111.337" gradientUnits="userSpaceOnUse">
<stop stop-color="#303030"/>
<stop offset="1" stop-color="#303030" stop-opacity="0"/>
</linearGradient>
<linearGradient id="paint21_linear_255_195" x1="857.117" y1="69.4732" x2="857.117" y2="99.5828" gradientUnits="userSpaceOnUse">
<stop stop-color="#303030"/>
<stop offset="1" stop-color="#303030" stop-opacity="0"/>
</linearGradient>
<linearGradient id="paint22_linear_255_195" x1="857.246" y1="57.768" x2="857.246" y2="87.3611" gradientUnits="userSpaceOnUse">
<stop stop-color="#303030"/>
<stop offset="1" stop-color="#303030" stop-opacity="0"/>
</linearGradient>
<linearGradient id="paint23_linear_255_195" x1="857.181" y1="46.3911" x2="857.181" y2="75.7803" gradientUnits="userSpaceOnUse">
<stop stop-color="#303030"/>
<stop offset="1" stop-color="#303030" stop-opacity="0"/>
</linearGradient>
<linearGradient id="paint24_linear_255_195" x1="857.181" y1="34.9115" x2="857.181" y2="64.4203" gradientUnits="userSpaceOnUse">
<stop stop-color="#303030"/>
<stop offset="1" stop-color="#303030" stop-opacity="0"/>
</linearGradient>
<linearGradient id="paint25_linear_255_195" x1="857.181" y1="23.3041" x2="857.181" y2="52.6931" gradientUnits="userSpaceOnUse">
<stop stop-color="#303030"/>
<stop offset="1" stop-color="#303030" stop-opacity="0"/>
</linearGradient>
<linearGradient id="paint26_linear_255_195" x1="857.181" y1="12.2258" x2="857.181" y2="41.4566" gradientUnits="userSpaceOnUse">
<stop stop-color="#303030"/>
<stop offset="1" stop-color="#303030" stop-opacity="0"/>
</linearGradient>
<linearGradient id="paint27_linear_255_195" x1="857.181" y1="0.374063" x2="857.181" y2="29.8099" gradientUnits="userSpaceOnUse">
<stop stop-color="#303030"/>
<stop offset="1" stop-color="#303030" stop-opacity="0"/>
</linearGradient>
<linearGradient id="paint28_linear_255_195" x1="857.117" y1="-11.1259" x2="857.117" y2="18.1789" gradientUnits="userSpaceOnUse">
<stop stop-color="#303030"/>
<stop offset="1" stop-color="#303030" stop-opacity="0"/>
</linearGradient>
<linearGradient id="paint29_linear_255_195" x1="857.378" y1="-22.999" x2="857.378" y2="6.61506" gradientUnits="userSpaceOnUse">
<stop stop-color="#303030"/>
<stop offset="1" stop-color="#303030" stop-opacity="0"/>
</linearGradient>
<clipPath id="clip0_255_195">
<rect width="1400" height="308" rx="40" fill="white"/>
</clipPath>
</defs>
</svg>
